<svg xmlns="http://www.w3.org/2000/svg" xmlns:xlink="http://www.w3.org/1999/xlink" width="768" zoomAndPan="magnify" viewBox="0 0 576 576" height="768" preserveAspectRatio="xMidYMid meet" version="1.2"><g id="be11f7b35b"><path style=" stroke:none;fill-rule:nonzero;fill:#000000;fill-opacity:1;" d="M 351.992188 204.59375 C 353.144531 206.09375 354.296875 207.707031 355.566406 209.203125 C 356.832031 210.585938 358.101562 212.082031 359.484375 213.464844 C 360.867188 214.734375 362.25 216.113281 363.632812 217.382812 C 365.128906 218.535156 366.628906 219.800781 368.125 220.953125 C 374.347656 225.445312 381.144531 228.902344 388.402344 230.859375 C 381.722656 227.40625 375.730469 223.140625 370.429688 218.074219 L 366.628906 214.273438 L 363.054688 210.125 L 359.828125 205.746094 L 356.949219 201.253906 C 353.261719 195.148438 350.496094 188.46875 348.882812 181.554688 C 347.730469 176.71875 347.15625 171.878906 347.15625 166.925781 C 350.957031 169.804688 354.527344 172.914062 357.871094 176.257812 C 362.710938 181.210938 367.089844 186.507812 371.003906 192.382812 C 374.921875 198.144531 378.378906 204.25 381.144531 210.699219 C 384.027344 217.152344 386.445312 223.832031 388.402344 230.746094 C 387.941406 223.601562 386.5625 216.460938 384.488281 209.433594 C 382.296875 202.523438 379.417969 195.726562 375.84375 189.273438 C 372.15625 182.9375 367.894531 176.832031 362.824219 171.417969 C 357.753906 166.003906 352.109375 161.164062 345.773438 157.132812 C 345.3125 156.902344 344.734375 156.671875 344.273438 156.558594 C 342.316406 156.328125 340.472656 157.707031 340.242188 159.78125 C 339.320312 167.617188 340.011719 175.679688 342.085938 183.167969 C 344.160156 191.117188 347.617188 198.257812 351.992188 204.59375 Z M 351.992188 204.59375 "/><path style=" stroke:none;fill-rule:nonzero;fill:#000000;fill-opacity:1;" d="M 360.519531 156.210938 C 365.707031 162.316406 371.925781 167.5 378.839844 171.300781 C 372.847656 166.234375 367.664062 160.472656 363.402344 154.023438 C 359.136719 147.6875 355.796875 140.773438 353.492188 133.632812 C 351.1875 126.488281 349.917969 119 349.917969 111.628906 C 349.917969 105.984375 350.609375 100.222656 351.992188 94.808594 C 356.027344 98.378906 359.484375 102.644531 362.59375 107.25 C 366.511719 113.355469 369.738281 120.039062 372.273438 127.066406 C 374.808594 134.09375 376.765625 141.351562 377.917969 148.722656 C 379.070312 156.097656 379.53125 163.699219 378.839844 171.300781 C 381.144531 163.929688 381.722656 156.097656 381.492188 148.378906 C 381.144531 140.660156 379.878906 132.824219 377.804688 125.335938 C 375.613281 117.851562 372.734375 110.476562 368.585938 103.566406 C 364.4375 96.769531 359.136719 90.433594 352.339844 85.59375 L 352.222656 85.476562 C 351.992188 85.25 351.648438 85.132812 351.300781 85.019531 C 349.457031 84.441406 347.5 85.476562 346.808594 87.320312 C 346.234375 89.28125 345.65625 91.238281 344.964844 93.3125 L 343.699219 99.417969 L 343.121094 105.523438 C 343.121094 107.597656 343.007812 109.671875 343.007812 111.742188 C 343.351562 119.921875 345.082031 128.101562 348.074219 135.589844 C 351.070312 143.078125 355.335938 149.992188 360.519531 156.210938 Z M 360.519531 156.210938 "/><path style=" stroke:none;fill-rule:nonzero;fill:#000000;fill-opacity:1;" d="M 361.671875 274.867188 C 362.824219 276.480469 363.863281 278.09375 365.015625 279.589844 C 366.28125 281.089844 367.433594 282.585938 368.699219 284.082031 C 370.082031 285.464844 371.351562 286.847656 372.734375 288.230469 C 374.230469 289.496094 375.613281 290.765625 377.113281 292.03125 C 383.105469 296.753906 389.902344 300.558594 397.046875 302.746094 C 390.59375 299.058594 384.601562 294.566406 379.53125 289.382812 L 375.84375 285.351562 L 372.503906 281.089844 L 369.390625 276.59375 L 366.628906 271.988281 C 363.171875 265.652344 360.636719 258.96875 359.253906 252.058594 C 358.214844 247.21875 357.871094 242.265625 358.101562 237.425781 C 361.789062 240.421875 365.246094 243.648438 368.46875 247.105469 C 373.195312 252.171875 377.34375 257.703125 381.03125 263.691406 C 384.71875 269.566406 387.941406 275.902344 390.59375 282.46875 C 393.242188 289.035156 395.316406 295.832031 397.046875 302.746094 C 396.929688 295.601562 395.777344 288.34375 393.933594 281.320312 C 391.976562 274.292969 389.441406 267.378906 385.984375 260.929688 C 382.644531 254.476562 378.496094 248.257812 373.65625 242.609375 C 368.816406 236.964844 363.285156 231.898438 357.179688 227.636719 C 356.71875 227.289062 356.257812 227.058594 355.679688 227.058594 C 353.722656 226.714844 351.878906 228.097656 351.53125 230.054688 C 350.378906 237.886719 350.726562 245.953125 352.570312 253.554688 C 354.414062 261.042969 357.523438 268.300781 361.671875 274.867188 Z M 361.671875 274.867188 "/><path style=" stroke:none;fill-rule:nonzero;fill:#000000;fill-opacity:1;" d="M 380.683594 352.398438 L 376.882812 348.480469 L 373.425781 344.332031 L 370.199219 339.957031 L 367.320312 335.460938 C 363.746094 329.242188 360.980469 322.675781 359.367188 315.761719 C 358.214844 310.925781 357.753906 305.972656 357.753906 301.132812 C 361.558594 304.011719 365.128906 307.125 368.46875 310.578125 C 373.308594 315.53125 377.6875 320.945312 381.492188 326.707031 C 385.292969 332.46875 388.75 338.6875 391.515625 345.140625 C 394.394531 351.589844 396.699219 358.273438 398.542969 365.300781 C 398.199219 358.15625 396.816406 350.898438 394.742188 343.988281 C 392.667969 337.074219 389.785156 330.277344 386.214844 323.828125 C 382.644531 317.375 378.378906 311.386719 373.308594 305.855469 C 368.355469 300.328125 362.710938 295.488281 356.371094 291.339844 C 355.910156 290.996094 355.449219 290.878906 354.875 290.765625 C 352.914062 290.535156 351.070312 291.917969 350.839844 293.875 C 349.917969 301.707031 350.496094 309.773438 352.570312 317.375 C 354.644531 324.980469 357.984375 332.121094 362.363281 338.574219 C 363.515625 340.1875 364.667969 341.683594 365.820312 343.179688 C 367.089844 344.679688 368.355469 346.0625 369.621094 347.558594 C 371.003906 348.941406 372.386719 350.207031 373.769531 351.589844 C 375.269531 352.859375 376.765625 354.007812 378.265625 355.277344 C 384.371094 359.769531 391.285156 363.339844 398.542969 365.414062 C 391.976562 361.726562 385.984375 357.464844 380.683594 352.398438 Z M 380.683594 352.398438 "/><path style=" stroke:none;fill-rule:nonzero;fill:#000000;fill-opacity:1;" d="M 367.664062 370.484375 C 362.59375 365.070312 356.832031 360.230469 350.496094 356.3125 C 350.035156 356.082031 349.457031 355.851562 348.996094 355.738281 C 347.039062 355.507812 345.195312 357.003906 344.964844 358.964844 C 344.160156 366.796875 344.851562 374.859375 347.039062 382.347656 C 349.226562 389.953125 352.683594 396.980469 357.179688 403.316406 C 358.332031 404.8125 359.484375 406.425781 360.75 407.921875 C 362.019531 409.304688 363.285156 410.804688 364.667969 412.1875 C 366.050781 413.453125 367.433594 414.835938 368.929688 416.101562 C 370.429688 417.253906 371.925781 418.523438 373.425781 419.671875 C 379.648438 424.050781 386.5625 427.621094 393.820312 429.464844 C 387.136719 426.007812 381.03125 421.863281 375.730469 416.792969 L 371.8125 412.992188 L 368.238281 408.84375 L 365.015625 404.582031 L 362.019531 400.089844 C 358.332031 393.984375 355.449219 387.300781 353.835938 380.503906 C 352.683594 375.667969 351.992188 370.828125 351.992188 365.875 C 355.796875 368.640625 359.484375 371.75 362.824219 375.089844 C 367.664062 379.929688 372.15625 385.34375 376.074219 391.105469 C 379.992188 396.863281 383.449219 402.96875 386.445312 409.421875 C 389.441406 415.871094 391.746094 422.554688 393.820312 429.464844 C 393.359375 422.324219 391.859375 415.179688 389.671875 408.152344 C 387.484375 401.242188 384.601562 394.445312 380.914062 388.109375 C 377.113281 381.886719 372.734375 375.898438 367.664062 370.484375 Z M 367.664062 370.484375 "/><path style=" stroke:none;fill-rule:nonzero;fill:#000000;fill-opacity:1;" d="M 374.691406 447.207031 C 371.234375 441.675781 367.089844 436.492188 362.363281 431.769531 C 357.640625 427.160156 352.339844 423.015625 346.464844 419.671875 C 346.003906 419.441406 345.425781 419.210938 344.851562 419.210938 C 342.890625 419.097656 341.164062 420.710938 341.046875 422.667969 C 340.703125 429.695312 341.738281 436.839844 343.929688 443.519531 C 346.117188 450.203125 349.457031 456.421875 353.722656 461.835938 C 354.875 463.21875 355.910156 464.488281 357.0625 465.753906 C 358.332031 467.019531 359.484375 468.171875 360.75 469.441406 L 364.667969 472.78125 L 368.816406 475.777344 C 374.578125 479.460938 380.914062 482.226562 387.484375 483.496094 C 381.492188 480.613281 375.84375 477.160156 371.003906 472.894531 L 367.433594 469.671875 L 364.207031 466.097656 C 363.171875 464.832031 362.132812 463.679688 361.210938 462.414062 L 358.445312 458.496094 C 354.988281 453.195312 352.222656 447.4375 350.496094 441.445312 C 349.34375 437.53125 348.652344 433.496094 348.308594 429.464844 C 351.53125 431.65625 354.644531 434.074219 357.523438 436.722656 C 362.019531 440.871094 366.167969 445.363281 369.96875 450.316406 C 373.65625 455.269531 377.113281 460.570312 379.992188 466.097656 C 382.988281 471.628906 385.410156 477.503906 387.597656 483.496094 C 386.90625 477.160156 385.410156 470.824219 383.21875 464.71875 C 380.914062 458.726562 378.148438 452.851562 374.691406 447.207031 Z M 374.691406 447.207031 "/><path style=" stroke:none;fill-rule:nonzero;fill:#000000;fill-opacity:1;" d="M 397.160156 214.042969 C 396.585938 206.898438 396.46875 199.757812 397.046875 192.730469 C 397.507812 185.703125 398.660156 178.789062 400.273438 171.992188 C 401.886719 165.195312 404.191406 158.628906 407.070312 152.410156 C 409.027344 148.03125 411.332031 143.886719 413.984375 139.96875 C 415.710938 144.574219 416.863281 149.414062 417.324219 154.253906 C 418.132812 161.28125 417.785156 168.421875 416.519531 175.449219 L 415.367188 180.75 L 413.753906 185.933594 L 411.792969 191 L 409.488281 195.957031 C 406.496094 202.40625 402.230469 208.511719 397.160156 214.042969 C 403.269531 209.777344 408.566406 204.019531 412.832031 197.796875 C 413.867188 196.1875 414.789062 194.574219 415.828125 192.84375 C 416.75 191.117188 417.554688 189.390625 418.476562 187.660156 C 419.285156 185.933594 419.859375 184.089844 420.667969 182.246094 C 421.242188 180.402344 421.820312 178.558594 422.394531 176.71875 C 424.355469 169.230469 425.160156 161.394531 424.46875 153.5625 C 423.777344 145.726562 421.703125 138.007812 418.132812 130.867188 C 417.902344 130.40625 417.554688 129.945312 417.09375 129.601562 C 415.480469 128.332031 413.175781 128.679688 412.023438 130.292969 C 407.53125 136.28125 403.84375 142.734375 400.964844 149.53125 C 398.082031 156.328125 396.125 163.46875 394.855469 170.726562 C 393.589844 177.984375 393.242188 185.355469 393.589844 192.613281 C 393.933594 199.988281 395.085938 207.128906 397.160156 214.042969 Z M 397.160156 214.042969 "/><path style=" stroke:none;fill-rule:nonzero;fill:#000000;fill-opacity:1;" d="M 410.066406 233.050781 C 407.300781 239.847656 405.457031 246.988281 404.304688 254.132812 C 403.152344 261.273438 402.808594 268.644531 403.382812 275.789062 C 404.421875 268.644531 405.6875 261.734375 407.761719 254.9375 C 409.71875 248.140625 412.253906 241.574219 415.25 235.355469 C 418.246094 229.132812 421.933594 223.140625 426.082031 217.613281 C 428.960938 213.8125 432.074219 210.238281 435.414062 206.898438 C 436.105469 211.738281 436.222656 216.691406 435.761719 221.644531 C 435.070312 228.671875 433.226562 235.585938 430.460938 242.265625 L 428.15625 247.105469 L 425.507812 251.828125 L 422.625 256.433594 L 419.398438 260.8125 C 414.90625 266.574219 409.488281 271.527344 403.382812 275.902344 C 410.296875 273.023438 416.632812 268.53125 422.164062 263.230469 C 423.433594 261.851562 424.816406 260.46875 426.082031 259.085938 C 427.347656 257.585938 428.5 256.089844 429.652344 254.59375 C 430.804688 252.980469 431.84375 251.367188 432.878906 249.753906 C 433.800781 248.140625 434.839844 246.414062 435.761719 244.683594 C 439.332031 237.773438 441.636719 230.285156 442.675781 222.453125 C 443.710938 214.617188 443.25 206.667969 441.292969 198.949219 C 441.175781 198.488281 440.945312 197.914062 440.484375 197.566406 C 439.21875 196.070312 436.914062 195.839844 435.414062 197.222656 C 429.769531 202.0625 424.816406 207.707031 420.550781 213.8125 C 416.289062 219.570312 412.832031 226.136719 410.066406 233.050781 Z M 410.066406 233.050781 "/><path style=" stroke:none;fill-rule:nonzero;fill:#000000;fill-opacity:1;" d="M 452.699219 266.34375 C 452.582031 265.765625 452.351562 265.304688 452.007812 264.84375 C 450.855469 263.230469 448.550781 262.886719 446.9375 264.039062 C 440.945312 268.417969 435.53125 273.601562 430.804688 279.359375 C 426.082031 285.121094 422.164062 291.339844 418.824219 297.90625 C 415.597656 304.472656 413.0625 311.386719 411.332031 318.527344 C 409.605469 325.554688 408.683594 332.8125 408.683594 340.070312 C 410.179688 333.042969 412.140625 326.246094 414.675781 319.566406 C 417.210938 313 420.207031 306.664062 423.777344 300.671875 C 427.351562 294.683594 431.382812 289.035156 435.992188 283.851562 C 439.101562 280.28125 442.558594 276.941406 446.246094 273.945312 C 446.59375 278.898438 446.246094 283.738281 445.324219 288.691406 C 444.058594 295.601562 441.753906 302.398438 438.410156 308.734375 L 435.761719 313.34375 L 432.765625 317.835938 L 429.421875 322.097656 L 425.851562 326.132812 C 420.898438 331.429688 415.019531 336.039062 408.683594 339.957031 C 415.828125 337.652344 422.511719 333.621094 428.386719 328.894531 C 429.769531 327.628906 431.265625 326.363281 432.648438 325.09375 C 434.03125 323.710938 435.300781 322.328125 436.566406 320.945312 C 437.835938 319.449219 438.988281 317.953125 440.140625 316.453125 C 441.292969 314.839844 442.328125 313.230469 443.367188 311.617188 C 447.398438 305.050781 450.394531 297.675781 452.007812 289.957031 C 453.851562 282.238281 453.964844 274.175781 452.699219 266.34375 Z M 452.699219 266.34375 "/><path style=" stroke:none;fill-rule:nonzero;fill:#000000;fill-opacity:1;" d="M 449.125 340.1875 C 449.125 339.609375 448.894531 339.148438 448.664062 338.6875 C 447.628906 336.960938 445.441406 336.382812 443.710938 337.421875 C 437.257812 341.222656 431.382812 345.832031 426.082031 351.015625 C 420.78125 356.199219 416.171875 362.074219 412.371094 368.292969 C 408.453125 374.515625 405.34375 381.195312 402.808594 387.992188 C 400.386719 394.90625 398.660156 401.933594 397.96875 409.074219 C 400.273438 402.277344 402.808594 395.597656 406.035156 389.375 C 409.144531 383.039062 412.832031 377.050781 416.980469 371.519531 C 421.128906 365.875 425.738281 360.691406 430.804688 355.96875 C 434.261719 352.742188 438.066406 349.746094 441.984375 347.097656 C 441.753906 352.050781 440.945312 356.890625 439.679688 361.613281 C 437.71875 368.410156 434.722656 374.859375 430.804688 380.851562 L 427.695312 385.230469 L 424.238281 389.375 L 420.550781 393.292969 L 416.519531 396.980469 C 410.988281 401.816406 404.765625 405.734375 397.96875 408.960938 C 405.34375 407.347656 412.253906 404.121094 418.707031 399.859375 C 420.207031 398.707031 421.820312 397.554688 423.316406 396.402344 C 424.816406 395.136719 426.199219 393.867188 427.695312 392.601562 C 429.078125 391.21875 430.34375 389.835938 431.726562 388.453125 C 432.996094 386.957031 434.261719 385.460938 435.414062 383.960938 C 440.140625 377.855469 443.828125 370.828125 446.246094 363.339844 C 448.664062 356.082031 449.703125 348.132812 449.125 340.1875 Z M 449.125 340.1875 "/><path style=" stroke:none;fill-rule:nonzero;fill:#000000;fill-opacity:1;" d="M 439.449219 409.304688 C 433.109375 411.726562 427.003906 415.066406 421.472656 418.980469 C 415.941406 422.898438 410.871094 427.507812 406.496094 432.574219 C 402 437.644531 398.199219 443.175781 394.972656 449.050781 C 391.859375 454.925781 389.210938 461.03125 387.714844 467.480469 C 390.824219 461.722656 394.164062 456.078125 397.96875 451.007812 C 401.769531 445.824219 406.035156 440.984375 410.640625 436.609375 C 415.25 432.230469 420.207031 428.3125 425.390625 424.859375 C 428.847656 422.554688 432.417969 420.59375 436.222656 418.867188 C 435.414062 423.015625 434.03125 427.046875 432.1875 430.964844 C 429.539062 436.722656 425.738281 442.136719 421.359375 446.859375 L 419.628906 448.589844 C 419.054688 449.164062 418.476562 449.742188 417.902344 450.316406 C 416.632812 451.355469 415.480469 452.503906 414.214844 453.542969 C 412.945312 454.578125 411.679688 455.617188 410.296875 456.539062 C 408.914062 457.460938 407.53125 458.378906 406.148438 459.300781 C 404.765625 460.109375 403.269531 461.03125 401.769531 461.835938 L 397.277344 464.027344 L 392.550781 465.867188 C 391.167969 466.328125 389.554688 467.019531 387.710938 467.480469 C 389.210938 467.25 390.9375 467.136719 392.78125 466.90625 C 394.511719 466.558594 396.125 466.214844 397.851562 465.867188 C 399.582031 465.40625 401.195312 464.832031 402.808594 464.371094 C 404.421875 463.796875 406.035156 463.105469 407.644531 462.527344 C 409.257812 461.835938 410.757812 460.914062 412.371094 460.222656 C 413.867188 459.417969 415.367188 458.378906 416.863281 457.574219 C 418.363281 456.652344 419.746094 455.5 421.128906 454.464844 C 422.511719 453.425781 423.894531 452.160156 425.160156 451.007812 C 430.460938 446.167969 434.839844 440.410156 438.179688 434.074219 C 441.523438 427.621094 443.597656 420.59375 444.171875 413.222656 C 444.171875 412.644531 444.171875 412.183594 443.941406 411.609375 C 443.367188 409.535156 441.292969 408.613281 439.449219 409.304688 Z M 439.449219 409.304688 "/><path style=" stroke:none;fill-rule:nonzero;fill:#000000;fill-opacity:1;" d="M 454.195312 84.671875 C 409.949219 30.066406 350.839844 0 288.046875 0 C 225.25 0 166.140625 30.066406 121.777344 84.671875 C 77.53125 138.929688 53.21875 211.160156 53.21875 288 C 53.21875 364.839844 77.53125 437.070312 121.777344 491.328125 C 166.140625 545.933594 225.132812 576 288.046875 576 C 350.957031 576 409.949219 545.933594 454.3125 491.328125 C 498.441406 436.953125 522.871094 364.722656 522.871094 288 C 522.753906 211.160156 498.441406 138.929688 454.195312 84.671875 Z M 395.433594 40.550781 C 367.894531 42.046875 340.703125 49.996094 316.042969 62.667969 C 290.925781 75.457031 268.226562 92.964844 248.984375 113.472656 C 239.304688 123.726562 230.433594 134.785156 222.484375 146.417969 C 214.53125 158.054688 207.503906 170.378906 201.28125 183.054688 C 195.175781 195.839844 189.875 208.972656 185.84375 222.453125 C 183.769531 229.246094 181.925781 236.042969 180.3125 242.957031 C 178.699219 249.867188 177.429688 256.78125 176.277344 263.808594 C 174.089844 277.746094 172.9375 291.917969 172.820312 306.085938 C 172.707031 320.257812 173.398438 334.308594 174.664062 348.25 C 175.933594 362.304688 178.007812 376.242188 180.542969 390.066406 C 183.191406 403.890625 186.304688 417.601562 190.105469 431.078125 C 193.90625 444.558594 198.402344 457.921875 203.585938 471.054688 C 208.773438 484.070312 214.648438 496.859375 221.445312 509.183594 C 228.246094 521.511719 235.964844 533.261719 244.953125 544.089844 C 249.445312 549.503906 254.285156 554.6875 259.46875 559.410156 C 262.003906 561.832031 264.769531 564.019531 267.535156 566.207031 C 268.226562 566.667969 268.804688 567.128906 269.492188 567.589844 C 259.007812 566.554688 248.640625 564.59375 238.613281 561.832031 C 219.371094 550.769531 201.972656 536.945312 186.765625 521.050781 C 176.855469 510.910156 167.984375 499.851562 159.917969 488.21875 C 151.851562 476.582031 144.59375 464.371094 138.140625 451.8125 C 125.351562 426.585938 115.785156 399.742188 109.679688 372.097656 C 103.457031 344.5625 100.460938 316.222656 100.460938 287.886719 C 100.460938 259.546875 103.574219 231.320312 109.796875 203.789062 C 112.90625 189.964844 116.824219 176.371094 121.546875 163.125 C 122.816406 159.78125 124.082031 156.558594 125.234375 153.214844 C 126.503906 149.875 128 146.648438 129.269531 143.425781 C 130.652344 140.199219 132.148438 136.972656 133.644531 133.746094 C 135.144531 130.523438 136.757812 127.410156 138.253906 124.1875 C 144.707031 111.628906 151.964844 99.417969 160.03125 87.78125 C 168.097656 76.148438 177.085938 65.203125 186.996094 54.949219 C 202.78125 38.59375 220.984375 24.308594 241.035156 13.132812 C 256.242188 9.214844 271.914062 7.027344 288.046875 7.027344 C 326.761719 7.257812 363.402344 19.355469 395.433594 40.550781 Z M 60.480469 288 C 60.480469 154.945312 135.949219 43.199219 236.769531 14.398438 C 217.644531 24.421875 200.015625 37.441406 184.34375 52.53125 C 163.71875 72.574219 146.550781 96.191406 133.070312 121.535156 C 131.457031 124.761719 129.730469 127.871094 128.117188 131.097656 C 126.617188 134.324219 125.003906 137.546875 123.507812 140.890625 C 122.125 144.230469 120.625 147.457031 119.242188 150.796875 C 117.976562 154.136719 116.59375 157.476562 115.324219 160.820312 C 110.257812 174.296875 106.109375 188.121094 102.765625 202.175781 C 96.199219 230.285156 92.972656 259.085938 92.855469 287.886719 C 92.972656 316.683594 96.082031 345.484375 102.652344 373.59375 C 105.992188 387.648438 110.140625 401.472656 115.09375 414.949219 C 120.050781 428.429688 126.042969 441.675781 132.722656 454.347656 C 146.207031 479.808594 163.257812 503.425781 183.882812 523.46875 C 198.746094 537.867188 215.453125 550.539062 233.660156 560.332031 C 134.453125 530.496094 60.480469 419.671875 60.480469 288 Z M 288.046875 568.742188 C 282.054688 568.742188 276.0625 568.398438 270.183594 567.820312 C 269.378906 567.128906 268.574219 566.554688 267.765625 565.863281 C 265.117188 563.558594 262.582031 561.140625 260.160156 558.71875 C 255.320312 553.765625 250.710938 548.46875 246.566406 542.9375 C 238.152344 531.878906 231.007812 519.898438 224.671875 507.570312 C 218.335938 495.246094 212.917969 482.457031 208.195312 469.324219 C 203.355469 456.308594 199.324219 443.058594 195.75 429.582031 C 192.292969 416.101562 189.300781 402.625 186.878906 388.914062 C 184.460938 375.207031 182.730469 361.496094 181.464844 347.671875 C 180.195312 333.847656 179.621094 320.027344 179.851562 306.203125 C 179.964844 299.289062 180.3125 292.378906 180.886719 285.582031 C 181.464844 278.667969 182.269531 271.871094 183.308594 265.074219 C 184.34375 258.277344 185.613281 251.480469 187.226562 244.800781 C 188.722656 238.117188 190.566406 231.4375 192.523438 224.753906 C 194.484375 218.1875 196.789062 211.621094 199.324219 205.171875 C 201.742188 198.71875 204.507812 192.382812 207.390625 186.164062 C 219.140625 161.164062 234.464844 137.894531 253.015625 117.390625 C 271.566406 97 293.34375 79.140625 317.65625 65.894531 C 341.625 52.644531 368.125 43.890625 395.546875 40.894531 C 466.871094 88.128906 515.496094 181.210938 515.496094 288 C 515.496094 442.828125 413.40625 568.742188 288.046875 568.742188 Z M 288.046875 568.742188 "/></g></svg>