<svg xmlns="http://www.w3.org/2000/svg" xmlns:xlink="http://www.w3.org/1999/xlink" width="768" zoomAndPan="magnify" viewBox="0 0 576 576" height="768" preserveAspectRatio="xMidYMid meet" version="1.2"><defs><clipPath id="23f4ac5529"><path d="M 6 47 L 570 47 L 570 529.441406 L 6 529.441406 Z M 6 47 "/></clipPath></defs><g id="c8f5a3d5de"><g clip-rule="nonzero" clip-path="url(#23f4ac5529)"><path style=" stroke:none;fill-rule:nonzero;fill:#3e3d3f;fill-opacity:1;" d="M 437.453125 329.328125 C 442.988281 329.691406 448.371094 330.796875 453.597656 332.644531 C 458.828125 334.492188 463.710938 337.011719 468.246094 340.203125 C 468.878906 340.480469 469.496094 340.796875 470.089844 341.148438 C 470.683594 341.5 471.253906 341.886719 471.804688 342.308594 C 472.351562 342.730469 472.871094 343.183594 473.363281 343.671875 C 473.855469 344.15625 474.316406 344.667969 474.746094 345.210938 C 475.175781 345.753906 475.570312 346.320312 475.929688 346.910156 C 476.289062 347.5 476.613281 348.109375 476.898438 348.738281 C 477.183594 349.367188 477.429688 350.015625 477.636719 350.671875 C 477.84375 351.332031 478.007812 352.003906 478.132812 352.683594 C 478.257812 353.363281 478.339844 354.046875 478.378906 354.738281 C 478.421875 355.429688 478.421875 356.117188 478.375 356.808594 C 478.332031 357.496094 478.246094 358.183594 478.121094 358.863281 C 477.992188 359.542969 477.824219 360.210938 477.617188 360.871094 C 477.40625 361.527344 477.160156 362.171875 476.871094 362.800781 C 476.582031 363.429688 476.257812 364.039062 475.894531 364.625 C 475.535156 365.214844 475.136719 365.78125 474.707031 366.320312 C 474.273438 366.859375 473.8125 367.371094 473.316406 367.855469 C 467.066406 375.578125 461.816406 383.925781 457.5625 392.898438 C 453.304688 401.875 450.167969 411.226562 448.148438 420.949219 C 443.683594 435.585938 440.058594 450.425781 437.269531 465.46875 C 437.101562 466.542969 436.824219 467.585938 436.4375 468.597656 C 436.046875 469.609375 435.550781 470.570312 434.957031 471.476562 C 434.359375 472.382812 433.671875 473.214844 432.898438 473.976562 C 432.121094 474.734375 431.273438 475.402344 430.355469 475.976562 C 411.085938 487.40625 391.445312 498.191406 367.566406 493.675781 C 366.277344 493.675781 364.707031 493.675781 363.878906 493.121094 C 357.242188 487.59375 351.984375 492.199219 345.4375 494.78125 C 331.425781 500.957031 319.714844 511.28125 305.425781 516.996094 C 297.730469 520.171875 289.738281 522.167969 281.453125 522.988281 C 258.589844 524.648438 236.183594 529.902344 213.136719 529.164062 C 185.59375 529.582031 158.519531 526.234375 131.910156 519.117188 C 114.113281 513.585938 96.136719 507.59375 83.6875 491.464844 C 80.03125 487.003906 77.234375 482.058594 75.300781 476.625 C 73.402344 471.460938 71.21875 466.421875 68.753906 461.507812 C 68.292969 460.492188 67.757812 459.523438 67.136719 458.597656 C 66.519531 457.671875 65.832031 456.804688 65.070312 455.992188 C 64.3125 455.179688 63.492188 454.433594 62.609375 453.753906 C 61.726562 453.078125 60.792969 452.472656 59.8125 451.949219 C 58.832031 451.421875 57.816406 450.980469 56.761719 450.621094 C 55.707031 450.261719 54.632812 449.992188 53.535156 449.808594 C 52.4375 449.628906 51.332031 449.535156 50.21875 449.535156 C 49.105469 449.53125 48 449.621094 46.902344 449.800781 C 35.871094 451.140625 24.835938 451.140625 13.804688 449.800781 C 6.613281 448.878906 4.582031 446.390625 8.085938 439.84375 C 11.753906 432.328125 13.90625 424.402344 14.539062 416.0625 C 14.929688 412.992188 14.929688 409.917969 14.539062 406.847656 C 14.257812 405.890625 14.042969 404.921875 13.894531 403.9375 C 13.75 402.953125 13.671875 401.960938 13.667969 400.964844 C 13.660156 399.96875 13.726562 398.976562 13.859375 397.992188 C 13.996094 397.003906 14.199219 396.03125 14.46875 395.074219 C 14.742188 394.113281 15.082031 393.179688 15.484375 392.269531 C 15.890625 391.359375 16.355469 390.484375 16.882812 389.636719 C 17.414062 388.792969 17.996094 387.992188 18.640625 387.230469 C 19.28125 386.46875 19.976562 385.757812 20.71875 385.09375 C 23.492188 382.316406 25.890625 379.242188 27.910156 375.875 C 32.496094 370.238281 37.726562 365.277344 43.601562 360.996094 C 49.476562 356.71875 55.800781 353.257812 62.574219 350.621094 C 71.234375 345.726562 80.453125 342.378906 90.234375 340.570312 C 94.109375 340.570312 92.449219 337.898438 92.078125 336.425781 C 85.453125 298.675781 83.671875 260.699219 86.730469 222.496094 C 87.140625 211.941406 88.554688 201.527344 90.972656 191.246094 C 93.277344 182.03125 95.765625 172.351562 106.738281 168.386719 C 117.710938 164.425781 126.378906 154.652344 138.085938 150.96875 C 139.222656 150.523438 140.390625 150.203125 141.597656 150.011719 C 142.800781 149.824219 144.011719 149.761719 145.230469 149.835938 C 146.449219 149.90625 147.644531 150.105469 148.816406 150.4375 C 149.992188 150.769531 151.117188 151.222656 152.191406 151.796875 C 154.308594 152.835938 156.347656 154.007812 158.316406 155.304688 C 160.285156 156.601562 162.164062 158.015625 163.953125 159.550781 C 165.742188 161.082031 167.429688 162.722656 169.011719 164.46875 C 170.597656 166.210938 172.0625 168.050781 173.417969 169.980469 C 174.769531 171.910156 175.996094 173.917969 177.09375 176 C 178.195312 178.085938 179.160156 180.230469 179.992188 182.433594 C 180.820312 184.640625 181.511719 186.890625 182.058594 189.179688 C 182.605469 191.472656 183.007812 193.789062 183.261719 196.132812 C 185.476562 208.484375 187.503906 220.835938 189.164062 233.003906 C 190.40625 239.730469 193.019531 245.875 197 251.4375 C 196.714844 247.722656 196.714844 244.003906 197 240.285156 C 197.554688 236.507812 193.679688 230.238281 201.886719 229.871094 C 202.347656 229.871094 202.71875 227.75 203.085938 226.550781 C 206.589844 215.859375 211.015625 205.535156 213.6875 194.472656 C 214.425781 191.617188 215.902344 188.945312 213.6875 185.902344 C 212.675781 184.335938 212.859375 181.476562 214.425781 181.292969 C 221.25 180.277344 221.710938 174.289062 223.644531 169.863281 C 228.875 157.671875 234.714844 145.78125 241.164062 134.191406 C 244.746094 126.871094 248.773438 119.804688 253.242188 112.992188 C 265.503906 95.660156 277.582031 76.121094 303.582031 77.320312 C 310.53125 76.421875 317.507812 76.085938 324.511719 76.304688 C 345.808594 80.546875 352.167969 101.285156 349.128906 118.335938 C 344.550781 139.871094 338.40625 160.949219 330.6875 181.570312 C 328.589844 187.558594 327.179688 193.703125 326.445312 200.003906 C 338.433594 186.363281 349.863281 174.65625 359.546875 161.660156 C 369.226562 148.664062 382.042969 135.851562 392.921875 122.761719 C 409.035156 103.914062 427.167969 87.261719 447.316406 72.800781 C 448.1875 72.644531 449.015625 72.367188 449.808594 71.972656 C 463.914062 52.984375 484.84375 49.296875 506.878906 47.824219 C 519.691406 46.667969 532.414062 47.3125 545.046875 49.757812 C 569.386719 55.195312 571.96875 78.054688 568.652344 93.910156 C 564.125 109.714844 558.410156 125.078125 551.5 140 C 540.898438 168.113281 533.0625 197.421875 517.757812 222.957031 C 505.773438 242.957031 492.21875 262.039062 479.585938 281.671875 C 472.671875 292.171875 465.082031 302.15625 456.8125 311.628906 C 452.355469 316.226562 447.46875 320.3125 442.15625 323.886719 C 440.585938 325.269531 437.820312 325.546875 437.453125 329.328125 Z M 264.859375 432.378906 C 264.398438 432.378906 263.566406 433.484375 263.660156 433.578125 C 263.75 433.667969 265.136719 434.128906 265.871094 433.578125 C 269.652344 431.640625 273.433594 429.796875 277.027344 427.679688 C 279.058594 426.570312 282.007812 426.296875 281.914062 422.792969 C 281.824219 419.289062 278.597656 420.394531 276.9375 419.289062 C 275.277344 418.183594 272.695312 420.210938 271.3125 422.332031 C 269.929688 424.453125 266.980469 429.0625 264.859375 432.378906 Z M 395.410156 267.753906 C 394.535156 267.152344 393.765625 266.4375 393.097656 265.613281 C 392.433594 264.785156 391.898438 263.882812 391.496094 262.898438 C 391.09375 261.914062 390.84375 260.894531 390.742188 259.839844 C 390.636719 258.785156 390.6875 257.734375 390.894531 256.691406 C 391.335938 253.480469 391.535156 250.253906 391.484375 247.011719 C 391.4375 243.769531 391.144531 240.550781 390.605469 237.355469 C 390.0625 234.15625 389.285156 231.019531 388.269531 227.941406 C 387.25 224.863281 386.003906 221.882812 384.53125 218.992188 C 382.808594 215.753906 381.367188 212.394531 380.199219 208.917969 C 379.03125 205.4375 378.160156 201.890625 377.578125 198.265625 C 377 194.644531 376.71875 191 376.742188 187.332031 C 376.761719 183.664062 377.085938 180.023438 377.707031 176.40625 C 378.535156 168.6875 378.871094 160.941406 378.722656 153.179688 C 369.503906 163.226562 363.324219 173.828125 355.859375 183.503906 C 352.449219 187.992188 349.585938 192.800781 347.265625 197.9375 C 344.949219 203.070312 343.234375 208.398438 342.121094 213.921875 C 339.445312 225.445312 339.90625 237.335938 338.0625 248.949219 C 335.550781 258.234375 332.199219 267.207031 328.015625 275.863281 C 334.558594 274.207031 339.539062 271.347656 345.164062 270.242188 C 361.890625 267.828125 378.699219 266.84375 395.59375 267.292969 C 394.949219 268.859375 396.054688 268.675781 396.976562 268.675781 C 399.4375 269.128906 401.863281 269.710938 404.261719 270.425781 C 413.480469 273.285156 424.914062 273.191406 429.894531 283.792969 C 432.238281 288.222656 434.019531 292.871094 435.238281 297.734375 C 436.453125 302.597656 437.070312 307.539062 437.085938 312.550781 C 436.347656 313.65625 436.070312 315.039062 437.085938 315.777344 C 438.097656 316.515625 438.929688 315.777344 439.296875 314.488281 C 446.191406 309.125 452.46875 303.121094 458.136719 296.476562 C 463.804688 289.835938 468.742188 282.6875 472.949219 275.035156 L 474.148438 273.652344 C 478.210938 269.703125 481.285156 265.09375 483.367188 259.828125 L 488.253906 252.269531 C 490.328125 250.6875 491.769531 248.660156 492.585938 246.183594 C 493.96875 246.183594 494.0625 244.710938 494.15625 243.511719 C 497.105469 239.269531 499.871094 234.9375 502.914062 230.792969 C 503.628906 230.125 504.25 229.382812 504.78125 228.5625 C 505.3125 227.742188 505.734375 226.871094 506.046875 225.945312 C 506.363281 225.019531 506.558594 224.070312 506.636719 223.097656 C 506.714844 222.121094 506.671875 221.152344 506.507812 220.191406 L 506.507812 219.636719 L 507.0625 220.191406 C 512.871094 221.480469 511.117188 215.398438 513.515625 213.460938 C 514.160156 212.355469 514.898438 211.34375 515.453125 210.234375 C 525.910156 186.996094 535.132812 163.277344 543.113281 139.078125 C 549.472656 122.023438 559.0625 105.984375 561.550781 87.734375 C 563.488281 72.988281 559.246094 61.925781 544.496094 58.054688 C 535.492188 56.371094 526.410156 55.53125 517.25 55.53125 C 508.089844 55.53125 499.007812 56.371094 490.003906 58.054688 C 470.460938 60.265625 464.375 72.617188 461.425781 88.011719 C 459.585938 99.503906 459.371094 111.023438 460.777344 122.578125 C 463.089844 150.597656 463.089844 178.621094 460.777344 206.640625 C 460.777344 209.773438 460.777344 213.371094 456.445312 213.460938 C 452.113281 213.554688 452.296875 210.144531 451.558594 207.011719 C 447.882812 190.382812 445.457031 173.578125 444.277344 156.589844 C 442.007812 137.507812 442.007812 118.429688 444.277344 99.347656 C 446.6875 94.589844 448.101562 89.550781 448.515625 84.230469 L 436.253906 93.449219 L 432.933594 96.398438 L 431.550781 97.320312 C 423.710938 102.511719 417.101562 108.960938 411.730469 116.679688 L 409.148438 122.300781 C 396.242188 138.984375 395.964844 158.617188 395.78125 178.34375 C 395.410156 179.261719 395.226562 180.210938 395.226562 181.199219 C 395.226562 182.1875 395.410156 183.140625 395.78125 184.058594 C 396.261719 193.089844 397.429688 202.03125 399.28125 210.882812 C 400.953125 218.449219 401.925781 226.105469 402.207031 233.851562 C 402.484375 241.59375 402.0625 249.300781 400.941406 256.96875 C 400.941406 257.90625 400.835938 258.832031 400.625 259.75 C 400.417969 260.664062 400.109375 261.542969 399.703125 262.390625 C 399.296875 263.234375 398.800781 264.023438 398.214844 264.757812 C 397.632812 265.492188 396.972656 266.152344 396.242188 266.738281 Z M 315.476562 457.265625 C 316.765625 457.265625 319.164062 457.265625 318.242188 455.238281 C 317.320312 453.210938 315.84375 456.066406 314.460938 456.066406 C 310.101562 457.417969 305.648438 458.21875 301.09375 458.464844 C 299.710938 458.464844 297.773438 459.019531 297.3125 457.082031 C 296.851562 455.144531 298.695312 454.316406 300.539062 454.039062 C 303.066406 453.394531 305.46875 452.4375 307.75 451.171875 C 310.03125 449.90625 312.113281 448.375 314 446.574219 C 315.199219 445.746094 316.671875 445.375 315.199219 443.347656 C 312.328125 439.984375 309.109375 436.992188 305.542969 434.378906 C 301.976562 431.761719 298.15625 429.589844 294.085938 427.863281 C 290.582031 425.925781 287.539062 432.5625 283.390625 434.039062 C 281.363281 434.867188 279.519531 436.34375 277.488281 437.355469 C 271.019531 440.339844 264.394531 442.933594 257.621094 445.140625 C 250.84375 447.347656 243.964844 449.15625 236.976562 450.558594 C 229.992188 451.964844 222.949219 452.957031 215.847656 453.539062 C 208.746094 454.121094 201.632812 454.289062 194.511719 454.039062 C 177.292969 453.5625 160.195312 451.898438 143.207031 449.042969 C 126.222656 446.1875 109.519531 442.167969 93.09375 436.988281 C 84.980469 434.589844 77.234375 431.273438 69.121094 428.785156 C 66.632812 428.046875 64.421875 428.230469 65.433594 431.089844 C 66.359375 436.480469 67.863281 441.703125 69.953125 446.757812 C 75.519531 455.144531 79.976562 464.085938 83.320312 473.582031 C 84.949219 477.882812 87.253906 481.785156 90.234375 485.289062 C 92.453125 487.925781 94.859375 490.375 97.460938 492.636719 C 100.058594 494.898438 102.816406 496.941406 105.734375 498.773438 C 108.65625 500.605469 111.699219 502.195312 114.863281 503.550781 C 118.03125 504.90625 121.285156 506.007812 124.625 506.855469 C 135 510.195312 145.535156 512.929688 156.222656 515.0625 C 166.910156 517.191406 177.6875 518.710938 188.550781 519.609375 C 199.414062 520.507812 210.289062 520.785156 221.183594 520.441406 C 232.078125 520.097656 242.917969 519.132812 253.703125 517.550781 C 257.574219 517.550781 258.496094 515.335938 257.667969 512.203125 C 256.191406 506.304688 258.773438 505.105469 264.214844 505.382812 C 269.652344 505.660156 273.433594 506.949219 275.828125 500.3125 C 276.566406 497.824219 280.164062 498.375 282.191406 500.3125 C 284.21875 502.25 283.851562 503.90625 286.617188 503.445312 C 287.632812 503.445312 289.289062 503.445312 289.660156 504.921875 C 290.027344 506.394531 289.015625 507.59375 287.539062 508.425781 C 285.710938 509.640625 284.023438 511.023438 282.46875 512.570312 C 286.070312 513.0625 289.605469 512.753906 293.070312 511.648438 C 313.90625 506.949219 329.398438 491.648438 348.390625 483.996094 C 350.417969 483.167969 350.511719 481.878906 348.851562 480.035156 C 343.410156 473.765625 338.15625 467.3125 332.898438 460.953125 C 331.332031 459.019531 330.6875 458.925781 327.921875 460.402344 C 320.777344 464.089844 313.25 466.640625 305.332031 468.050781 C 303.949219 468.050781 302.199219 468.789062 301.738281 466.667969 C 301.277344 464.546875 302.75 464.457031 303.765625 463.902344 Z M 377.894531 485.5625 C 396.332031 486.671875 410.164062 477.085938 424.914062 469.25 C 425.632812 468.828125 426.289062 468.328125 426.886719 467.746094 C 427.484375 467.164062 428.003906 466.523438 428.445312 465.816406 C 428.886719 465.109375 429.238281 464.359375 429.5 463.570312 C 429.757812 462.777344 429.921875 461.96875 429.984375 461.136719 C 430.816406 446.113281 437.546875 432.65625 440.496094 418.277344 C 442.625 408.074219 445.902344 398.253906 450.324219 388.816406 C 454.75 379.382812 460.199219 370.582031 466.679688 362.417969 C 466.945312 362.15625 467.191406 361.882812 467.421875 361.59375 C 467.65625 361.300781 467.867188 361 468.0625 360.683594 C 468.257812 360.367188 468.433594 360.042969 468.589844 359.703125 C 468.742188 359.367188 468.878906 359.023438 468.992188 358.667969 C 469.105469 358.316406 469.199219 357.957031 469.269531 357.59375 C 469.339844 357.226562 469.386719 356.859375 469.414062 356.492188 C 469.4375 356.121094 469.441406 355.75 469.421875 355.378906 C 469.402344 355.007812 469.363281 354.640625 469.300781 354.277344 C 469.238281 353.910156 469.152344 353.550781 469.046875 353.195312 C 468.9375 352.839844 468.8125 352.492188 468.660156 352.152344 C 468.511719 351.8125 468.34375 351.480469 468.15625 351.160156 C 467.96875 350.84375 467.761719 350.535156 467.535156 350.242188 C 467.308594 349.945312 467.066406 349.667969 466.808594 349.402344 C 466.546875 349.136719 466.273438 348.886719 465.984375 348.65625 C 465.695312 348.421875 465.390625 348.207031 465.074219 348.011719 C 464.761719 347.816406 464.433594 347.640625 464.097656 347.484375 C 460.828125 345.382812 457.394531 343.59375 453.796875 342.125 C 450.199219 340.652344 446.496094 339.523438 442.691406 338.738281 C 438.882812 337.949219 435.035156 337.515625 431.148438 337.4375 C 427.261719 337.359375 423.402344 337.636719 419.566406 338.269531 C 395.503906 342.140625 371.347656 345.367188 347.007812 346.839844 C 336.710938 347.359375 326.507812 348.621094 316.398438 350.621094 C 292.609375 355.503906 269.746094 364.078125 246.234375 369.515625 C 225.675781 374.214844 209.355469 386.84375 190.914062 395.140625 C 186.457031 397.464844 182.214844 400.140625 178.191406 403.160156 C 176.441406 404.265625 174.320312 405.464844 174.875 407.675781 C 175.425781 409.886719 178.007812 409.152344 179.484375 409.242188 C 186.734375 409.9375 193.988281 409.9375 201.242188 409.242188 C 206.128906 408.414062 208.800781 413.574219 213.964844 411.546875 C 222.082031 408.695312 230.441406 407.128906 239.042969 406.847656 C 242.636719 406.601562 246.234375 406.535156 249.835938 406.652344 C 253.4375 406.773438 257.019531 407.070312 260.59375 407.550781 C 264.164062 408.027344 267.699219 408.6875 271.203125 409.523438 C 274.707031 410.359375 278.160156 411.371094 281.5625 412.554688 C 284.964844 413.742188 288.296875 415.09375 291.5625 416.617188 C 294.828125 418.136719 298.007812 419.820312 301.105469 421.664062 C 304.199219 423.503906 307.195312 425.5 310.089844 427.644531 C 312.984375 429.789062 315.761719 432.074219 318.425781 434.5 C 332.136719 446.695312 344.429688 460.1875 355.304688 474.964844 C 355.890625 475.894531 356.535156 476.78125 357.25 477.621094 C 357.960938 478.460938 358.726562 479.246094 359.550781 479.976562 C 360.375 480.703125 361.246094 481.371094 362.167969 481.976562 C 363.085938 482.582031 364.042969 483.117188 365.039062 483.585938 C 366.035156 484.050781 367.0625 484.445312 368.113281 484.765625 C 369.164062 485.085938 370.234375 485.332031 371.324219 485.5 C 372.410156 485.667969 373.503906 485.757812 374.605469 485.765625 C 375.707031 485.777344 376.800781 485.710938 377.894531 485.5625 Z M 216.914062 369.976562 C 227.484375 365.472656 238.394531 362.0625 249.644531 359.746094 C 261.355469 356.148438 273.894531 353.753906 276.199219 338.359375 C 276.855469 336.144531 277.992188 334.207031 279.609375 332.554688 C 282.492188 328.691406 285.101562 324.65625 287.445312 320.445312 C 289.785156 316.238281 291.835938 311.890625 293.597656 307.40625 C 295.355469 302.921875 296.808594 298.339844 297.957031 293.660156 C 299.101562 288.984375 299.933594 284.25 300.445312 279.460938 C 303.027344 261.023438 308.46875 242.589844 311.417969 224.15625 C 312.984375 214.199219 316.765625 203.597656 319.164062 193.277344 C 322.941406 177.144531 329.398438 161.9375 333.914062 145.988281 C 338.558594 133.40625 340.925781 120.410156 341.015625 107 C 341.019531 106.320312 340.988281 105.640625 340.929688 104.960938 C 340.867188 104.28125 340.773438 103.609375 340.652344 102.9375 C 340.527344 102.269531 340.371094 101.605469 340.179688 100.953125 C 339.992188 100.296875 339.777344 99.652344 339.527344 99.019531 C 339.277344 98.386719 339 97.765625 338.691406 97.160156 C 338.382812 96.550781 338.046875 95.960938 337.683594 95.382812 C 337.316406 94.808594 336.925781 94.253906 336.507812 93.714844 C 336.089844 93.175781 335.648438 92.660156 335.183594 92.164062 C 334.714844 91.667969 334.226562 91.195312 333.714844 90.742188 C 333.203125 90.292969 332.671875 89.871094 332.121094 89.472656 C 331.570312 89.070312 331 88.699219 330.410156 88.355469 C 329.824219 88.011719 329.222656 87.695312 328.605469 87.40625 C 327.988281 87.117188 327.359375 86.859375 326.714844 86.632812 C 326.074219 86.40625 325.421875 86.207031 324.761719 86.042969 C 324.101562 85.878906 323.433594 85.742188 322.761719 85.640625 C 322.085938 85.539062 321.410156 85.46875 320.730469 85.429688 C 314.09375 85.429688 307.824219 87.367188 301.367188 87.273438 C 300.019531 87.257812 298.671875 87.324219 297.332031 87.472656 C 295.992188 87.621094 294.664062 87.847656 293.351562 88.15625 C 292.035156 88.464844 290.746094 88.855469 289.480469 89.320312 C 288.214844 89.785156 286.980469 90.328125 285.777344 90.945312 C 284.578125 91.558594 283.417969 92.246094 282.304688 93.003906 C 281.1875 93.761719 280.117188 94.582031 279.101562 95.46875 C 278.085938 96.355469 277.125 97.300781 276.222656 98.304688 C 275.320312 99.308594 274.484375 100.363281 273.710938 101.46875 C 268.546875 108.199219 264.488281 115.757812 259.511719 122.855469 C 259.039062 123.441406 258.652344 124.082031 258.355469 124.777344 C 258.058594 125.46875 257.863281 126.191406 257.765625 126.9375 C 257.667969 127.6875 257.671875 128.433594 257.78125 129.179688 C 257.890625 129.925781 258.097656 130.644531 258.40625 131.332031 C 262.292969 140.585938 265.675781 150.015625 268.546875 159.632812 C 275.828125 178.988281 287.445312 196.5 289.9375 217.980469 C 289.9375 221.480469 291.410156 224.800781 287.445312 226.183594 C 283.480469 227.566406 282.746094 223.601562 281.085938 221.203125 C 273.984375 210.789062 271.867188 197.699219 264.859375 187.5625 C 261.914062 183.40625 259.40625 179.003906 257.34375 174.347656 C 255.277344 169.691406 253.695312 164.878906 252.597656 159.90625 C 251.632812 156.535156 250.433594 153.246094 249 150.046875 C 248.355469 148.476562 247.800781 146.359375 245.867188 146.175781 C 243.929688 145.988281 243.375 148.292969 242.546875 149.769531 C 235.722656 161.476562 232.035156 174.65625 225.859375 186.640625 C 225.488281 187.296875 225.304688 188.003906 225.304688 188.757812 C 225.304688 189.515625 225.488281 190.222656 225.859375 190.878906 C 235.429688 211.90625 247.015625 231.753906 260.617188 250.425781 C 262.28125 252.628906 263.761719 254.953125 265.058594 257.394531 C 266.351562 259.832031 267.445312 262.363281 268.339844 264.976562 C 269.230469 267.589844 269.910156 270.261719 270.378906 272.984375 C 270.847656 275.707031 271.097656 278.449219 271.128906 281.210938 C 271.128906 283.515625 271.128906 286.003906 268.453125 286.648438 C 265.78125 287.292969 264.488281 285.726562 263.015625 283.699219 C 253.839844 273.65625 246.25 262.535156 240.242188 250.332031 C 238.269531 245.917969 235.503906 242.078125 231.945312 238.808594 C 227.203125 233.28125 223.484375 227.136719 220.789062 220.375 C 219.40625 217.703125 220.789062 213.921875 217.101562 211.804688 C 215.070312 217.425781 213.226562 222.863281 211.292969 228.300781 C 210.421875 230.5 209.679688 232.746094 209.070312 235.03125 C 208.460938 237.316406 207.984375 239.628906 207.644531 241.96875 C 207.304688 244.308594 207.097656 246.660156 207.03125 249.027344 C 206.964844 251.390625 207.035156 253.75 207.242188 256.105469 C 207.449219 258.464844 207.792969 260.800781 208.273438 263.117188 C 208.75 265.433594 209.363281 267.714844 210.109375 269.957031 C 210.851562 272.203125 211.722656 274.398438 212.722656 276.542969 C 213.722656 278.6875 214.84375 280.765625 216.085938 282.777344 C 225.386719 298.859375 232.730469 315.789062 238.121094 333.566406 C 239.320312 337.714844 240.792969 342.140625 235.722656 343.890625 C 230.652344 345.640625 228.625 341.21875 226.503906 337.714844 C 223.277344 332.09375 220.140625 326.285156 216.640625 319.832031 Z M 129.050781 379.195312 C 129.589844 380.671875 130.21875 382.113281 130.933594 383.515625 C 131.648438 384.917969 132.449219 386.269531 133.332031 387.574219 C 134.214844 388.878906 135.175781 390.121094 136.210938 391.308594 C 137.246094 392.492188 138.351562 393.609375 139.523438 394.660156 C 140.699219 395.710938 141.933594 396.683594 143.226562 397.578125 C 144.519531 398.476562 145.863281 399.292969 147.257812 400.023438 C 148.652344 400.757812 150.085938 401.398438 151.558594 401.953125 C 153.03125 402.511719 154.535156 402.972656 156.066406 403.34375 C 161.136719 404.726562 166.945312 405.554688 170.261719 398.828125 C 171.277344 396.613281 174.414062 395.324219 176.71875 393.757812 C 184.886719 388.378906 193.398438 383.617188 202.257812 379.46875 C 203.730469 378.734375 206.589844 377.996094 206.128906 376.519531 C 203.824219 369.148438 210.832031 363.707031 209.261719 356.335938 C 207.5625 346.59375 207.074219 336.792969 207.789062 326.929688 C 207.996094 320.269531 207.691406 313.632812 206.878906 307.019531 C 206.066406 300.410156 204.75 293.894531 202.9375 287.484375 C 201.121094 281.074219 198.828125 274.839844 196.054688 268.78125 C 193.285156 262.722656 190.0625 256.910156 186.398438 251.347656 C 183.28125 246.417969 181.28125 241.074219 180.40625 235.308594 C 178.285156 221.941406 176.808594 208.390625 174.136719 195.210938 C 173.925781 193.273438 173.585938 191.359375 173.121094 189.46875 C 172.65625 187.574219 172.066406 185.722656 171.355469 183.910156 C 170.644531 182.09375 169.816406 180.335938 168.871094 178.632812 C 167.925781 176.925781 166.875 175.292969 165.710938 173.726562 C 164.550781 172.164062 163.289062 170.683594 161.933594 169.285156 C 160.574219 167.886719 159.128906 166.585938 157.597656 165.378906 C 156.066406 164.175781 154.464844 163.074219 152.789062 162.082031 C 151.109375 161.089844 149.375 160.210938 147.582031 159.449219 C 146.71875 158.992188 145.800781 158.710938 144.832031 158.597656 C 143.859375 158.488281 142.902344 158.554688 141.957031 158.800781 C 131.722656 161.476562 124.71875 169.769531 115.222656 173.734375 C 112.917969 174.75 113.746094 177.054688 114.300781 179.082031 C 120.085938 202.203125 128.847656 224.140625 140.574219 244.894531 C 147.03125 255.125 153.023438 265.542969 159.015625 275.863281 C 160.492188 278.167969 161.226562 280.382812 159.015625 282.59375 C 156.800781 284.804688 154.867188 283.699219 153.207031 281.949219 C 141.566406 270.71875 131.519531 258.214844 123.058594 244.433594 C 120.570312 240.191406 119.648438 235.214844 116.878906 230.882812 C 108.582031 217.886719 99.457031 205.167969 101.113281 188.296875 C 99.898438 189.992188 99.097656 191.867188 98.71875 193.921875 C 94.621094 219.617188 93.300781 245.457031 94.753906 271.441406 C 95.398438 277.523438 95.675781 283.976562 102.683594 287.847656 C 117.988281 296.328125 130.339844 309.507812 146.015625 317.4375 C 148.597656 318.632812 151.269531 320.570312 149.519531 323.886719 C 147.765625 327.207031 144.816406 326.746094 141.683594 325.363281 C 138.734375 323.945312 135.664062 322.898438 132.460938 322.230469 C 129.460938 321.578125 126.535156 320.691406 123.675781 319.566406 C 120.820312 318.441406 118.070312 317.097656 115.429688 315.53125 C 112.792969 313.964844 110.292969 312.195312 107.9375 310.226562 C 105.582031 308.257812 103.402344 306.113281 101.390625 303.792969 C 100.101562 302.503906 99.363281 300.015625 97.148438 300.9375 C 94.382812 320.847656 101.761719 337.808594 109.964844 355.136719 C 110.539062 356.246094 111.304688 357.203125 112.261719 358.003906 C 113.222656 358.800781 114.300781 359.382812 115.496094 359.746094 C 125.882812 364.125 136.578125 367.535156 147.582031 369.976562 C 150.71875 370.714844 153.851562 371.449219 153.390625 375.414062 C 152.929688 379.378906 149.886719 380.207031 146.753906 380.667969 C 140.753906 381.359375 134.851562 380.867188 129.050781 379.195312 Z M 282.007812 349.605469 L 287.171875 348.5 C 299.617188 345.828125 311.695312 341.679688 324.050781 340.203125 C 353 336.699219 382.226562 336.054688 410.992188 330.25 C 412.148438 330.160156 413.285156 329.957031 414.402344 329.632812 C 415.515625 329.308594 416.585938 328.871094 417.609375 328.324219 C 418.632812 327.777344 419.589844 327.128906 420.480469 326.382812 C 421.367188 325.632812 422.171875 324.804688 422.886719 323.886719 C 424.511719 321.957031 425.78125 319.816406 426.695312 317.464844 C 427.613281 315.113281 428.125 312.675781 428.234375 310.15625 C 428.332031 309.253906 428.386719 308.347656 428.398438 307.441406 C 428.40625 306.535156 428.371094 305.632812 428.292969 304.726562 C 428.214844 303.824219 428.089844 302.925781 427.921875 302.035156 C 427.757812 301.144531 427.546875 300.265625 427.292969 299.394531 C 427.039062 298.523438 426.742188 297.667969 426.402344 296.828125 C 426.066406 295.984375 425.6875 295.164062 425.269531 294.359375 C 424.847656 293.554688 424.390625 292.773438 423.894531 292.011719 C 423.398438 291.253906 422.867188 290.523438 422.300781 289.816406 C 421.730469 289.109375 421.128906 288.429688 420.496094 287.785156 C 419.859375 287.136719 419.195312 286.519531 418.5 285.9375 C 417.804688 285.355469 417.082031 284.808594 416.332031 284.296875 C 415.585938 283.789062 414.8125 283.3125 414.015625 282.878906 C 413.222656 282.445312 412.40625 282.046875 411.570312 281.695312 C 410.738281 281.339844 409.886719 281.023438 409.023438 280.753906 C 408.15625 280.480469 407.28125 280.253906 406.390625 280.066406 C 405.503906 279.882812 404.609375 279.742188 403.707031 279.644531 L 401.496094 279.644531 C 378.722656 274.574219 375.957031 275.589844 363.601562 295.128906 C 359.175781 302.136719 353.367188 308.125 349.3125 315.410156 C 347.652344 318.449219 344.515625 322.136719 340.09375 320.292969 C 335.667969 318.449219 337.601562 313.65625 337.972656 310.15625 C 338.664062 307.472656 339.832031 305.011719 341.476562 302.78125 C 345.898438 294.945312 350.695312 287.203125 355.027344 279.277344 C 353.109375 279.140625 351.191406 279.144531 349.273438 279.292969 C 347.355469 279.4375 345.460938 279.726562 343.582031 280.152344 C 341.707031 280.582031 339.875 281.144531 338.082031 281.84375 C 336.292969 282.542969 334.5625 283.371094 332.890625 284.324219 C 331.222656 285.28125 329.632812 286.351562 328.121094 287.542969 C 326.609375 288.730469 325.195312 290.027344 323.875 291.425781 C 322.558594 292.824219 321.347656 294.316406 320.25 295.894531 C 319.148438 297.472656 318.171875 299.121094 317.320312 300.84375 C 314.996094 307.242188 313.058594 313.757812 311.511719 320.386719 C 310.402344 324.347656 310.679688 331.078125 304.871094 330.800781 C 299.0625 330.523438 301.367188 323.613281 299.800781 319.28125 C 292.65625 328.675781 286.726562 338.785156 282.007812 349.605469 Z M 27.816406 390.714844 C 41.859375 389.933594 55.871094 390.269531 69.859375 391.730469 C 79.996094 392.574219 89.738281 395 99.085938 399.011719 C 109.964844 403.4375 121.765625 405.003906 132.371094 410.074219 C 134.789062 410.78125 137.246094 410.964844 139.746094 410.625 C 140.226562 410.546875 140.667969 410.371094 141.070312 410.097656 C 141.472656 409.820312 141.800781 409.476562 142.050781 409.058594 C 142.789062 408.042969 142.050781 407.398438 141.035156 406.753906 C 127.574219 399.011719 122.042969 384.722656 113.378906 372.925781 C 112.164062 371.03125 110.699219 369.355469 108.988281 367.894531 C 107.277344 366.433594 105.390625 365.253906 103.328125 364.355469 C 100.378906 363.246094 95.765625 362.324219 100.378906 357.257812 C 100.523438 356.929688 100.628906 356.589844 100.699219 356.238281 C 100.765625 355.886719 100.792969 355.53125 100.78125 355.175781 C 100.765625 354.816406 100.714844 354.464844 100.621094 354.117188 C 100.527344 353.773438 100.394531 353.441406 100.226562 353.128906 C 100.058594 352.8125 99.855469 352.519531 99.621094 352.25 C 99.382812 351.980469 99.121094 351.742188 98.828125 351.53125 C 98.539062 351.320312 98.230469 351.148438 97.898438 351.007812 C 97.566406 350.871094 97.226562 350.773438 96.875 350.710938 C 94.714844 350.136719 92.515625 349.847656 90.28125 349.847656 C 88.046875 349.847656 85.847656 350.136719 83.6875 350.710938 C 74.976562 353.777344 66.585938 357.554688 58.519531 362.050781 C 55.304688 363.585938 52.226562 365.355469 49.28125 367.363281 C 46.335938 369.367188 43.5625 371.585938 40.960938 374.019531 C 38.355469 376.449219 35.953125 379.066406 33.75 381.863281 C 31.546875 384.664062 29.570312 387.613281 27.816406 390.714844 Z M 22.839844 398.183594 C 23.476562 405.535156 23.324219 412.871094 22.375 420.191406 C 21.425781 427.511719 19.707031 434.648438 17.214844 441.597656 L 56.675781 441.597656 C 53.507812 435.207031 50.988281 428.570312 49.113281 421.6875 C 47.226562 415.386719 44.921875 409.242188 42.199219 403.25 C 39.066406 394.035156 30.492188 403.25 25.328125 399.472656 C 24.539062 398.96875 23.707031 398.535156 22.839844 398.183594 Z M 188.796875 422.699219 C 185.292969 421.316406 181.605469 423.253906 179.023438 420.949219 C 176.441406 418.644531 175.242188 419.660156 173.398438 420.949219 L 148.320312 440.953125 L 165.375 444.453125 C 165.9375 444.65625 166.511719 444.800781 167.101562 444.890625 C 167.691406 444.980469 168.28125 445.011719 168.875 444.988281 C 169.472656 444.960938 170.058594 444.878906 170.636719 444.742188 C 171.21875 444.601562 171.777344 444.410156 172.320312 444.164062 C 172.859375 443.914062 173.375 443.617188 173.859375 443.269531 C 174.34375 442.925781 174.789062 442.535156 175.195312 442.101562 C 175.605469 441.667969 175.96875 441.199219 176.285156 440.695312 C 176.605469 440.191406 176.871094 439.664062 177.085938 439.109375 C 180.382812 433.179688 184.316406 427.710938 188.886719 422.699219 Z M 124.257812 437.082031 C 133.476562 438.554688 141.867188 443.53125 147.398438 432.472656 C 148.503906 430.167969 151.546875 428.875 153.667969 427.125 L 168.695312 414.40625 C 162.980469 415.234375 158.460938 412.007812 154.222656 415.328125 C 143.773438 421.90625 133.816406 429.160156 124.347656 437.078125 Z M 264.859375 416.0625 C 259.140625 414.679688 253.519531 412.5625 249.277344 416.0625 C 241.839844 423.523438 235.109375 431.574219 229.085938 440.214844 C 253.519531 433.207031 249.183594 439.109375 264.859375 416.0625 Z M 108.675781 412.007812 C 97.796875 406.570312 84.796875 409.613281 72.808594 420.210938 C 78.527344 423.691406 84.671875 426.058594 91.25 427.308594 C 92.449219 427.308594 94.199219 428.601562 94.570312 427.308594 C 96.875 419.289062 104.710938 417.261719 108.675781 412.007812 Z M 320.730469 228.394531 C 314.367188 252.175781 310.589844 274.480469 305.609375 297.710938 C 309.828125 290.984375 314.992188 285.085938 321.097656 280.011719 C 322.019531 279.367188 322.480469 279.089844 321.097656 277.984375 C 314.738281 271.625 317.503906 263.789062 318.425781 256.691406 C 320.335938 247.351562 321.105469 237.921875 320.730469 228.394531 Z M 199.121094 445.558594 C 221.339844 447.21875 226.78125 427.125 237.476562 414.773438 C 220.050781 419.105469 213.6875 437.355469 199.121094 445.558594 Z M 215.070312 419.199219 C 198.566406 422.425781 191.285156 428.414062 182.25 446.019531 C 186.488281 444.824219 191.929688 447.773438 193.773438 444.453125 C 200.195312 435.464844 207.296875 427.046875 215.070312 419.199219 Z M 101.574219 429.984375 C 116.328125 439.199219 123.796875 427.585938 132.554688 419.289062 C 115.3125 416.710938 106.460938 419.84375 101.574219 429.984375 Z M 83.136719 405.09375 C 73.363281 399.011719 66.539062 406.015625 59.164062 409.886719 C 57.78125 410.71875 53.078125 411.085938 56.03125 414.867188 C 58.980469 418.644531 65.25 420.304688 66.265625 418.183594 C 70.042969 411.363281 77.050781 409.242188 82.953125 405.09375 Z M 390.339844 209.3125 C 387.632812 193.222656 386.742188 177.03125 387.664062 160.738281 C 387.941406 172.167969 382.226562 190.878906 390.339844 209.3125 Z M 452.480469 126.355469 C 451.097656 132.25 450.554688 138.222656 450.851562 144.269531 C 451.148438 150.316406 452.277344 156.207031 454.234375 161.9375 C 454.480469 150.003906 453.898438 138.113281 452.480469 126.265625 Z M 58.886719 399.933594 C 55.753906 399.933594 52.25 397.261719 49.667969 400.671875 C 49.464844 401.359375 49.421875 402.0625 49.535156 402.769531 C 49.648438 403.480469 49.90625 404.132812 50.3125 404.726562 C 54.554688 405.554688 55.9375 401.316406 58.886719 399.933594 Z M 331.242188 229.960938 C 330.503906 224.0625 334.929688 218.441406 332.625 211.527344 C 331.378906 214.4375 330.636719 217.472656 330.398438 220.628906 C 330.164062 223.785156 330.441406 226.898438 331.242188 229.960938 Z M 331.242188 229.960938 "/></g><path style=" stroke:none;fill-rule:nonzero;fill:#3e3d3f;fill-opacity:1;" d="M 331.242188 229.960938 C 330.441406 226.898438 330.164062 223.785156 330.398438 220.628906 C 330.636719 217.472656 331.378906 214.4375 332.625 211.527344 C 334.929688 218.441406 330.503906 224.0625 331.242188 229.960938 Z M 331.242188 229.960938 "/><path style=" stroke:none;fill-rule:nonzero;fill:#3e3d3f;fill-opacity:1;" d="M 483.367188 260.101562 C 480.601562 254.757812 482.167969 252.269531 488.253906 252.542969 Z M 483.367188 260.101562 "/><path style=" stroke:none;fill-rule:nonzero;fill:#3e3d3f;fill-opacity:1;" d="M 506.785156 220.46875 C 506.785156 216.597656 508.078125 213.09375 513.238281 213.738281 C 510.84375 215.675781 512.59375 221.757812 506.785156 220.46875 Z M 506.785156 220.46875 "/><path style=" stroke:none;fill-rule:nonzero;fill:#3e3d3f;fill-opacity:1;" d="M 411.730469 116.585938 C 411.730469 118.519531 415.324219 119.074219 413.941406 121.285156 C 412.558594 123.5 410.808594 122.023438 409.148438 122.207031 Z M 411.730469 116.585938 "/><path style=" stroke:none;fill-rule:nonzero;fill:#3e3d3f;fill-opacity:1;" d="M 492.585938 246.460938 C 491.203125 245.445312 489.542969 243.972656 490.835938 242.496094 C 492.125 241.023438 493.417969 242.496094 494.15625 243.789062 C 494.890625 245.078125 493.96875 246.09375 492.585938 246.460938 Z M 492.585938 246.460938 "/><path style=" stroke:none;fill-rule:nonzero;fill:#3e3d3f;fill-opacity:1;" d="M 395.78125 178.25 C 400.480469 179.726562 396.609375 182.03125 395.78125 183.964844 C 395.410156 183.050781 395.226562 182.097656 395.226562 181.109375 C 395.226562 180.121094 395.410156 179.167969 395.78125 178.25 Z M 395.78125 178.25 "/><path style=" stroke:none;fill-rule:nonzero;fill:#3e3d3f;fill-opacity:1;" d="M 432.933594 96.308594 L 435.332031 97.320312 C 435.332031 97.875 434.59375 98.613281 434.042969 98.796875 C 433.488281 98.980469 432.011719 98.242188 431.550781 97.230469 Z M 432.933594 96.308594 "/><path style=" stroke:none;fill-rule:nonzero;fill:#3e3d3f;fill-opacity:1;" d="M 473.132812 275.3125 C 472.210938 274.757812 471.011719 274.023438 472.304688 272.914062 C 473.59375 271.808594 473.871094 272.914062 474.332031 273.929688 Z M 473.132812 275.3125 "/><path style=" stroke:none;fill-rule:nonzero;fill:#3e3d3f;fill-opacity:1;" d="M 437.085938 312.828125 L 439.480469 314.761719 C 439.480469 315.871094 437.914062 316.515625 437.269531 316.054688 C 436.621094 315.59375 436.347656 313.933594 437.085938 312.828125 Z M 437.085938 312.828125 "/><path style=" stroke:none;fill-rule:nonzero;fill:#3e3d3f;fill-opacity:1;" d="M 314.460938 456.066406 C 315.84375 456.066406 317.042969 452.84375 318.242188 455.238281 C 319.441406 457.636719 316.765625 456.898438 315.476562 457.265625 Z M 314.460938 456.066406 "/><path style=" stroke:none;fill-rule:nonzero;fill:#3e3d3f;fill-opacity:1;" d="M 396.703125 266.832031 L 396.703125 268.953125 C 395.78125 268.953125 394.671875 268.953125 395.320312 267.570312 Z M 396.703125 266.832031 "/><path style=" stroke:none;fill-rule:nonzero;fill:#3e3d3f;fill-opacity:1;" d="M 265.871094 433.667969 C 265.136719 434.128906 264.304688 434.589844 263.660156 433.667969 C 263.015625 432.746094 264.398438 432.933594 264.859375 432.472656 Z M 265.871094 433.667969 "/><path style=" stroke:none;fill-rule:nonzero;fill:#3e3d3f;fill-opacity:1;" d="M 213.6875 513.03125 C 208.433594 513.03125 204.46875 511.742188 204.46875 506.027344 C 204.46875 502.25 197.371094 500.679688 201.609375 495.703125 C 205.851562 490.726562 207.789062 497.179688 211.382812 496.625 C 216.640625 495.886719 221.617188 494.503906 226.78125 493.492188 C 231.945312 492.476562 236 492.199219 232.957031 499.113281 C 232.128906 501.234375 234.0625 501.511719 234.433594 502.710938 C 235.816406 506.855469 234.984375 510.914062 230.191406 511.1875 C 225.398438 511.464844 219.3125 512.386719 213.6875 513.03125 Z M 213.6875 513.03125 "/><path style=" stroke:none;fill-rule:nonzero;fill:#3e3d3f;fill-opacity:1;" d="M 160.492188 475.054688 C 159.652344 474.976562 158.828125 474.839844 158.011719 474.640625 C 157.195312 474.441406 156.398438 474.1875 155.617188 473.875 C 154.839844 473.5625 154.085938 473.195312 153.359375 472.773438 C 152.632812 472.355469 151.9375 471.882812 151.28125 471.363281 C 150.621094 470.839844 150 470.277344 149.425781 469.667969 C 148.847656 469.058594 148.316406 468.410156 147.832031 467.722656 C 147.347656 467.039062 146.914062 466.320312 146.53125 465.574219 C 146.152344 464.824219 145.824219 464.054688 145.554688 463.257812 C 139.285156 448.972656 142.234375 450.722656 152.46875 457.910156 C 153.652344 458.386719 154.878906 458.714844 156.144531 458.890625 C 157.410156 459.0625 158.679688 459.082031 159.949219 458.945312 C 161.21875 458.808594 162.453125 458.523438 163.652344 458.082031 C 164.851562 457.640625 165.980469 457.0625 167.035156 456.34375 C 169.617188 454.871094 172.753906 456.34375 172.566406 457.910156 C 171.921875 461.96875 179.207031 464.917969 174.597656 468.605469 C 172.558594 470.261719 170.34375 471.632812 167.953125 472.726562 C 165.566406 473.820312 163.078125 474.597656 160.492188 475.054688 Z M 160.492188 475.054688 "/><path style=" stroke:none;fill-rule:nonzero;fill:#3e3d3f;fill-opacity:1;" d="M 109.964844 476.992188 C 113.769531 475.664062 117.640625 474.585938 121.582031 473.765625 C 125.730469 473.121094 130.800781 473.027344 127.574219 479.847656 C 126.378906 482.339844 127.574219 482.152344 129.417969 483.167969 C 133.753906 485.75 133.109375 488.699219 128.496094 491.1875 C 120.753906 495.519531 113.46875 491.832031 106.1875 489.988281 C 103.050781 489.160156 104.710938 486.671875 106.1875 485.011719 C 103.804688 483.746094 101.558594 482.273438 99.457031 480.585938 C 97.980469 479.019531 95.492188 476.714844 97.796875 474.226562 C 100.101562 471.738281 101.207031 474.78125 102.589844 475.792969 C 104.933594 476.894531 107.394531 477.292969 109.964844 476.992188 Z M 109.964844 476.992188 "/><path style=" stroke:none;fill-rule:nonzero;fill:#3e3d3f;fill-opacity:1;" d="M 279.703125 452.933594 C 282.191406 451.273438 283.941406 452.289062 285.328125 454.59375 C 286.710938 456.898438 285.328125 459.019531 283.390625 460.308594 C 281.480469 461.859375 279.421875 463.167969 277.207031 464.234375 C 274.992188 465.304688 272.683594 466.101562 270.28125 466.628906 C 267.878906 467.15625 265.449219 467.402344 262.992188 467.363281 C 260.535156 467.320312 258.113281 467 255.730469 466.390625 C 254.347656 466.390625 252.503906 465.746094 252.503906 463.8125 C 252.503906 461.875 253.703125 461.320312 255.363281 460.953125 C 257.023438 460.585938 260.25 459.847656 262.738281 459.203125 C 261.445312 457.175781 258.128906 457.359375 257.484375 454.59375 C 257.484375 453.394531 256.652344 452.195312 257.484375 451.089844 C 258.3125 449.984375 259.234375 450.628906 260.0625 451.089844 C 265.226562 453.949219 268.363281 451.089844 270.480469 446.941406 C 272.601562 442.796875 274.90625 441.597656 278.226562 443.441406 C 281.546875 445.285156 279.703125 449.0625 278.226562 451.921875 C 277.027344 452.566406 274.816406 453.210938 276.015625 454.59375 C 277.210938 455.976562 278.78125 454.226562 279.703125 452.933594 Z M 279.703125 452.933594 "/><path style=" stroke:none;fill-rule:nonzero;fill:#3e3d3f;fill-opacity:1;" d="M 213.78125 470.539062 C 207.695312 468.234375 201.519531 467.128906 203.640625 457.820312 C 209.816406 462.703125 215.253906 463.71875 219.957031 456.34375 C 221.339844 454.226562 224.753906 454.871094 226.964844 456.34375 C 227.222656 456.472656 227.464844 456.628906 227.683594 456.8125 C 227.90625 456.996094 228.101562 457.203125 228.273438 457.4375 C 228.445312 457.667969 228.585938 457.917969 228.699219 458.183594 C 228.808594 458.449219 228.886719 458.722656 228.933594 459.007812 C 228.980469 459.292969 228.988281 459.578125 228.964844 459.867188 C 228.941406 460.152344 228.886719 460.433594 228.792969 460.707031 C 228.703125 460.980469 228.582031 461.242188 228.425781 461.484375 C 228.273438 461.730469 228.09375 461.949219 227.886719 462.152344 C 227.148438 463.351562 225.121094 463.625 227.886719 465.378906 C 232.679688 468.050781 231.296875 471.460938 226.78125 473.582031 C 225.148438 474.597656 223.425781 475.433594 221.613281 476.082031 C 219.800781 476.734375 217.941406 477.183594 216.035156 477.4375 C 214.128906 477.695312 212.214844 477.746094 210.296875 477.589844 C 208.378906 477.4375 206.496094 477.085938 204.652344 476.53125 C 202.902344 475.886719 200.503906 475.332031 200.964844 472.566406 C 201.425781 469.800781 203.730469 470.910156 205.296875 470.910156 Z M 213.78125 470.539062 "/><path style=" stroke:none;fill-rule:nonzero;fill:#3e3d3f;fill-opacity:1;" d="M 155.328125 494.136719 C 153.574219 492.847656 152.007812 491.738281 150.441406 490.449219 C 148.875 489.160156 147.121094 487.316406 148.320312 485.378906 C 149.519531 483.445312 151.546875 485.378906 153.207031 486.023438 C 158.832031 486.761719 164.453125 491.832031 170.171875 485.472656 C 172.382812 482.984375 177.179688 485.472656 176.625 487.132812 C 175.148438 492.199219 192.113281 493.953125 178.835938 500.3125 C 176.878906 501.148438 174.851562 501.765625 172.757812 502.167969 C 170.664062 502.570312 168.554688 502.75 166.421875 502.703125 C 164.292969 502.652344 162.191406 502.382812 160.117188 501.886719 C 158.046875 501.390625 156.050781 500.679688 154.128906 499.757812 C 148.320312 497.546875 152.5625 495.425781 155.328125 494.136719 Z M 155.328125 494.136719 "/><path style=" stroke:none;fill-rule:nonzero;fill:#3e3d3f;fill-opacity:1;" d="M 262.921875 480.035156 C 267.808594 479.203125 272.789062 481.878906 275.367188 475.886719 C 276.015625 474.226562 279.148438 474.503906 280.808594 475.886719 C 281.1875 476.140625 281.511719 476.449219 281.78125 476.820312 C 282.050781 477.1875 282.25 477.589844 282.375 478.03125 C 282.5 478.46875 282.550781 478.914062 282.519531 479.371094 C 282.484375 479.824219 282.378906 480.261719 282.191406 480.679688 C 279.519531 486.761719 278.136719 494.136719 268.914062 494.042969 C 265.941406 494.445312 263.050781 495.183594 260.25 496.257812 C 259.714844 496.460938 259.164062 496.589844 258.59375 496.640625 C 258.023438 496.691406 257.460938 496.664062 256.898438 496.558594 C 256.335938 496.453125 255.800781 496.273438 255.289062 496.015625 C 254.777344 495.761719 254.308594 495.441406 253.886719 495.058594 C 251.949219 492.847656 253.242188 490.910156 254.992188 489.160156 C 256.746094 487.40625 256.285156 487.683594 256.097656 487.316406 C 248.078125 473.671875 261.078125 482.152344 262.921875 480.035156 Z M 262.921875 480.035156 "/><path style=" stroke:none;fill-rule:nonzero;fill:#3e3d3f;fill-opacity:1;" d="M 116.789062 454.316406 C 118.816406 458.558594 116.789062 459.109375 113.191406 460.492188 C 109.398438 461.339844 105.558594 461.710938 101.671875 461.601562 C 97.789062 461.492188 93.976562 460.90625 90.234375 459.847656 C 89.128906 459.847656 87.746094 457.449219 88.851562 457.082031 C 95.765625 454.6875 89.589844 452.566406 88.851562 450.445312 C 88.113281 448.324219 87.746094 447.679688 88.851562 446.296875 C 89.957031 444.914062 91.710938 445.835938 93.277344 446.296875 C 94.390625 447.058594 95.578125 447.675781 96.839844 448.15625 C 98.097656 448.636719 99.398438 448.96875 100.734375 449.144531 C 102.070312 449.320312 103.410156 449.339844 104.753906 449.199219 C 106.09375 449.0625 107.402344 448.769531 108.675781 448.324219 C 113.839844 446.480469 118.355469 446.667969 116.789062 454.316406 Z M 116.789062 454.316406 "/><path style=" stroke:none;fill-rule:nonzero;fill:#3e3d3f;fill-opacity:1;" d="M 336.402344 475.792969 C 336.390625 476.542969 336.273438 477.273438 336.050781 477.988281 C 335.832031 478.703125 335.519531 479.371094 335.113281 480 C 334.703125 480.628906 334.21875 481.1875 333.65625 481.675781 C 333.089844 482.167969 332.472656 482.574219 331.792969 482.890625 C 326.078125 486.023438 320.175781 488.882812 314.367188 492.109375 C 313.171875 492.753906 311.972656 493.121094 311.050781 492.109375 C 310.128906 491.09375 311.050781 489.898438 311.601562 488.789062 C 312.15625 487.683594 314.367188 487.59375 312.0625 486.210938 C 309.757812 484.828125 306.625 483.90625 308.097656 480.863281 C 309.574219 477.820312 312.617188 480.863281 315.015625 479.574219 C 319.347656 477.820312 325.800781 480.769531 327.554688 473.214844 C 327.554688 471.832031 331.609375 471.644531 333.824219 472.660156 C 334.492188 472.929688 335.054688 473.339844 335.511719 473.898438 C 335.972656 474.453125 336.269531 475.085938 336.402344 475.792969 Z M 336.402344 475.792969 "/><path style=" stroke:none;fill-rule:nonzero;fill:#3e3d3f;fill-opacity:1;" d="M 279.703125 452.933594 C 278.78125 453.855469 277.765625 456.160156 276.476562 454.59375 C 275.183594 453.027344 277.488281 452.566406 278.6875 451.921875 Z M 279.703125 452.933594 "/></g></svg>