<svg xmlns="http://www.w3.org/2000/svg" xmlns:xlink="http://www.w3.org/1999/xlink" width="768" zoomAndPan="magnify" viewBox="0 0 576 576" height="768" preserveAspectRatio="xMidYMid meet" version="1.2"><g id="f956bc2029"><path style=" stroke:none;fill-rule:nonzero;fill:#3e3d3f;fill-opacity:1;" d="M 43.941406 318.171875 L 32.707031 302.730469 C 30.960938 300.359375 29.742188 297.738281 29.050781 294.875 C 27.84375 291.074219 25.8125 287.777344 22.960938 284.988281 C 21.6875 283.648438 20.582031 282.183594 19.636719 280.597656 C 18.6875 279.007812 17.929688 277.335938 17.355469 275.582031 C 16.78125 273.824219 16.410156 272.023438 16.234375 270.183594 C 16.0625 268.34375 16.09375 266.507812 16.328125 264.675781 C 16.691406 261.15625 17.351562 257.691406 18.308594 254.28125 C 19.265625 250.875 20.503906 247.574219 22.027344 244.375 C 23.550781 241.179688 25.332031 238.136719 27.375 235.25 C 29.417969 232.359375 31.691406 229.664062 34.195312 227.160156 C 37.089844 223.925781 40.378906 221.15625 44.0625 218.851562 C 47.746094 216.550781 51.675781 214.804688 55.851562 213.617188 C 62.882812 211.824219 69.515625 209.070312 75.75 205.355469 C 88.546875 198.972656 101.765625 193.648438 115.414062 189.375 C 123.390625 185.609375 131.738281 183.035156 140.453125 181.65625 C 143.839844 181.65625 144.378906 178.40625 145.867188 176.375 C 149.488281 170.511719 153.667969 165.082031 158.410156 160.085938 C 163.152344 155.089844 168.359375 150.632812 174.023438 146.714844 C 187 138.976562 200.804688 133.242188 215.445312 129.515625 C 219.695312 128.601562 223.753906 127.15625 227.628906 125.183594 C 237.78125 119.222656 249.421875 117.597656 259.710938 111.640625 C 261.441406 110.828125 263.246094 110.242188 265.125 109.878906 C 272.027344 107.710938 279.472656 109.878906 286.375 103.785156 C 294.460938 99.34375 303.078125 96.546875 312.230469 95.386719 C 331.992188 90.378906 353.109375 89.160156 372.601562 84.011719 C 393.003906 79.734375 413.621094 77.792969 434.460938 78.1875 C 443.800781 77.105469 453.136719 77.121094 462.46875 78.242188 C 471.800781 79.363281 480.875 81.558594 489.691406 84.824219 C 500.789062 90.105469 512.296875 94.980469 522.855469 101.074219 C 527.042969 103.28125 530.851562 106.015625 534.28125 109.285156 C 537.707031 112.550781 540.621094 116.226562 543.023438 120.308594 C 550.199219 130.050781 556.5625 140.296875 562.109375 151.050781 C 564.902344 156.941406 566.941406 163.082031 568.222656 169.476562 C 569.503906 175.867188 569.996094 182.320312 569.691406 188.835938 C 569.261719 191.78125 568.558594 194.65625 567.570312 197.464844 C 566.585938 200.273438 565.335938 202.960938 563.828125 205.527344 C 562.320312 208.09375 560.578125 210.492188 558.605469 212.71875 C 556.628906 214.945312 554.460938 216.960938 552.09375 218.765625 C 551.046875 219.390625 550.042969 220.078125 549.089844 220.835938 C 548.132812 221.589844 547.230469 222.40625 546.382812 223.28125 C 545.535156 224.15625 544.746094 225.085938 544.019531 226.0625 C 543.292969 227.042969 542.636719 228.0625 542.042969 229.128906 C 541.453125 230.195312 540.933594 231.296875 540.484375 232.429688 C 540.039062 233.5625 539.667969 234.722656 539.375 235.90625 C 539.078125 237.089844 538.863281 238.285156 538.726562 239.496094 C 538.589844 240.707031 538.535156 241.921875 538.554688 243.140625 C 538.554688 258.851562 538.554688 274.5625 538.554688 290.136719 C 538.789062 293.574219 538.472656 296.957031 537.609375 300.292969 C 537.230469 301.941406 537.054688 303.613281 537.078125 305.304688 C 537.105469 306.996094 537.328125 308.664062 537.753906 310.300781 C 538.175781 311.9375 538.789062 313.503906 539.585938 314.992188 C 540.386719 316.484375 541.351562 317.859375 542.480469 319.117188 C 544.460938 321.375 546.183594 323.8125 547.644531 326.4375 C 549.105469 329.0625 550.273438 331.808594 551.148438 334.679688 C 552.023438 337.554688 552.585938 340.484375 552.835938 343.476562 C 553.085938 346.472656 553.019531 349.457031 552.632812 352.433594 C 552.21875 354.9375 551.179688 357.148438 549.519531 359.070312 C 548.128906 360.828125 546.597656 362.457031 544.933594 363.960938 C 543.269531 365.464844 541.496094 366.824219 539.605469 368.03125 C 537.71875 369.242188 535.742188 370.289062 533.679688 371.171875 C 531.621094 372.054688 529.5 372.757812 527.320312 373.289062 C 519.273438 376.285156 511.648438 380.125 504.445312 384.800781 C 500.25 386.5625 496.324219 388.863281 491.992188 390.21875 C 486.574219 392.136719 481.523438 394.753906 476.832031 398.074219 C 469.769531 402.582031 462.324219 406.328125 454.496094 409.316406 C 449.78125 410.949219 445.269531 413.027344 440.960938 415.542969 C 431.539062 420.609375 421.75 424.808594 411.585938 428.140625 C 406.441406 430.171875 402.246094 434.640625 395.882812 434.371094 C 395.273438 434.480469 394.695312 434.683594 394.152344 434.976562 C 393.605469 435.273438 393.121094 435.648438 392.695312 436.097656 C 392.269531 436.546875 391.921875 437.054688 391.65625 437.613281 C 391.394531 438.175781 391.222656 438.765625 391.148438 439.378906 C 390.0625 447.234375 382.484375 450.214844 377.609375 454.414062 C 372.738281 458.609375 371.113281 458.746094 370.976562 464.570312 C 370.84375 470.394531 367.050781 475.945312 368 482.3125 C 369.894531 494.09375 366.238281 494.769531 357.171875 497.207031 C 344.144531 500.023438 331.015625 500.65625 317.78125 499.105469 C 299.292969 496.980469 280.746094 496.214844 262.144531 496.800781 C 243.503906 498.523438 224.914062 498.070312 206.375 495.449219 L 203.535156 495.449219 C 184.449219 495.449219 165.363281 493.144531 146.140625 494.363281 C 143.496094 494.527344 140.878906 494.886719 138.289062 495.449219 C 136.914062 495.808594 135.519531 496.046875 134.105469 496.164062 C 132.691406 496.277344 131.277344 496.265625 129.863281 496.132812 C 128.449219 495.996094 127.058594 495.738281 125.691406 495.355469 C 124.324219 494.972656 123 494.476562 121.71875 493.859375 C 120.441406 493.246094 119.226562 492.523438 118.074219 491.691406 C 116.921875 490.859375 115.851562 489.933594 114.863281 488.914062 C 113.875 487.894531 112.980469 486.796875 112.1875 485.621094 C 111.394531 484.441406 110.707031 483.203125 110.132812 481.90625 C 98.910156 465.417969 86.59375 449.800781 73.179688 435.046875 C 65.257812 426.480469 56.683594 418.625 47.460938 411.480469 C 46.351562 410.539062 45.105469 409.847656 43.722656 409.402344 C 42.339844 408.953125 40.921875 408.789062 39.472656 408.910156 C 38.386719 408.867188 37.300781 408.777344 36.222656 408.632812 C 35.144531 408.488281 34.074219 408.289062 33.015625 408.042969 C 31.953125 407.792969 30.910156 407.492188 29.878906 407.140625 C 28.847656 406.792969 27.835938 406.390625 26.84375 405.941406 C 25.851562 405.492188 24.886719 404.996094 23.941406 404.453125 C 22.996094 403.910156 22.082031 403.324219 21.195312 402.691406 C 20.308594 402.058594 19.457031 401.382812 18.636719 400.667969 C 17.8125 399.953125 17.03125 399.199219 16.28125 398.40625 C 15.535156 397.617188 14.828125 396.789062 14.160156 395.929688 C 13.492188 395.066406 12.867188 394.175781 12.289062 393.253906 C 11.707031 392.335938 11.171875 391.386719 10.683594 390.414062 C 10.195312 389.441406 9.753906 388.445312 9.363281 387.429688 C 8.972656 386.414062 8.628906 385.378906 8.339844 384.328125 C 8.046875 383.28125 7.808594 382.21875 7.621094 381.144531 C 7.433594 380.074219 7.296875 378.992188 7.214844 377.90625 C 7.128906 376.820312 7.097656 375.734375 7.121094 374.644531 C 7.015625 372.507812 7.039062 370.375 7.195312 368.242188 C 7.355469 366.109375 7.640625 363.996094 8.058594 361.898438 C 8.476562 359.800781 9.023438 357.738281 9.695312 355.710938 C 10.371094 353.679688 11.164062 351.703125 12.082031 349.769531 C 13 347.839844 14.035156 345.972656 15.183594 344.167969 C 16.332031 342.367188 17.585938 340.640625 18.949219 338.992188 C 20.308594 337.347656 21.769531 335.789062 23.324219 334.320312 C 24.875 332.855469 26.515625 331.488281 28.238281 330.222656 C 33.042969 325.644531 38.277344 321.625 43.941406 318.171875 Z M 279.878906 119.902344 C 290.792969 120.199219 301.53125 121.734375 312.09375 124.503906 C 324.691406 125.957031 337.324219 126.453125 349.996094 125.996094 C 354.152344 125.894531 358.289062 126.128906 362.40625 126.699219 C 366.519531 127.273438 370.566406 128.175781 374.535156 129.40625 C 378.503906 130.636719 382.347656 132.183594 386.066406 134.042969 C 389.785156 135.902344 393.328125 138.050781 396.695312 140.484375 C 403.195312 145.089844 409.148438 150.507812 416.1875 154.027344 C 421.609375 156.929688 426.707031 160.316406 431.484375 164.1875 C 435.445312 167.492188 438.867188 171.289062 441.742188 175.570312 C 444.621094 179.855469 446.84375 184.457031 448.40625 189.375 C 449.894531 194.660156 450.164062 200.347656 451.652344 205.628906 C 452.160156 207.566406 452.535156 209.53125 452.777344 211.519531 C 453.023438 213.511719 453.132812 215.507812 453.109375 217.511719 C 453.085938 219.515625 452.929688 221.507812 452.640625 223.492188 C 452.347656 225.476562 451.929688 227.429688 451.378906 229.359375 C 450.828125 231.285156 450.148438 233.167969 449.347656 235.003906 C 448.542969 236.839844 447.621094 238.613281 446.582031 240.328125 C 445.542969 242.042969 444.394531 243.675781 443.136719 245.238281 C 441.875 246.796875 440.519531 248.265625 439.066406 249.644531 C 434.300781 254.074219 429.050781 257.828125 423.316406 260.902344 C 417.582031 263.980469 411.550781 266.273438 405.222656 267.789062 C 404.738281 267.890625 404.265625 268.03125 403.804688 268.214844 C 403.339844 268.398438 402.898438 268.617188 402.476562 268.875 C 402.050781 269.132812 401.652344 269.425781 401.277344 269.753906 C 400.90625 270.082031 400.5625 270.4375 400.25 270.824219 C 399.9375 271.210938 399.660156 271.621094 399.417969 272.054688 C 399.175781 272.488281 398.972656 272.9375 398.808594 273.40625 C 398.644531 273.875 398.523438 274.355469 398.441406 274.84375 C 398.359375 275.332031 398.316406 275.824219 398.320312 276.324219 C 398.339844 280.367188 398.027344 284.382812 397.375 288.375 C 396.332031 293.246094 395.972656 298.167969 396.289062 303.136719 C 399.132812 327.109375 399.675781 351.214844 400.621094 375.320312 C 400.585938 376.75 400.835938 378.121094 401.378906 379.441406 C 401.921875 380.761719 402.707031 381.917969 403.734375 382.90625 C 404.828125 383.78125 405.863281 384.71875 406.832031 385.726562 C 407.804688 386.734375 408.707031 387.800781 409.542969 388.925781 C 410.378906 390.050781 411.136719 391.222656 411.820312 392.445312 C 412.5 393.667969 413.101562 394.929688 413.621094 396.230469 C 414.140625 397.53125 414.578125 398.859375 414.925781 400.214844 C 415.273438 401.570312 415.53125 402.945312 415.703125 404.332031 C 415.875 405.722656 415.953125 407.117188 415.945312 408.519531 C 415.9375 409.917969 415.835938 411.3125 415.648438 412.699219 C 415.464844 413.289062 415.464844 413.875 415.648438 414.460938 C 416.769531 414.160156 417.851562 413.753906 418.894531 413.242188 C 427.917969 407.097656 437.4375 401.863281 447.457031 397.53125 C 452.113281 396.300781 456.625 394.675781 460.992188 392.65625 C 471.367188 385.007812 482.511719 378.734375 494.429688 373.832031 C 501.800781 371.0625 508.929688 367.765625 515.816406 363.945312 C 525.15625 359.207031 535.035156 354.738281 536.933594 342.414062 C 537.097656 341.804688 537.179688 341.1875 537.179688 340.554688 C 537.179688 339.925781 537.09375 339.308594 536.929688 338.699219 C 536.761719 338.09375 536.515625 337.519531 536.195312 336.976562 C 535.875 336.433594 535.488281 335.945312 535.035156 335.503906 C 530.300781 329.410156 523.667969 324.535156 523.667969 315.734375 C 523.597656 309.039062 523.867188 302.355469 524.480469 295.6875 C 525.96875 277.542969 526.78125 259.394531 527.1875 241.515625 C 526.832031 238.851562 526.972656 236.207031 527.601562 233.59375 C 528.230469 230.976562 529.3125 228.5625 530.839844 226.347656 C 536.027344 219.789062 541.9375 213.964844 548.574219 208.878906 C 551.144531 206.398438 552.992188 203.464844 554.125 200.074219 C 554.929688 198.296875 555.628906 196.480469 556.222656 194.621094 C 556.816406 192.761719 557.300781 190.871094 557.675781 188.957031 C 558.050781 187.039062 558.3125 185.109375 558.460938 183.164062 C 558.613281 181.21875 558.648438 179.269531 558.574219 177.316406 C 558.496094 175.367188 558.308594 173.429688 558.007812 171.5 C 557.707031 169.570312 557.292969 167.667969 556.769531 165.785156 C 556.246094 163.90625 555.617188 162.0625 554.882812 160.253906 C 554.144531 158.445312 553.304688 156.6875 552.363281 154.976562 C 546.683594 144.382812 539.960938 134.496094 532.195312 125.316406 C 529.976562 121.558594 527.222656 118.242188 523.9375 115.371094 C 520.648438 112.5 516.996094 110.21875 512.972656 108.523438 C 499.21875 102.71875 485.140625 97.839844 470.738281 93.898438 C 460.929688 91.671875 451.003906 90.273438 440.960938 89.699219 C 417.464844 90.972656 394.136719 93.683594 370.976562 97.824219 C 353.785156 99.449219 337.273438 104.328125 320.351562 107.035156 C 306.417969 109.929688 292.925781 114.21875 279.878906 119.902344 Z M 340.925781 487.730469 C 332.941406 478.925781 325.496094 469.988281 317.375 461.726562 C 309.210938 455.238281 302.308594 447.609375 296.664062 438.839844 C 296.460938 438.496094 296.191406 438.226562 295.851562 438.027344 C 287.972656 432 281.203125 424.914062 275.546875 416.761719 C 274.050781 414.796875 272.382812 412.992188 270.539062 411.347656 C 258.003906 400.363281 246.542969 388.355469 236.15625 375.320312 C 232.515625 371.484375 229.371094 367.277344 226.71875 362.699219 C 224.066406 358.121094 221.976562 353.300781 220.453125 348.234375 C 219.234375 341.464844 212.332031 338.214844 208.949219 332.796875 C 207.894531 331.117188 206.640625 329.597656 205.195312 328.238281 C 203.75 326.878906 202.15625 325.726562 200.414062 324.777344 C 198.671875 323.828125 196.839844 323.117188 194.914062 322.640625 C 192.988281 322.164062 191.03125 321.9375 189.050781 321.960938 L 168.476562 321.015625 C 164.957031 321.015625 161.4375 318.578125 157.78125 321.015625 C 155.65625 321.910156 153.46875 322.628906 151.222656 323.164062 C 148.976562 323.703125 146.703125 324.050781 144.402344 324.210938 C 142.101562 324.375 139.800781 324.34375 137.5 324.125 C 135.203125 323.90625 132.9375 323.503906 130.707031 322.910156 C 118.972656 321.042969 107.195312 320.726562 95.378906 321.960938 C 86.714844 322.910156 78.324219 326.296875 70.066406 327.921875 C 58.621094 330.578125 47.746094 334.730469 37.445312 340.382812 C 32.203125 342.5 27.691406 345.660156 23.90625 349.859375 C 22.496094 351.917969 21.304688 354.09375 20.324219 356.386719 C 19.34375 358.679688 18.597656 361.042969 18.085938 363.484375 C 17.578125 365.925781 17.308594 368.394531 17.285156 370.886719 C 17.261719 373.378906 17.484375 375.851562 17.953125 378.300781 C 18.148438 380.015625 18.535156 381.683594 19.109375 383.308594 C 19.6875 384.9375 20.4375 386.476562 21.363281 387.929688 C 22.289062 389.386719 23.367188 390.71875 24.597656 391.925781 C 25.828125 393.136719 27.175781 394.191406 28.644531 395.09375 C 33.582031 397.183594 38.726562 398.402344 44.078125 398.75 C 50.035156 401.285156 55.613281 404.488281 60.808594 408.355469 C 66.003906 412.226562 70.667969 416.652344 74.804688 421.640625 C 82.65625 429.222656 88.339844 438.839844 96.730469 446.558594 C 105.449219 456.714844 113.300781 467.503906 120.285156 478.925781 C 120.632812 479.480469 121.019531 480.003906 121.445312 480.5 C 121.871094 480.996094 122.332031 481.453125 122.832031 481.878906 C 123.328125 482.300781 123.855469 482.683594 124.414062 483.027344 C 124.96875 483.367188 125.546875 483.667969 126.152344 483.921875 C 126.753906 484.171875 127.371094 484.378906 128.003906 484.535156 C 128.640625 484.695312 129.28125 484.800781 129.933594 484.863281 C 130.582031 484.921875 131.234375 484.929688 131.886719 484.886719 C 132.539062 484.847656 133.183594 484.753906 133.820312 484.613281 C 141.003906 483.507812 148.222656 483.148438 155.480469 483.53125 C 158.730469 483.53125 161.4375 483.53125 159.132812 479.195312 C 158.050781 476.894531 160.21875 474.457031 161.4375 472.425781 C 162.652344 470.394531 164.414062 468.902344 164.144531 466.195312 C 163.871094 463.488281 164.144531 462.675781 166.714844 462.675781 C 169.285156 462.675781 169.691406 464.839844 169.691406 466.738281 C 169.890625 471.972656 169.03125 477.027344 167.121094 481.90625 C 177.296875 484.066406 187.585938 485.015625 197.984375 484.75 C 203.011719 484.570312 208.019531 484.792969 213.007812 485.425781 C 224.246094 486.96875 235.527344 487.421875 246.851562 486.78125 C 259.640625 485.515625 272.453125 485.199219 285.292969 485.832031 L 329.960938 489.21875 C 331.820312 489.621094 333.691406 489.691406 335.574219 489.4375 C 337.460938 489.179688 339.242188 488.609375 340.925781 487.730469 Z M 142.484375 297.3125 C 145.148438 297.710938 147.808594 297.710938 150.472656 297.3125 C 160.941406 296.089844 171.40625 296.089844 181.875 297.3125 C 188.914062 297.3125 195.410156 300.972656 201.910156 301.648438 C 208.929688 301.980469 215.832031 303.066406 222.621094 304.898438 C 224.296875 305.265625 225.941406 305.753906 227.550781 306.359375 C 229.15625 306.96875 230.710938 307.691406 232.214844 308.527344 C 233.714844 309.363281 235.148438 310.304688 236.511719 311.351562 C 237.875 312.394531 239.15625 313.535156 240.355469 314.769531 C 241.550781 316.003906 242.652344 317.316406 243.65625 318.710938 C 244.660156 320.109375 245.558594 321.570312 246.351562 323.09375 C 247.140625 324.621094 247.816406 326.199219 248.375 327.824219 C 248.9375 329.449219 249.375 331.105469 249.691406 332.796875 C 250.21875 336.078125 251.269531 339.183594 252.847656 342.109375 C 254.425781 345.035156 256.441406 347.621094 258.898438 349.859375 C 269.292969 358.75 278.316406 368.859375 285.96875 380.195312 C 286.492188 381.015625 287.121094 381.738281 287.863281 382.363281 C 297.671875 391.300781 306.0625 401.414062 313.042969 412.699219 C 322.851562 425 333.636719 436.375 345.394531 446.828125 C 346.148438 447.503906 346.96875 448.085938 347.855469 448.574219 C 348.742188 449.0625 349.671875 449.449219 350.640625 449.730469 C 351.613281 450.011719 352.605469 450.183594 353.617188 450.242188 C 354.625 450.300781 355.628906 450.246094 356.628906 450.078125 C 358.523438 450.078125 359.199219 449.265625 358.386719 447.640625 C 355.140625 440.464844 355.140625 432.472656 351.621094 425.296875 C 348.101562 418.117188 347.019531 413.648438 344.851562 407.824219 C 339.4375 393.199219 335.375 378.164062 329.015625 363.808594 C 322.652344 349.453125 316.96875 337.535156 311.6875 324.128906 C 306.410156 310.722656 304.515625 298.53125 298.828125 286.34375 C 296.257812 280.925781 290.300781 275.375 297.476562 269.007812 C 298.21875 265.367188 298.695312 261.6875 298.902344 257.976562 C 299.113281 254.261719 299.050781 250.554688 298.71875 246.847656 C 298.382812 243.144531 297.785156 239.484375 296.917969 235.867188 C 296.054688 232.253906 294.929688 228.71875 293.550781 225.265625 C 291.9375 222.453125 290.085938 219.804688 288 217.324219 C 285.914062 214.839844 283.621094 212.566406 281.125 210.496094 C 278.628906 208.425781 275.96875 206.597656 273.144531 205.003906 C 270.316406 203.414062 267.375 202.085938 264.3125 201.023438 C 262.449219 199.835938 260.492188 198.820312 258.449219 197.976562 C 256.40625 197.128906 254.308594 196.472656 252.148438 196 C 249.988281 195.523438 247.804688 195.242188 245.597656 195.15625 C 243.386719 195.066406 241.1875 195.171875 239 195.472656 C 227.390625 197.925781 215.660156 199.371094 203.804688 199.804688 C 185.6875 200.648438 167.863281 203.402344 150.335938 208.066406 C 142.554688 209.273438 134.929688 211.125 127.460938 213.617188 C 107.695312 223.097656 85.902344 227.160156 65.871094 237.046875 C 56.085938 242.007812 47.511719 248.554688 40.152344 256.683594 C 39.039062 257.988281 38.132812 259.421875 37.441406 260.992188 C 36.75 262.558594 36.300781 264.195312 36.089844 265.894531 C 35.816406 267.640625 35.644531 269.394531 35.566406 271.15625 C 35.488281 272.921875 35.511719 274.683594 35.628906 276.445312 C 35.746094 278.207031 35.960938 279.957031 36.273438 281.695312 C 36.585938 283.433594 36.992188 285.148438 37.492188 286.84375 C 37.996094 288.535156 38.589844 290.195312 39.273438 291.824219 C 39.960938 293.449219 40.734375 295.035156 41.59375 296.574219 C 42.453125 298.117188 43.398438 299.605469 44.425781 301.042969 C 45.449219 302.480469 46.554688 303.855469 47.730469 305.167969 C 48.507812 306.222656 49.398438 307.171875 50.40625 308.003906 C 51.414062 308.839844 52.507812 309.542969 53.6875 310.109375 C 54.867188 310.675781 56.101562 311.09375 57.382812 311.355469 C 58.664062 311.621094 59.960938 311.722656 61.265625 311.667969 C 66.421875 311.625 71.519531 311.054688 76.558594 309.960938 C 81.597656 308.863281 86.472656 307.269531 91.183594 305.167969 C 99.417969 302.292969 107.847656 300.191406 116.472656 298.871094 C 125.09375 297.550781 133.765625 297.03125 142.484375 297.3125 Z M 161.4375 178.269531 C 165.894531 177.105469 170.40625 176.203125 174.972656 175.5625 C 195.210938 174.582031 215.289062 172.234375 235.207031 168.519531 C 245.359375 167.910156 255.511719 167.910156 265.664062 168.519531 C 273.191406 168.523438 280.410156 170.011719 287.324219 172.988281 C 296.425781 177.550781 304.59375 183.421875 311.824219 190.59375 C 314.449219 192.65625 316.816406 194.980469 318.929688 197.570312 C 321.042969 200.15625 322.847656 202.941406 324.34375 205.925781 C 325.84375 208.910156 326.996094 212.023438 327.808594 215.261719 C 328.617188 218.5 329.066406 221.792969 329.148438 225.128906 C 328.789062 234.722656 329.105469 244.292969 330.097656 253.839844 C 330.335938 254.785156 330.472656 255.742188 330.507812 256.71875 C 330.539062 257.691406 330.46875 258.65625 330.292969 259.617188 C 330.121094 260.574219 329.84375 261.503906 329.46875 262.402344 C 329.09375 263.300781 328.625 264.148438 328.066406 264.945312 C 322.246094 272.125 325.765625 278.488281 329.015625 284.855469 C 334.644531 295.875 339.425781 307.25 343.363281 318.984375 C 349.003906 335.574219 355.953125 351.601562 364.210938 367.0625 C 366.070312 370.398438 367.738281 373.828125 369.21875 377.351562 C 374.089844 390.894531 378.691406 404.4375 383.566406 418.792969 C 383.78125 419.375 384.054688 419.921875 384.386719 420.441406 C 384.722656 420.960938 385.105469 421.4375 385.542969 421.875 C 385.980469 422.308594 386.457031 422.691406 386.976562 423.023438 C 387.5 423.355469 388.046875 423.628906 388.628906 423.839844 C 389.207031 424.054688 389.800781 424.203125 390.414062 424.285156 C 391.023438 424.367188 391.636719 424.382812 392.25 424.335938 C 392.867188 424.285156 393.46875 424.167969 394.058594 423.988281 C 394.648438 423.808594 395.210938 423.566406 395.75 423.265625 C 397.027344 422.730469 398.214844 422.042969 399.3125 421.195312 C 400.410156 420.351562 401.378906 419.375 402.21875 418.273438 C 403.058594 417.167969 403.738281 415.976562 404.261719 414.691406 C 404.785156 413.410156 405.132812 412.082031 405.304688 410.703125 C 405.476562 409.328125 405.46875 407.953125 405.277344 406.582031 C 405.085938 405.210938 404.71875 403.886719 404.175781 402.609375 C 403.632812 401.332031 402.933594 400.152344 402.078125 399.058594 C 401.222656 397.96875 400.242188 397.007812 399.132812 396.179688 C 397.6875 395.101562 396.382812 393.875 395.222656 392.492188 C 394.0625 391.113281 393.078125 389.617188 392.265625 388.007812 C 391.457031 386.398438 390.839844 384.714844 390.421875 382.960938 C 390.003906 381.207031 389.796875 379.425781 389.792969 377.625 C 389.792969 360.695312 385.867188 344.171875 385.730469 327.242188 C 385.390625 309.960938 386.070312 292.714844 387.761719 275.511719 C 387.800781 274.472656 387.921875 273.449219 388.121094 272.429688 C 388.320312 271.414062 388.59375 270.417969 388.949219 269.441406 C 389.300781 268.46875 389.726562 267.527344 390.226562 266.617188 C 390.726562 265.710938 391.289062 264.847656 391.925781 264.027344 C 392.558594 263.207031 393.25 262.4375 394 261.726562 C 394.753906 261.011719 395.554688 260.363281 396.410156 259.773438 C 397.261719 259.183594 398.15625 258.667969 399.089844 258.214844 C 400.019531 257.765625 400.984375 257.390625 401.976562 257.089844 C 406.957031 255.933594 411.734375 254.207031 416.3125 251.917969 C 420.886719 249.628906 425.132812 246.839844 429.046875 243.546875 C 430.136719 242.660156 431.167969 241.710938 432.140625 240.699219 C 433.113281 239.6875 434.019531 238.617188 434.863281 237.496094 C 435.703125 236.371094 436.476562 235.203125 437.175781 233.984375 C 437.875 232.765625 438.496094 231.511719 439.042969 230.21875 C 439.589844 228.921875 440.058594 227.601562 440.441406 226.25 C 440.828125 224.902344 441.128906 223.53125 441.347656 222.144531 C 441.566406 220.757812 441.699219 219.363281 441.75 217.957031 C 441.796875 216.554688 441.757812 215.152344 441.636719 213.753906 C 441.636719 209.828125 439.878906 205.898438 439.472656 201.972656 C 439.261719 199.96875 438.917969 197.992188 438.449219 196.035156 C 437.976562 194.078125 437.382812 192.160156 436.660156 190.28125 C 435.9375 188.40625 435.097656 186.582031 434.136719 184.8125 C 433.175781 183.046875 432.105469 181.347656 430.921875 179.71875 C 429.738281 178.09375 428.457031 176.550781 427.070312 175.089844 C 425.683594 173.632812 424.210938 172.269531 422.648438 171.003906 C 421.082031 169.738281 419.445312 168.582031 417.726562 167.53125 C 416.011719 166.480469 414.234375 165.546875 412.398438 164.726562 C 405.726562 161.359375 399.546875 157.25 393.855469 152.402344 C 390.789062 149.75 387.503906 147.40625 384 145.371094 C 380.496094 143.339844 376.832031 141.648438 373.011719 140.304688 C 369.1875 138.960938 365.273438 137.984375 361.265625 137.378906 C 357.261719 136.769531 353.234375 136.542969 349.183594 136.695312 C 332.699219 137.398438 316.363281 136.136719 300.183594 132.902344 C 295.15625 131.777344 290.066406 131.167969 284.914062 131.078125 C 279.761719 130.984375 274.65625 131.414062 269.589844 132.359375 C 260.351562 134.808594 250.964844 136.390625 241.433594 137.101562 C 236.496094 136.867188 231.582031 137.148438 226.703125 137.945312 C 221.820312 138.746094 217.074219 140.042969 212.46875 141.839844 C 206.65625 143.328125 201.039062 145.359375 195.621094 147.933594 C 190.199219 150.507812 185.078125 153.578125 180.25 157.144531 C 173.753906 163.644531 169.558594 171.230469 160.757812 178.269531 Z M 34.195312 244.496094 C 37.851562 245.445312 39.878906 242.734375 41.367188 241.109375 C 47.160156 235.863281 53.488281 231.371094 60.351562 227.640625 C 67.21875 223.910156 74.425781 221.039062 81.976562 219.035156 C 96.597656 213.617188 111.351562 208.742188 125.835938 202.648438 C 129.34375 201.191406 132.980469 200.242188 136.753906 199.804688 C 140.527344 199.367188 144.289062 199.457031 148.035156 200.074219 C 152.90625 200.886719 156.832031 197.636719 161.570312 196.417969 C 170.972656 193.160156 180.628906 191.082031 190.539062 190.1875 C 203.800781 190.796875 216.976562 189.984375 230.066406 187.75 C 235.566406 186.691406 241.117188 186.285156 246.714844 186.53125 C 251.152344 186.902344 255.519531 187.664062 259.816406 188.820312 C 264.117188 189.980469 268.277344 191.511719 272.296875 193.421875 C 276.320312 195.328125 280.140625 197.582031 283.757812 200.179688 C 287.371094 202.777344 290.726562 205.675781 293.820312 208.878906 C 297.371094 212.164062 300.257812 215.957031 302.484375 220.253906 C 304.136719 223.703125 305.445312 227.28125 306.40625 230.984375 C 307.367188 234.6875 307.964844 238.449219 308.195312 242.265625 C 308.429688 246.085938 308.292969 249.890625 307.785156 253.683594 C 307.28125 257.476562 306.414062 261.1875 305.191406 264.8125 C 304.214844 267.382812 303.722656 270.046875 303.722656 272.800781 C 303.722656 275.554688 304.214844 278.21875 305.191406 280.792969 C 311.6875 300.011719 319.179688 318.835938 327.660156 337.265625 C 339.726562 363.132812 350.195312 389.632812 359.066406 416.761719 C 362.3125 425.429688 364.34375 434.234375 367.1875 442.902344 C 367.1875 444.121094 367.1875 445.878906 368.945312 446.285156 C 370.707031 446.695312 377.878906 438.972656 377.203125 436.941406 C 373.957031 426.785156 370.164062 416.761719 367.457031 406.46875 C 363.574219 394.269531 359.0625 382.308594 353.921875 370.582031 C 350.402344 360.558594 344.3125 351.484375 340.386719 341.734375 C 331.859375 319.929688 322.382812 298.53125 313.3125 277 C 312.945312 276.238281 312.671875 275.449219 312.484375 274.625 C 312.292969 273.800781 312.199219 272.96875 312.199219 272.125 C 312.199219 271.28125 312.292969 270.445312 312.484375 269.625 C 312.671875 268.800781 312.945312 268.007812 313.3125 267.25 C 315.074219 263.1875 319.675781 260.746094 319.808594 256.007812 C 320.714844 251.039062 321.074219 246.03125 320.894531 240.984375 C 320.710938 235.9375 319.988281 230.96875 318.726562 226.078125 C 315.75 218.085938 316.289062 208.742188 309.117188 202.648438 C 305.265625 199.863281 301.65625 196.792969 298.289062 193.4375 C 296.179688 190.957031 293.828125 188.726562 291.234375 186.757812 C 288.640625 184.785156 285.863281 183.113281 282.90625 181.746094 C 279.949219 180.378906 276.882812 179.34375 273.699219 178.644531 C 270.519531 177.945312 267.296875 177.59375 264.039062 177.59375 C 248.789062 176.03125 233.539062 176.03125 218.289062 177.59375 C 212.285156 179.5625 206.152344 180.917969 199.878906 181.65625 C 195.875 181.230469 191.878906 181.304688 187.890625 181.875 C 183.902344 182.449219 180.050781 183.503906 176.324219 185.042969 C 174.527344 186.125 172.585938 186.804688 170.503906 187.074219 C 157.753906 188.21875 145.257812 190.65625 133.007812 194.386719 C 122.859375 197.773438 112.707031 201.699219 102.417969 204.816406 C 96.578125 206.582031 90.894531 208.75 85.363281 211.316406 C 77.871094 215.921875 69.929688 219.53125 61.539062 222.152344 C 58.613281 222.96875 55.800781 224.074219 53.101562 225.476562 C 50.40625 226.875 47.878906 228.535156 45.527344 230.457031 C 43.175781 232.382812 41.042969 234.527344 39.132812 236.890625 C 37.226562 239.253906 35.578125 241.789062 34.195312 244.496094 Z M 196.628906 313.160156 C 200.015625 315.191406 203.804688 315.460938 207.324219 317.222656 C 209.878906 318.6875 212.265625 320.382812 214.492188 322.3125 C 216.714844 324.242188 218.734375 326.367188 220.542969 328.6875 C 222.355469 331.011719 223.921875 333.484375 225.253906 336.113281 C 226.582031 338.742188 227.644531 341.472656 228.441406 344.308594 C 231.214844 351.109375 234.742188 357.5 239.019531 363.472656 C 243.296875 369.445312 248.207031 374.839844 253.753906 379.65625 C 261.332031 387.78125 269.863281 395.367188 276.898438 404.167969 C 290.4375 420.960938 306.542969 435.453125 320.894531 451.570312 C 322.652344 453.734375 325.496094 453.871094 327.253906 455.902344 C 334.699219 464.570312 342.144531 473.238281 349.453125 482.039062 C 352.160156 485.15625 352.027344 485.15625 354.191406 482.039062 C 354.191406 482.039062 354.191406 482.039062 355.140625 482.039062 C 358.386719 481.09375 358.117188 479.195312 356.492188 476.894531 C 353.246094 471.882812 349.996094 466.738281 346.613281 461.863281 C 341.933594 456.242188 336.519531 451.457031 330.367188 447.507812 C 308.710938 430.171875 295.308594 405.65625 276.222656 385.75 C 268.371094 376.132812 259.980469 366.925781 250.773438 357.851562 C 246.527344 353.429688 242.738281 348.644531 239.40625 343.496094 C 236.96875 339.566406 239.40625 335.503906 237.644531 331.847656 C 236.734375 329.796875 235.605469 327.871094 234.257812 326.074219 C 232.914062 324.277344 231.386719 322.652344 229.675781 321.199219 C 227.964844 319.746094 226.117188 318.5 224.125 317.464844 C 222.132812 316.425781 220.054688 315.625 217.882812 315.054688 C 210.851562 313.816406 203.769531 313.183594 196.628906 313.160156 Z M 195.546875 313.160156 C 184.175781 306.660156 129.761719 305.304688 110.539062 311.128906 C 122.453125 308.824219 134.09375 314.378906 146.140625 312.617188 C 158.367188 310.378906 170.683594 309.613281 183.09375 310.316406 C 187.15625 310.722656 190.808594 313.429688 196.628906 312.617188 Z M 195.546875 313.160156 "/><path style=" stroke:none;fill-rule:nonzero;fill:#3e3d3f;fill-opacity:1;" d="M 137.746094 358.257812 C 137.253906 354.789062 137.703125 351.449219 139.101562 348.234375 C 139.316406 347.75 139.605469 347.3125 139.960938 346.921875 C 140.320312 346.53125 140.730469 346.207031 141.195312 345.949219 C 141.660156 345.695312 142.152344 345.519531 142.675781 345.421875 C 143.195312 345.328125 143.71875 345.316406 144.246094 345.390625 C 144.515625 345.390625 144.785156 345.417969 145.054688 345.472656 C 145.320312 345.527344 145.578125 345.605469 145.832031 345.714844 C 146.082031 345.820312 146.320312 345.949219 146.542969 346.105469 C 146.769531 346.257812 146.976562 346.433594 147.164062 346.628906 C 147.355469 346.824219 147.523438 347.039062 147.667969 347.269531 C 147.816406 347.496094 147.9375 347.738281 148.035156 347.992188 C 148.132812 348.246094 148.207031 348.507812 148.25 348.777344 C 148.296875 349.046875 148.316406 349.316406 148.304688 349.589844 C 148.769531 356.503906 147.734375 363.1875 145.191406 369.632812 C 144.246094 371.394531 143.296875 373.289062 140.859375 372.613281 C 138.425781 371.9375 139.101562 370.175781 138.832031 368.414062 C 138.085938 365.070312 137.726562 361.683594 137.746094 358.257812 Z M 137.746094 358.257812 "/><path style=" stroke:none;fill-rule:nonzero;fill:#3e3d3f;fill-opacity:1;" d="M 128.949219 414.324219 C 130.125 414.171875 131.289062 414.25 132.4375 414.554688 C 133.585938 414.859375 134.632812 415.371094 135.582031 416.085938 C 136.234375 416.394531 136.8125 416.808594 137.316406 417.320312 C 137.824219 417.835938 138.222656 418.421875 138.519531 419.078125 C 138.820312 419.734375 138.992188 420.425781 139.046875 421.144531 C 139.101562 421.863281 139.027344 422.570312 138.832031 423.265625 C 138.707031 423.609375 138.554688 423.9375 138.371094 424.25 C 138.1875 424.566406 137.972656 424.863281 137.734375 425.136719 C 137.496094 425.410156 137.230469 425.660156 136.945312 425.886719 C 136.660156 426.113281 136.351562 426.308594 136.03125 426.476562 C 135.707031 426.644531 135.371094 426.78125 135.019531 426.886719 C 134.671875 426.992188 134.316406 427.0625 133.953125 427.101562 C 133.589844 427.140625 133.226562 427.144531 132.863281 427.113281 C 132.5 427.082031 132.144531 427.019531 131.792969 426.921875 L 122.722656 425.835938 C 118.933594 425.835938 117.714844 423.128906 117.441406 419.605469 C 117.171875 416.085938 119.742188 415.816406 122.316406 415.542969 C 124.886719 415.273438 126.105469 413.785156 128.949219 414.324219 Z M 128.949219 414.324219 "/><path style=" stroke:none;fill-rule:nonzero;fill:#3e3d3f;fill-opacity:1;" d="M 196.628906 377.082031 C 197.984375 373.289062 199.203125 369.226562 200.960938 365.433594 C 201.058594 365.167969 201.179688 364.914062 201.328125 364.675781 C 201.476562 364.433594 201.648438 364.210938 201.84375 364.007812 C 202.039062 363.800781 202.253906 363.621094 202.484375 363.460938 C 202.71875 363.300781 202.964844 363.164062 203.226562 363.054688 C 203.488281 362.949219 203.757812 362.867188 204.035156 362.816406 C 204.316406 362.765625 204.59375 362.742188 204.878906 362.746094 C 205.160156 362.753906 205.441406 362.789062 205.714844 362.855469 C 205.988281 362.921875 206.253906 363.011719 206.511719 363.132812 C 209.082031 364.214844 211.113281 366.382812 210.167969 368.957031 C 208.339844 373.609375 206.21875 378.125 203.804688 382.5 C 203.671875 382.816406 203.484375 383.089844 203.234375 383.328125 C 202.988281 383.5625 202.703125 383.738281 202.378906 383.855469 C 202.058594 383.972656 201.726562 384.015625 201.386719 383.992188 C 201.042969 383.96875 200.722656 383.878906 200.421875 383.71875 C 196.628906 382.769531 197.578125 379.65625 196.628906 377.082031 Z M 196.628906 377.082031 "/><path style=" stroke:none;fill-rule:nonzero;fill:#3e3d3f;fill-opacity:1;" d="M 57.070312 379.789062 C 57.070312 377.082031 57.070312 373.5625 61.132812 373.019531 C 62.308594 373.1875 63.4375 373.527344 64.511719 374.039062 C 65.585938 374.550781 66.558594 375.214844 67.429688 376.023438 C 68.300781 376.835938 69.03125 377.757812 69.617188 378.792969 C 70.207031 379.828125 70.625 380.929688 70.878906 382.09375 C 70.863281 382.585938 70.804688 383.078125 70.703125 383.5625 C 70.605469 384.046875 70.464844 384.519531 70.285156 384.980469 C 70.105469 385.441406 69.886719 385.882812 69.628906 386.304688 C 69.375 386.726562 69.082031 387.125 68.757812 387.5 C 68.433594 387.875 68.082031 388.214844 67.699219 388.53125 C 67.316406 388.84375 66.90625 389.121094 66.476562 389.363281 C 66.046875 389.605469 65.597656 389.8125 65.132812 389.976562 C 64.667969 390.144531 64.191406 390.269531 63.703125 390.355469 C 59.644531 390.488281 57.070312 386.699219 57.070312 379.789062 Z M 57.070312 379.789062 "/><path style=" stroke:none;fill-rule:nonzero;fill:#3e3d3f;fill-opacity:1;" d="M 237.238281 447.234375 C 237.183594 447.921875 237.023438 448.585938 236.761719 449.222656 C 236.496094 449.863281 236.136719 450.441406 235.6875 450.964844 C 235.234375 451.488281 234.714844 451.929688 234.125 452.289062 C 233.535156 452.644531 232.902344 452.902344 232.230469 453.058594 C 229.523438 454.140625 228.035156 453.058594 226.953125 450.484375 C 225.867188 447.914062 223.296875 443.308594 218.421875 443.035156 C 216.933594 443.035156 216.664062 441.816406 216.664062 440.597656 C 216.664062 439.378906 217.613281 438.160156 218.828125 437.753906 C 220.464844 437.828125 222.078125 438.050781 223.675781 438.414062 C 225.269531 438.78125 226.816406 439.289062 228.320312 439.9375 C 229.824219 440.585938 231.257812 441.363281 232.617188 442.269531 C 233.980469 443.179688 235.25 444.199219 236.425781 445.339844 C 236.765625 445.941406 237.035156 446.574219 237.238281 447.234375 Z M 237.238281 447.234375 "/><path style=" stroke:none;fill-rule:nonzero;fill:#3e3d3f;fill-opacity:1;" d="M 277.847656 300.429688 C 279.609375 304.628906 274.597656 308.148438 275.953125 313.023438 C 275.953125 314.921875 272.976562 315.597656 271.078125 316.140625 C 270.5 316.222656 269.925781 316.210938 269.351562 316.105469 C 268.777344 316 268.230469 315.808594 267.71875 315.527344 C 267.207031 315.246094 266.753906 314.890625 266.355469 314.464844 C 265.957031 314.035156 265.636719 313.554688 265.394531 313.023438 C 264.835938 311.261719 264.460938 309.460938 264.269531 307.621094 C 264.078125 305.78125 264.078125 303.941406 264.261719 302.101562 C 264.449219 300.261719 264.820312 298.457031 265.375 296.695312 C 265.929688 294.929688 266.660156 293.242188 267.558594 291.625 C 267.863281 291.289062 268.203125 290.992188 268.578125 290.738281 C 268.953125 290.484375 269.355469 290.273438 269.777344 290.117188 C 270.203125 289.957031 270.640625 289.847656 271.089844 289.792969 C 271.542969 289.738281 271.992188 289.738281 272.441406 289.792969 C 272.890625 289.84375 273.332031 289.949219 273.753906 290.109375 C 274.179688 290.265625 274.582031 290.472656 274.957031 290.726562 C 275.332031 290.980469 275.675781 291.273438 275.980469 291.609375 C 276.285156 291.945312 276.546875 292.3125 276.765625 292.710938 C 277.84375 295.183594 278.203125 297.753906 277.847656 300.429688 Z M 277.847656 300.429688 "/><path style=" stroke:none;fill-rule:nonzero;fill:#3e3d3f;fill-opacity:1;" d="M 203.128906 247.476562 C 201.140625 251.835938 199.609375 256.351562 198.523438 261.019531 C 198.523438 262.644531 194.734375 262.507812 193.652344 261.019531 C 192.570312 259.527344 188.914062 255.332031 189.050781 252.621094 C 188.960938 250.222656 189.238281 247.867188 189.886719 245.554688 C 190.53125 243.242188 191.519531 241.082031 192.839844 239.078125 C 193.125 238.695312 193.457031 238.355469 193.835938 238.0625 C 194.21875 237.773438 194.628906 237.539062 195.074219 237.363281 C 195.519531 237.183594 195.980469 237.074219 196.457031 237.023438 C 196.933594 236.976562 197.40625 236.996094 197.878906 237.078125 C 198.347656 237.164062 198.800781 237.3125 199.230469 237.523438 C 199.660156 237.730469 200.054688 237.996094 200.410156 238.316406 C 200.765625 238.636719 201.070312 239 201.324219 239.40625 C 201.582031 239.8125 201.773438 240.246094 201.910156 240.703125 C 202.546875 242.921875 202.953125 245.175781 203.128906 247.476562 Z M 203.128906 247.476562 "/><path style=" stroke:none;fill-rule:nonzero;fill:#3e3d3f;fill-opacity:1;" d="M 308.167969 367.875 C 304.769531 367.085938 301.839844 365.460938 299.371094 362.996094 C 296.394531 360.953125 293.734375 358.5625 291.382812 355.820312 C 291.136719 355.472656 290.945312 355.097656 290.816406 354.695312 C 290.6875 354.289062 290.621094 353.875 290.621094 353.449219 C 290.621094 353.023438 290.6875 352.609375 290.816406 352.203125 C 290.945312 351.800781 291.136719 351.425781 291.382812 351.078125 C 292.601562 349.183594 294.089844 350.265625 295.851562 351.078125 C 301.179688 352.746094 306.097656 355.230469 310.605469 358.527344 C 311.082031 358.855469 311.492188 359.253906 311.835938 359.71875 C 312.179688 360.183594 312.441406 360.691406 312.613281 361.246094 C 312.785156 361.800781 312.859375 362.363281 312.839844 362.945312 C 312.820312 363.523438 312.707031 364.082031 312.5 364.621094 C 312.367188 366.519531 310.335938 367.332031 308.167969 367.875 Z M 308.167969 367.875 "/><path style=" stroke:none;fill-rule:nonzero;fill:#3e3d3f;fill-opacity:1;" d="M 124.210938 264.40625 C 121.640625 264.40625 120.285156 262.644531 118.660156 261.425781 C 117.035156 260.207031 115.414062 256.414062 111.757812 254.246094 C 111.53125 253.996094 111.355469 253.714844 111.230469 253.398438 C 111.109375 253.085938 111.046875 252.757812 111.046875 252.417969 C 111.046875 252.082031 111.109375 251.753906 111.230469 251.4375 C 111.355469 251.121094 111.53125 250.839844 111.757812 250.589844 C 111.917969 250.300781 112.121094 250.046875 112.371094 249.832031 C 112.625 249.613281 112.90625 249.449219 113.21875 249.335938 C 113.53125 249.226562 113.851562 249.171875 114.183594 249.179688 C 114.515625 249.183594 114.835938 249.25 115.140625 249.371094 C 120.105469 251.667969 124.617188 254.648438 128.679688 258.308594 C 128.898438 258.578125 129.066406 258.875 129.183594 259.199219 C 129.300781 259.523438 129.359375 259.859375 129.359375 260.207031 C 129.359375 260.550781 129.300781 260.886719 129.183594 261.214844 C 129.066406 261.539062 128.898438 261.835938 128.679688 262.101562 C 128.488281 262.515625 128.238281 262.890625 127.921875 263.21875 C 127.609375 263.550781 127.25 263.820312 126.84375 264.027344 C 126.4375 264.238281 126.011719 264.375 125.558594 264.4375 C 125.109375 264.503906 124.660156 264.492188 124.210938 264.40625 Z M 124.210938 264.40625 "/><path style=" stroke:none;fill-rule:nonzero;fill:#3e3d3f;fill-opacity:1;" d="M 382.753906 223.777344 C 382.550781 225.230469 382.152344 226.628906 381.5625 227.972656 C 380.972656 229.316406 380.210938 230.558594 379.28125 231.691406 C 378.351562 232.828125 377.28125 233.816406 376.078125 234.65625 C 374.875 235.496094 373.582031 236.15625 372.195312 236.640625 C 371.6875 236.777344 371.171875 236.828125 370.648438 236.796875 C 370.121094 236.765625 369.617188 236.652344 369.128906 236.457031 C 368.640625 236.261719 368.195312 235.996094 367.792969 235.65625 C 367.394531 235.316406 367.054688 234.921875 366.78125 234.476562 C 365.425781 232.171875 366.78125 230.546875 367.59375 228.652344 C 368.40625 226.753906 370.84375 225.941406 370.84375 223.097656 C 370.84375 220.253906 370.84375 214.566406 376.664062 214.296875 C 382.484375 214.023438 382.753906 217.953125 382.753906 223.777344 Z M 382.753906 223.777344 "/><path style=" stroke:none;fill-rule:nonzero;fill:#3e3d3f;fill-opacity:1;" d="M 351.351562 184.5 C 351.371094 184.785156 351.339844 185.0625 351.257812 185.335938 C 351.175781 185.609375 351.046875 185.859375 350.871094 186.085938 C 350.695312 186.308594 350.488281 186.496094 350.242188 186.644531 C 350 186.789062 349.734375 186.890625 349.453125 186.9375 C 349.066406 187.050781 348.675781 187.09375 348.273438 187.058594 C 347.871094 187.027344 347.488281 186.921875 347.125 186.746094 C 346.765625 186.570312 346.445312 186.335938 346.167969 186.042969 C 345.894531 185.75 345.679688 185.417969 345.527344 185.042969 C 342.871094 178.304688 339.441406 171.984375 335.242188 166.082031 C 333.753906 164.320312 335.242188 162.15625 337.136719 160.800781 C 337.578125 160.417969 338.074219 160.128906 338.621094 159.921875 C 339.167969 159.71875 339.734375 159.617188 340.316406 159.617188 C 340.902344 159.617188 341.46875 159.71875 342.015625 159.921875 C 342.5625 160.128906 343.054688 160.417969 343.5 160.800781 C 345.0625 162.085938 346.355469 163.601562 347.378906 165.347656 C 348.402344 167.09375 349.097656 168.964844 349.453125 170.957031 C 350.539062 174.886719 350.671875 179.082031 351.351562 184.5 Z M 351.351562 184.5 "/><path style=" stroke:none;fill-rule:nonzero;fill:#3e3d3f;fill-opacity:1;" d="M 271.484375 156.332031 C 268.554688 156.511719 265.621094 156.511719 262.6875 156.332031 C 262.351562 156.304688 262.023438 156.25 261.699219 156.160156 C 261.375 156.070312 261.0625 155.953125 260.761719 155.804688 C 260.457031 155.65625 260.175781 155.480469 259.90625 155.277344 C 259.636719 155.074219 259.390625 154.847656 259.167969 154.597656 C 258.941406 154.347656 258.742188 154.078125 258.570312 153.792969 C 258.394531 153.503906 258.25 153.203125 258.136719 152.886719 C 258.019531 152.570312 257.933594 152.246094 257.882812 151.914062 C 257.828125 151.585938 257.804688 151.25 257.8125 150.914062 C 257.773438 150.582031 257.765625 150.246094 257.800781 149.914062 C 257.832031 149.578125 257.902344 149.253906 258.007812 148.933594 C 258.117188 148.613281 258.257812 148.3125 258.429688 148.027344 C 258.605469 147.738281 258.808594 147.476562 259.042969 147.234375 C 259.277344 146.992188 259.535156 146.78125 259.816406 146.597656 C 260.097656 146.417969 260.398438 146.269531 260.714844 146.152344 C 261.027344 146.039062 261.351562 145.957031 261.6875 145.917969 C 262.019531 145.875 262.351562 145.871094 262.6875 145.902344 C 269.183594 145.574219 275.457031 146.613281 281.503906 149.019531 C 282.855469 149.019531 283.9375 150.371094 283.9375 151.726562 C 283.828125 152.414062 283.539062 153.015625 283.074219 153.53125 C 282.609375 154.046875 282.039062 154.394531 281.367188 154.570312 Z M 271.484375 156.332031 "/><path style=" stroke:none;fill-rule:nonzero;fill:#3e3d3f;fill-opacity:1;" d="M 362.042969 308.417969 C 362.011719 308.96875 361.902344 309.503906 361.707031 310.023438 C 361.515625 310.539062 361.25 311.015625 360.910156 311.449219 C 360.570312 311.886719 360.175781 312.261719 359.722656 312.574219 C 359.269531 312.890625 358.78125 313.128906 358.253906 313.292969 C 357.984375 313.414062 357.703125 313.503906 357.417969 313.5625 C 357.128906 313.621094 356.835938 313.648438 356.542969 313.648438 C 356.25 313.648438 355.957031 313.613281 355.671875 313.550781 C 355.382812 313.488281 355.105469 313.398438 354.835938 313.277344 C 354.570312 313.152344 354.316406 313.007812 354.082031 312.832031 C 353.84375 312.65625 353.625 312.460938 353.429688 312.238281 C 353.234375 312.019531 353.066406 311.78125 352.917969 311.527344 C 352.773438 311.269531 352.65625 311.003906 352.566406 310.722656 C 350.671875 305.441406 349.183594 299.886719 347.695312 294.46875 C 347.601562 294.144531 347.558594 293.808594 347.574219 293.46875 C 347.585938 293.128906 347.65625 292.800781 347.777344 292.480469 C 347.902344 292.164062 348.070312 291.871094 348.289062 291.609375 C 348.503906 291.347656 348.757812 291.128906 349.046875 290.949219 C 349.515625 290.621094 350.035156 290.457031 350.605469 290.457031 C 351.175781 290.457031 351.695312 290.621094 352.160156 290.949219 C 353.585938 291.945312 354.878906 293.085938 356.046875 294.371094 C 357.214844 295.65625 358.226562 297.054688 359.082031 298.566406 C 359.933594 300.074219 360.613281 301.664062 361.113281 303.328125 C 361.613281 304.988281 361.921875 306.6875 362.042969 308.417969 Z M 362.042969 308.417969 "/></g></svg>