<svg xmlns="http://www.w3.org/2000/svg" xmlns:xlink="http://www.w3.org/1999/xlink" width="768" zoomAndPan="magnify" viewBox="0 0 576 576" height="768" preserveAspectRatio="xMidYMid meet" version="1.2"><g id="178bd86621"><path style=" stroke:none;fill-rule:nonzero;fill:#252929;fill-opacity:1;" d="M 281.09375 459.085938 C 281.441406 454.621094 281.644531 451.9375 281.851562 449.25 C 281.914062 448.324219 282.042969 447.402344 282.035156 446.484375 C 282.003906 443.625 280.625 442.785156 276.710938 443.371094 C 277.539062 448.269531 277.953125 453.253906 281.09375 459.085938 Z M 272.878906 426.457031 C 272.214844 430.382812 273.371094 432.546875 274.730469 434.730469 C 276.789062 435.390625 278.742188 436.101562 280.730469 436.640625 C 281.914062 436.964844 283.363281 435.019531 282.886719 433.804688 C 282.644531 433.179688 282.351562 432.414062 281.835938 432.074219 C 279.164062 430.3125 276.417969 428.652344 272.878906 426.457031 Z M 297.894531 294.800781 C 298.75 293.644531 299.375 293.179688 299.46875 292.617188 C 300.742188 285.40625 301.9375 278.183594 303.300781 270.101562 C 301.765625 270.972656 300.703125 271.214844 300.355469 271.839844 C 299.476562 273.4375 298.488281 275.160156 298.308594 276.914062 C 297.707031 282.59375 297.484375 288.3125 297.894531 294.800781 Z M 289.992188 344.679688 C 292.167969 340.273438 292.285156 337.058594 291.765625 333.914062 C 291.527344 332.46875 290.285156 331.703125 289.328125 330.949219 C 286.296875 328.589844 282.816406 327.007812 280.378906 326.066406 C 283.585938 332.269531 286.789062 338.480469 289.992188 344.679688 Z M 300.832031 265.457031 C 304.011719 263.695312 304.574219 261.199219 305.160156 258.757812 C 307.160156 250.375 307.640625 244.417969 306.675781 240.816406 C 306.480469 240.863281 306.15625 240.863281 306.089844 240.980469 C 303.71875 245.910156 301.265625 250.816406 299.074219 255.835938 C 298.574219 256.980469 298.78125 258.578125 299.050781 259.886719 C 299.40625 261.65625 300.140625 263.355469 300.832031 265.457031 Z M 269.195312 309.667969 C 270.355469 315.585938 273.847656 318.253906 276.921875 321.203125 C 277.074219 321.34375 277.351562 321.421875 277.5625 321.429688 C 281.9375 321.613281 285.214844 324.417969 288.941406 326.15625 C 289.960938 326.621094 291.011719 327.230469 291.984375 325.625 C 291.726562 324.914062 291.34375 324.078125 291.117188 323.214844 C 290.101562 319.304688 287.453125 316.984375 283.835938 315.546875 C 279.367188 313.777344 274.914062 311.964844 269.195312 309.667969 Z M 301.15625 241.652344 C 304.058594 237.160156 306.511719 233.382812 308.925781 229.582031 C 309.28125 229.003906 309.582031 228.332031 309.683594 227.671875 C 310.734375 220.632812 311.78125 213.59375 312.746094 206.546875 C 312.839844 205.792969 313.015625 204.671875 311.34375 204.238281 C 306.929688 213.972656 303.757812 224.179688 300.871094 234.488281 C 300.332031 236.433594 299.558594 238.453125 301.15625 241.652344 Z M 267.191406 396.4375 C 268.503906 404.140625 269.804688 411.777344 271.132812 419.574219 C 275.730469 420.625 278.15625 425.097656 282.878906 425.816406 C 284.652344 422.671875 284.84375 419.742188 282.660156 416.738281 C 277.769531 410.03125 272.960938 403.261719 268.101562 396.53125 C 268.015625 396.414062 267.667969 396.476562 267.191406 396.4375 Z M 329.578125 184.480469 C 336.496094 175.21875 359.917969 132.070312 361.855469 125.582031 C 361.453125 125.621094 360.875 125.511719 360.6875 125.726562 C 349.894531 138.238281 342.109375 152.609375 335.0625 167.414062 C 333.28125 171.160156 331.820312 175.054688 330.371094 178.941406 C 329.902344 180.175781 329.96875 181.605469 329.578125 184.480469 Z M 319.320312 265.25 C 325.640625 258.039062 330.871094 252.207031 335.933594 246.242188 C 344.515625 236.140625 345.164062 234.671875 350.917969 228.097656 C 363.804688 213.386719 373.621094 205.359375 373.074219 204.71875 C 372.640625 204.214844 365.867188 208.496094 359.042969 214.523438 C 344.121094 227.6875 335.339844 243.445312 328.734375 248.117188 C 326.472656 249.71875 324.675781 251.894531 322.507812 253.613281 C 320.742188 255.003906 319.800781 256.679688 319.730469 258.90625 C 319.683594 260.488281 319.53125 262.066406 319.320312 265.25 Z M 202.773438 435.644531 C 202.21875 436.324219 206.980469 441.023438 209.804688 443.8125 C 214.140625 448.097656 217.851562 450.910156 223.546875 455.269531 C 230.539062 460.609375 234.90625 463.3125 236.535156 464.433594 C 236.535156 464.433594 239.28125 466.171875 241.886719 467.632812 C 245.707031 469.78125 258.726562 474.144531 276.835938 477.984375 C 271.242188 475.3125 264.195312 471.828125 256.148438 467.539062 C 247.160156 462.757812 240.4375 458.839844 238.277344 457.578125 C 215.992188 444.523438 203.617188 434.585938 202.773438 435.644531 Z M 286.148438 437.234375 C 286.628906 437.5 291.8125 429.980469 296.992188 420.675781 C 303.996094 408.089844 303.671875 403.808594 312.398438 388.867188 C 315.199219 384.070312 318.046875 379.292969 320.464844 374.308594 C 325.007812 364.960938 329.253906 355.472656 333.589844 346.015625 C 333.734375 345.707031 333.457031 345.210938 333.242188 344.136719 C 330.679688 349.019531 326.761719 352.304688 324.824219 357.171875 C 323.140625 361.414062 320.515625 365.292969 318.210938 369.273438 C 313.488281 377.445312 308.449219 385.4375 304.042969 393.773438 C 301.367188 398.828125 299.644531 404.390625 297.492188 409.722656 C 296.109375 413.160156 296.035156 413.578125 295.039062 416.148438 C 289.8125 429.648438 285.679688 436.980469 286.148438 437.234375 Z M 201.484375 380.460938 C 202.328125 382.292969 202.496094 382.902344 202.84375 383.367188 C 204.925781 386.109375 207.449219 388.605469 209.070312 391.59375 C 212.605469 398.078125 213.015625 396.726562 219.851562 403.863281 C 232.105469 416.652344 232.691406 413.699219 240.34375 422.40625 C 242.382812 424.726562 247.375 426.890625 252.429688 431.324219 C 252.984375 431.804688 254.003906 431.757812 255.339844 432.089844 C 255.152344 430.4375 255.066406 429.324219 254.898438 428.234375 C 254.089844 423.148438 251.828125 419.679688 246.625 417.417969 C 238.109375 413.730469 230.730469 408.097656 224.425781 401.160156 C 221.789062 398.253906 218.964844 395.519531 216.199219 392.738281 C 211.980469 388.519531 207.132812 385.089844 201.484375 380.460938 Z M 366.3125 298.371094 C 366.3125 298.371094 353.984375 304.351562 346.738281 308.75 C 345.773438 309.328125 344.832031 309.9375 343.9375 310.597656 C 341.714844 312.234375 339.507812 313.878906 337.324219 315.554688 C 333.6875 318.351562 330.046875 321.128906 326.464844 324 C 321.414062 328.035156 316.582031 332.363281 311.320312 336.101562 C 309.414062 337.460938 307.46875 338.496094 306.40625 340.660156 C 305.324219 342.863281 303.964844 344.964844 303.75 347.613281 C 304.605469 347.542969 305.160156 347.667969 305.433594 347.4375 C 312.894531 341.585938 320.261719 335.621094 327.761719 329.835938 C 334.160156 324.898438 340.6875 320.144531 347.183594 315.347656 C 351.082031 312.464844 355.039062 309.660156 358.960938 306.824219 C 362.734375 304.089844 363.414062 303.535156 364.753906 302.566406 C 375.90625 294.460938 384.785156 290.089844 384.601562 289.75 C 384.460938 289.480469 378.789062 292.539062 366.3125 298.371094 Z M 287.5625 353.167969 C 287.707031 352.566406 288.007812 352.082031 287.878906 351.761719 C 287.113281 349.832031 286.386719 347.855469 285.394531 346.039062 C 278.078125 332.585938 269.519531 319.976562 259.589844 308.300781 C 258.710938 307.257812 257.746094 306.238281 257.097656 305.070312 C 251.6875 295.375 246.300781 285.675781 241 275.933594 C 238.246094 270.859375 235.722656 265.664062 233 260.574219 C 231.503906 257.792969 230.144531 254.855469 226.734375 252.628906 C 226.863281 254.144531 226.6875 255.132812 227.035156 255.859375 C 232.050781 266.285156 236.949219 276.777344 242.273438 287.050781 C 247.890625 297.886719 246.75 295.660156 254.441406 308.0625 C 258.125 314.019531 262.230469 320.601562 268.300781 328.652344 C 271.296875 332.625 270.878906 331.953125 272.953125 334.65625 C 277.328125 340.351562 281.644531 346.101562 286.003906 351.816406 C 286.402344 352.320312 286.996094 352.675781 287.5625 353.167969 Z M 291.070312 469.425781 C 294.382812 468.761719 296.234375 466.742188 297.847656 464.480469 C 301.628906 459.179688 304.644531 453.445312 307.152344 447.441406 C 308.488281 444.234375 309.929688 441.082031 311.3125 437.898438 C 314.273438 431.101562 317.230469 424.316406 320.179688 417.523438 C 323.3125 410.308594 326.121094 402.9375 329.644531 395.921875 C 335.355469 384.546875 341.542969 373.40625 347.484375 362.148438 C 347.855469 361.445312 348.683594 360.625 347.507812 359.382812 C 345.511719 361.945312 343.433594 364.359375 341.621094 366.976562 C 338.984375 370.769531 336.160156 374.503906 334.097656 378.605469 C 330.039062 386.671875 326.4375 394.964844 322.664062 403.175781 C 318.890625 411.367188 315.238281 419.617188 311.320312 427.730469 C 309.421875 431.6875 306.835938 435.304688 304.914062 439.253906 C 301.875 445.488281 299.144531 451.878906 296.257812 458.191406 C 294.550781 461.945312 292.800781 465.683594 291.070312 469.425781 Z M 307.4375 31.347656 C 305.230469 34.105469 304.160156 37.320312 303.339844 40.589844 C 300.410156 52.222656 297.738281 63.898438 296.027344 75.796875 C 294.589844 85.875 293.078125 95.941406 293.496094 106.140625 C 293.78125 113.304688 293.703125 120.449219 293.449219 127.605469 C 293.339844 130.742188 293.617188 133.894531 293.726562 137.039062 C 295.023438 132.054688 295.585938 127.027344 296.140625 122.003906 C 296.425781 119.484375 296.621094 116.957031 296.976562 114.453125 C 298.046875 107.136719 299.167969 99.835938 300.261719 92.527344 C 302.074219 80.441406 303.355469 68.265625 305.933594 56.296875 C 306.566406 53.375 307.089844 50.363281 307.160156 47.386719 C 307.285156 42.109375 308.949219 36.902344 307.4375 31.347656 Z M 335.363281 77.34375 C 333.597656 77.121094 333.0625 78.449219 332.46875 79.675781 C 329.484375 85.898438 326.660156 92.210938 323.503906 98.359375 C 318.921875 107.261719 316.652344 116.980469 313.332031 126.324219 C 311.714844 130.859375 310.363281 135.570312 309.550781 140.308594 C 308.070312 148.992188 305.773438 157.40625 302.808594 165.667969 C 302.035156 167.832031 302.199219 168.195312 301.636719 170.457031 C 299.992188 177.179688 297.539062 186.785156 294.128906 198.960938 C 297.507812 193.097656 302.390625 183.832031 306.796875 171.800781 C 309.660156 164 309.984375 161.410156 314.546875 145.949219 C 319.058594 130.710938 320.109375 128.601562 325.339844 111.648438 C 327.832031 103.558594 331.351562 91.816406 335.363281 77.34375 Z M 299.898438 308.796875 C 306.992188 288.746094 310.800781 278.3125 312.980469 272.472656 C 313.164062 271.976562 313.679688 271.050781 313.964844 269.699219 C 315.417969 262.90625 316.992188 256.128906 318.03125 249.261719 C 320.609375 232.140625 320.773438 233.414062 322.222656 216.886719 C 323.363281 203.875 322.476562 206.578125 323.296875 201.101562 C 325.394531 187.117188 326.527344 179.28125 328.046875 166.070312 C 328.125 165.335938 327.816406 164.554688 327.460938 162.492188 C 326.527344 164.523438 326.027344 165.273438 325.820312 166.085938 C 325.15625 168.773438 324.621094 171.492188 323.996094 174.183594 C 322.371094 181.175781 320.292969 188.089844 319.207031 195.152344 C 317.054688 209.113281 315.457031 223.152344 313.613281 237.160156 C 313.457031 238.335938 313.257812 239.054688 312.964844 240.5625 C 310.609375 252.675781 306.714844 272.90625 299.898438 308.796875 Z M 230.707031 145.058594 C 230.613281 145.917969 230.4375 146.375 230.546875 146.746094 C 230.816406 147.625 231.1875 148.476562 231.570312 149.316406 C 237.210938 161.882812 245.730469 172.613281 254.050781 183.390625 C 267.191406 200.398438 274.953125 207.933594 278.742188 213.347656 C 289.550781 228.792969 294.953125 241.054688 295.902344 240.59375 C 296.796875 240.167969 292.453125 229.226562 289.460938 222.457031 C 287.660156 218.378906 284.152344 211.871094 279.644531 203.351562 C 273.847656 192.394531 264.804688 183.910156 257.183594 174.351562 C 250.714844 166.222656 243.453125 158.734375 236.570312 150.933594 C 234.78125 148.914062 233.191406 146.699219 230.707031 145.058594 Z M 288.363281 179.46875 C 286.742188 174.574219 278.464844 150.691406 277.46875 147.125 C 277.429688 147 277.253906 146.390625 277.003906 145.578125 C 276.695312 144.589844 276.195312 143.167969 275.363281 141.257812 C 270.40625 129.769531 266.394531 117.953125 262.613281 106.054688 C 261.210938 101.644531 259.742188 97.261719 258.207031 92.898438 C 257.945312 92.164062 257.191406 91.613281 256.164062 90.363281 C 255.972656 92.125 255.699219 93.035156 255.808594 93.894531 C 256.339844 98.011719 256.734375 102.167969 257.605469 106.21875 C 263.109375 131.957031 272.191406 156.859375 281.335938 181.546875 C 290.425781 206.109375 292.660156 213.402344 293.6875 213.132812 C 295.214844 212.730469 293.75 195.746094 288.363281 179.46875 Z M 251.851562 369.921875 C 251.765625 371.390625 251.625 372.6875 251.632812 373.984375 C 251.671875 377.917969 251.988281 381.859375 251.78125 385.769531 C 251.394531 393.253906 252.699219 400.527344 254.503906 407.671875 C 256.527344 415.710938 258.941406 423.667969 261.589844 431.519531 C 264.765625 440.921875 268.253906 450.214844 271.835938 459.457031 C 273.246094 463.105469 275.246094 466.527344 277.050781 470.011719 C 277.429688 470.761719 277.871094 471.734375 279.597656 471.292969 C 279.597656 470.167969 279.859375 468.84375 279.558594 467.671875 C 276.851562 457.332031 274.242188 448.316406 274.242188 448.316406 C 269.953125 438.511719 267.691406 429.402344 266.125 423.050781 C 263.65625 413.082031 265.015625 412.972656 261.558594 399.992188 C 260.074219 394.414062 258.617188 388.828125 257.074219 383.265625 C 255.902344 379.054688 254.636719 374.875 253.347656 370.703125 C 253.261719 370.421875 252.613281 370.308594 251.851562 369.921875 Z M 273.703125 22.292969 C 273.207031 22.308594 272.707031 22.328125 272.214844 22.34375 C 272.128906 23.90625 271.921875 25.476562 271.972656 27.042969 C 272.460938 42.558594 275.054688 57.855469 277.066406 73.203125 C 278.59375 84.871094 280.609375 96.476562 282.414062 108.109375 C 288.871094 149.8125 291.09375 170.257812 291.914062 170.171875 C 292.5625 170.109375 291.101562 157.097656 290.070312 126.703125 C 289.835938 119.730469 290.070312 115.421875 289.136719 108.730469 C 287.824219 99.355469 286.921875 89.9375 284.898438 80.660156 C 281.605469 65.539062 278.519531 50.371094 276.417969 35.023438 C 275.832031 30.730469 274.628906 26.527344 273.703125 22.292969 Z M 365.265625 245.121094 C 364.855469 245.21875 364.332031 245.175781 364.058594 245.421875 C 354.546875 253.574219 345.457031 262.125 338.441406 272.613281 C 335.488281 277.03125 332.476562 281.390625 329.515625 285.800781 C 325.902344 291.171875 322.277344 296.527344 318.742188 301.957031 C 318.355469 302.550781 318.726562 302.003906 316.21875 306.863281 C 308.820312 321.179688 306.050781 326.101562 303.21875 330.769531 C 302.128906 332.570312 302.429688 332.175781 301.574219 333.4375 C 297.335938 339.726562 295.023438 346.632812 293.828125 354.003906 C 293.695312 354.816406 293.535156 355.945312 295.355469 355.953125 C 297.292969 352.746094 299.128906 349.328125 300.402344 345.605469 C 301.496094 342.398438 302.902344 339.371094 304.652344 336.519531 C 305.824219 334.617188 306.84375 333.28125 307.214844 332.800781 C 311.789062 326.789062 317.546875 317.371094 327.515625 302.691406 C 334.652344 292.199219 333.726562 296.09375 343.8125 279.449219 C 348.960938 270.964844 353.875 262.296875 360.292969 254.617188 C 362.347656 252.160156 363.742188 249.160156 365.378906 246.363281 C 365.550781 246.078125 365.316406 245.539062 365.265625 245.121094 Z M 247.359375 346.207031 C 239.519531 337.207031 238.292969 335.769531 234.234375 331.03125 C 231.238281 327.523438 228.339844 323.925781 225.351562 320.417969 C 224.851562 319.835938 224.09375 319.472656 222.78125 318.492188 C 227.179688 328.25 237.234375 342.328125 245.578125 350.695312 C 247.445312 352.289062 249.90625 354.660156 252.34375 357.898438 C 255.332031 361.878906 256.964844 365.410156 258.148438 368.042969 C 260.089844 372.308594 260.421875 372.417969 262.050781 378.398438 C 263.101562 382.269531 264.9375 385.691406 267.019531 389.019531 C 269.351562 392.730469 271.671875 396.492188 274.382812 399.921875 C 277.320312 403.632812 280.703125 406.984375 284.644531 411.3125 C 283.386719 405.886719 281.511719 399.53125 278.648438 392.636719 C 270.253906 372.472656 257.566406 357.914062 247.359375 346.207031 Z M 250 218.964844 C 249.96875 218.773438 249.976562 218.570312 249.90625 218.402344 C 249.851562 218.269531 249.691406 218.183594 249.582031 218.070312 C 249.78125 218.316406 249.96875 218.5625 250.160156 218.804688 C 250.253906 220.1875 250.097656 221.632812 250.476562 222.9375 C 252.074219 228.476562 253.664062 234.039062 255.570312 239.472656 C 257.714844 245.574219 260.183594 251.554688 262.53125 257.582031 C 263.539062 260.148438 264.3125 262.859375 265.664062 265.234375 C 270.339844 273.46875 275.0625 281.675781 280.070312 289.710938 C 283.863281 295.800781 287.902344 301.679688 289.613281 308.820312 C 289.921875 310.117188 290.246094 312.0625 292.660156 312.171875 C 292.660156 311.199219 292.894531 310.242188 292.617188 309.453125 C 291.351562 305.804688 291.410156 301.054688 286.027344 291.203125 C 282.214844 284.21875 280.625 282.679688 276.378906 274.351562 C 275.632812 272.882812 275.183594 271.769531 274.535156 270.625 C 267.289062 257.738281 260.707031 244.59375 255.40625 230.765625 C 253.871094 226.769531 253.238281 222.234375 250 218.964844 Z M 349.683594 414.371094 C 347.554688 414.140625 346.25 415.445312 344.984375 416.84375 C 338.652344 423.890625 332.308594 430.921875 325.988281 437.976562 C 325.371094 438.664062 324.808594 439.398438 324.28125 440.148438 C 317.578125 449.613281 309.824219 458.136719 301.660156 466.328125 C 297.414062 470.582031 293.417969 475.074219 289.359375 479.507812 C 288.988281 479.910156 288.980469 480.652344 288.535156 482.089844 C 290.363281 481.144531 291.621094 480.714844 292.601562 479.941406 C 304.523438 470.660156 315.253906 460.175781 324.304688 448.066406 C 332.191406 437.507812 339.960938 426.875 347.808594 416.289062 C 348.34375 415.5625 349.066406 414.96875 349.699219 414.25 C 349.667969 413.863281 349.632812 413.46875 349.601562 413.082031 C 349.625 413.507812 349.652344 413.941406 349.683594 414.371094 Z M 250.601562 314.574219 C 252.359375 315.261719 253.886719 315.828125 255.113281 316.273438 C 254.148438 313.402344 253.214844 311.246094 251.417969 309.914062 C 250.292969 309.066406 249.203125 308.8125 248.886719 308.726562 C 241.886719 306.800781 210.628906 290.152344 209.867188 291.527344 C 209.265625 292.601562 227.144531 305.386719 250.601562 314.574219 Z M 276.636719 484.089844 C 267.53125 479.808594 258.6875 477.011719 249.636719 475.121094 C 241.625 473.449219 234.984375 469.523438 228.738281 464.632812 C 222.351562 459.628906 216.015625 454.574219 209.703125 449.488281 C 207.714844 447.890625 205.683594 446.292969 204.015625 444.390625 C 198.667969 438.300781 193.910156 431.75 189.65625 424.84375 C 188.847656 423.527344 188.484375 422.292969 189.734375 421.117188 C 191.046875 419.882812 192.960938 419.574219 194.21875 420.304688 C 194.617188 420.539062 195.027344 420.792969 195.335938 421.125 C 203.390625 429.964844 213.933594 435.496094 223.5 442.335938 C 226.316406 444.359375 229.070312 446.460938 231.84375 448.539062 C 232.582031 449.089844 233.222656 449.800781 234.011719 450.230469 C 241.339844 454.171875 248.671875 458.097656 256.039062 461.953125 C 260.902344 464.503906 265.832031 466.929688 271.304688 469.703125 C 271.265625 466.070312 269.25 463.691406 268.164062 461.042969 C 266.941406 458.050781 265.40625 455.175781 264.050781 452.226562 C 262.792969 449.488281 261.617188 446.722656 260.398438 443.964844 C 252.785156 439.808594 246.882812 433.472656 239.945312 428.519531 C 225.613281 418.273438 214.640625 404.738281 203.539062 391.394531 C 198.683594 385.550781 194.996094 378.730469 190.792969 372.339844 C 189.65625 370.601562 188.570312 368.824219 187.527344 367.03125 C 186.460938 365.191406 186.972656 363.359375 188.777344 362.257812 C 190.484375 361.222656 192.21875 361.707031 193.515625 363.585938 C 193.652344 363.777344 193.824219 363.957031 193.894531 364.171875 C 196.125 370.71875 201.910156 374.078125 206.664062 378.351562 C 210.429688 381.75 214.273438 385.058594 218.023438 388.472656 C 223.160156 393.148438 228.078125 398.078125 233.402344 402.535156 C 237.105469 405.632812 241.292969 408.183594 245.359375 410.832031 C 246.425781 411.527344 247.851562 411.652344 249.472656 412.148438 C 249.472656 410.324219 249.605469 408.964844 249.449219 407.648438 C 248.371094 398.925781 247.011719 390.226562 246.195312 381.472656 C 245.753906 376.652344 246 371.738281 246.300781 366.890625 C 246.65625 361.042969 245.222656 356.074219 241.1875 351.601562 C 237.953125 348 235.691406 343.542969 232.511719 339.886719 C 227.304688 333.90625 223.671875 326.875 218.933594 320.601562 C 218.238281 319.675781 217.675781 318.65625 217.140625 317.628906 C 215.53125 314.558594 213.988281 311.453125 212.390625 308.378906 C 211.742188 307.132812 210.875 305.773438 212.367188 304.699219 C 213.785156 303.679688 214.996094 304.855469 216.03125 305.703125 C 216.910156 306.429688 217.613281 307.382812 218.371094 308.253906 C 228.886719 320.300781 239.433594 332.324219 249.90625 344.40625 C 254.757812 350.015625 259.527344 355.679688 264.226562 361.414062 C 270.746094 369.355469 275.429688 378.414062 279.828125 387.621094 C 281.109375 390.304688 282.214844 393.085938 284.621094 395.90625 C 285.160156 394.578125 285.65625 393.84375 285.753906 393.0625 C 286.78125 384.792969 287.746094 376.511719 288.710938 368.230469 C 289.167969 364.359375 288.023438 360.8125 285.839844 357.773438 C 278.148438 347.035156 270.261719 336.433594 262.476562 325.753906 C 260.785156 323.4375 258.578125 321.867188 256 320.671875 C 252.429688 319.019531 248.886719 317.308594 245.398438 315.488281 C 229.945312 307.464844 215.230469 298.195312 200.691406 288.652344 C 198.5625 287.253906 196.378906 285.925781 194.21875 284.558594 C 193.445312 284.070312 192.589844 283.667969 191.910156 283.058594 C 191.371094 282.585938 190.84375 281.449219 191.046875 281.050781 C 192.003906 279.171875 212.328125 287.679688 218.292969 290.191406 C 225.375 293.179688 235.144531 297.390625 246.820312 302.699219 C 237.027344 282.902344 226.039062 264.167969 219.710938 243.472656 C 222.351562 241.496094 223.300781 241.355469 224.550781 242.6875 C 225.175781 243.359375 225.746094 244.109375 226.253906 244.886719 C 231.609375 253.007812 237.050781 261.074219 242.25 269.289062 C 246.078125 275.339844 249.550781 281.621094 253.230469 287.769531 C 255.722656 291.9375 258.285156 296.078125 260.855469 300.203125 C 262.746094 303.246094 265.292969 305.339844 268.839844 306.492188 C 274.519531 308.339844 280.054688 310.625 286.09375 312.882812 C 286.210938 311.792969 286.519531 310.921875 286.34375 310.164062 C 285.046875 304.429688 282.207031 299.375 279.152344 294.425781 C 275.269531 288.117188 271.425781 281.78125 267.5 275.492188 C 262.816406 267.984375 259.066406 260.054688 256.203125 251.679688 C 252.160156 239.84375 247.628906 228.167969 245.035156 215.882812 C 244.171875 211.824219 242.800781 207.878906 241.789062 203.84375 C 241.527344 202.808594 241.75 201.648438 241.75 200.367188 C 244.960938 199.78125 247.042969 200.738281 248.09375 203.464844 C 252.929688 216.023438 260.316406 227.378906 265.324219 239.859375 C 267.832031 246.085938 270.617188 252.207031 273.523438 258.269531 C 280.429688 272.6875 283.355469 276.613281 287.636719 286.945312 C 289.613281 291.726562 292.261719 298.835938 294.574219 307.914062 C 295.988281 288.820312 295.417969 273.382812 294.558594 262.503906 C 293.78125 252.636719 293.25 248.613281 292.300781 246.140625 C 287.652344 234.054688 282.375 222.378906 273.8125 212.195312 C 250.976562 185 247.507812 183.230469 237.890625 167.050781 C 229.679688 153.25 222.78125 136.4375 225.390625 134.738281 C 228.679688 132.605469 247.074219 154.664062 254.726562 163.835938 C 264.828125 175.945312 271.015625 183.730469 273.871094 187.601562 C 275.183594 189.378906 276.140625 190.46875 277.289062 191.96875 C 284.011719 200.785156 286.171875 204.933594 286.589844 204.71875 C 287.683594 204.175781 273.179688 176.683594 265.523438 148.847656 C 264.960938 146.789062 264.976562 145.160156 262.644531 138.128906 C 259.503906 128.664062 257.429688 118.929688 255.160156 109.261719 C 252.816406 99.304688 251.890625 89.164062 252.367188 78.921875 C 252.398438 78.253906 252.589844 77.558594 252.875 76.957031 C 253.046875 76.59375 253.554688 76.386719 254.101562 75.96875 C 256.65625 76.648438 258.085938 78.355469 259.035156 80.984375 C 265.722656 99.480469 272.753906 117.863281 279.242188 136.429688 C 281.84375 143.871094 288.402344 172.011719 289.375 171.792969 C 289.550781 171.761719 289.753906 170.820312 285 142.664062 C 281.636719 122.761719 281.765625 126.128906 280.632812 117.351562 C 278.855469 103.574219 276.496094 89.875 274.375 76.144531 C 274.164062 74.777344 273.871094 73.417969 273.6875 72.035156 C 272.027344 58.945312 269.945312 45.886719 268.878906 32.746094 C 268.070312 22.847656 268.539062 12.839844 268.554688 2.875 C 268.554688 2.132812 269.265625 1.082031 269.945312 0.71875 C 271.125 0.09375 272.3125 0.867188 272.832031 1.886719 C 273.671875 3.515625 274.375 5.269531 274.789062 7.039062 C 278.855469 24.886719 282.484375 42.8125 285.277344 60.902344 C 286.542969 69.105469 288.0625 77.257812 289.476562 85.535156 C 291.703125 84.660156 291.464844 82.890625 291.734375 81.390625 C 293.59375 70.90625 295.175781 60.375 297.351562 49.953125 C 298.820312 42.945312 300.941406 36.058594 303.09375 29.207031 C 304.183594 25.738281 305.765625 22.359375 308.496094 19.539062 C 310.957031 20.058594 312.082031 21.332031 312.492188 23.699219 C 314.207031 33.671875 312.585938 43.523438 311.351562 53.34375 C 309.90625 64.820312 307.816406 76.222656 306.117188 87.675781 C 304.582031 97.980469 303.054688 108.28125 301.78125 118.613281 C 300.570312 128.488281 299.921875 138.4375 298.59375 148.296875 C 297.484375 156.550781 296.351562 164.792969 296.25 174.445312 C 297.894531 169.398438 299.25 165.574219 300.363281 161.679688 C 301.574219 157.453125 302.683594 153.1875 303.609375 148.890625 C 308.640625 125.410156 317.054688 103.136719 327.785156 81.726562 C 330.15625 77.011719 333.582031 72.816406 336.597656 68.433594 C 337.078125 67.730469 337.980469 67.308594 338.796875 66.6875 C 341.574219 67.980469 341.882812 70.140625 341.203125 72.539062 C 340.703125 74.308594 339.769531 75.953125 339.199219 77.714844 C 336.503906 86.082031 333.898438 94.480469 331.1875 102.839844 C 327.679688 113.628906 324.074219 124.390625 320.585938 135.191406 C 319.730469 137.828125 319.144531 140.554688 318.425781 143.238281 C 316.058594 152.183594 314.214844 161.316406 311.15625 170.015625 C 308.71875 176.949219 306.636719 184.035156 303.285156 190.738281 C 300.101562 197.097656 298.585938 204.292969 297.96875 211.46875 C 297.609375 215.597656 297.894531 219.777344 297.894531 223.839844 C 299.5 224.375 299.699219 223.308594 300.070312 222.527344 C 304.90625 212.265625 309.808594 202.035156 314.5 191.699219 C 315.625 189.210938 316.15625 186.414062 316.730469 183.707031 C 319.074219 172.796875 322.554688 162.265625 326.984375 152.039062 C 327.429688 151.007812 328.0625 150.050781 328.566406 149.117188 C 333.234375 150.570312 334.121094 151.628906 333.257812 155.25 C 332.710938 157.515625 332.238281 159.703125 332.59375 161.996094 C 334.691406 162.058594 334.929688 160.453125 335.546875 159.324219 C 338.789062 153.445312 341.582031 147.269531 345.300781 141.707031 C 350.308594 134.21875 355.949219 127.132812 361.460938 119.988281 C 362.957031 118.0625 364.617188 115.96875 367.417969 115.84375 C 369.191406 117.507812 368.945312 119.398438 368.566406 121.144531 C 368.1875 122.9375 367.480469 124.683594 366.761719 126.390625 C 361.628906 138.570312 356.273438 150.609375 348.589844 161.503906 C 344.722656 166.988281 341.175781 172.738281 337.980469 178.632812 C 334.34375 185.339844 330.894531 192.207031 328.054688 199.277344 C 326.535156 203.054688 326.25 207.382812 325.765625 211.507812 C 324.429688 223.015625 323.289062 234.542969 322.097656 246.0625 C 322.046875 246.480469 322.285156 246.929688 322.507812 247.816406 C 323.320312 247.507812 324.28125 247.414062 324.808594 246.890625 C 327.585938 244.117188 330.65625 241.519531 332.886719 238.34375 C 337.429688 231.847656 342.816406 226.097656 348.109375 220.277344 C 352.316406 215.652344 356.808594 211.316406 362.164062 207.902344 C 364.878906 206.171875 367.253906 203.859375 369.570312 201.605469 C 372.765625 198.503906 376.421875 196.164062 380.171875 194.277344 C 382.441406 194.929688 382.878906 196.472656 382.503906 198.171875 C 382.269531 199.253906 381.652344 200.359375 380.90625 201.1875 C 373.605469 209.269531 366.445312 217.488281 358.804688 225.222656 C 356.113281 227.945312 354.800781 231.4375 352.207031 234.085938 C 349.617188 236.714844 346.960938 239.300781 344.59375 242.121094 C 340.726562 246.734375 337.101562 251.535156 333.320312 256.214844 C 331.28125 258.734375 329.121094 261.160156 327 263.617188 C 324.429688 266.59375 321.945312 269.652344 319.246094 272.503906 C 317.292969 274.582031 315.957031 276.859375 314.976562 279.542969 C 314.074219 282.007812 313.164062 284.464844 312.238281 286.921875 C 309.652344 293.773438 307.429688 298.921875 303.933594 308.75 C 302.292969 313.339844 300.140625 319.960938 298.125 328.289062 C 301.527344 321.984375 306.019531 313.839844 311.464844 304.398438 C 320.164062 289.308594 324.714844 281.644531 330.925781 273.160156 C 339.4375 261.539062 349.300781 251.078125 360.480469 241.898438 C 362.980469 239.84375 365.355469 237.617188 367.839844 235.523438 C 369.5625 234.0625 369.601562 234.09375 373.765625 234.410156 C 374.730469 236.898438 374.144531 239.332031 372.964844 241.628906 C 371.28125 244.925781 369.585938 248.242188 367.601562 251.371094 C 362.507812 259.390625 357.246094 267.304688 352.0625 275.269531 C 347.894531 281.675781 343.789062 288.117188 339.546875 294.484375 C 337.5 297.5625 335.363281 300.597656 333.027344 303.464844 C 327.917969 309.730469 323.023438 316.144531 318.519531 322.828125 C 319.722656 324.28125 320.339844 323.003906 320.863281 322.5625 C 329.738281 315.070312 339.5 308.796875 349.066406 302.28125 C 353.074219 299.554688 357.515625 297.421875 361.898438 295.320312 C 369 291.914062 376.191406 288.691406 383.40625 285.546875 C 384.554688 285.050781 386.230469 284.949219 387.347656 285.40625 C 389.308594 286.203125 389.957031 288.34375 389.175781 290.011719 C 388.753906 290.894531 388.019531 291.394531 387.78125 291.535156 C 381.570312 295.226562 353.117188 314.808594 347.183594 320.128906 C 346.753906 320.523438 345.457031 321.761719 343.496094 323.289062 C 341.503906 324.835938 339.445312 326.304688 337.402344 327.796875 C 336.476562 328.476562 335.472656 329.070312 334.59375 329.804688 C 325.046875 337.878906 315.363281 345.796875 305.0625 352.914062 C 303.617188 353.910156 302.585938 354.605469 301.203125 355.882812 C 296.574219 360.175781 294.113281 365.5 292.871094 368.183594 C 292.652344 368.683594 292.359375 369.039062 292.246094 369.621094 C 291.726562 372.347656 290.71875 375.011719 290.460938 377.742188 C 289.792969 384.65625 289.4375 391.601562 288.949219 398.539062 C 288.71875 401.761719 288.363281 404.992188 288.226562 408.222656 C 288.109375 411.195312 288.203125 414.179688 288.203125 417.007812 C 289.652344 417.6875 290.230469 416.960938 290.585938 416.085938 C 292.003906 412.65625 293.285156 409.179688 294.753906 405.78125 C 297.230469 400.039062 299.421875 394.128906 302.421875 388.671875 C 309.34375 376.078125 316.457031 363.578125 323.914062 351.300781 C 328.234375 344.199219 332.761719 337.113281 339.097656 331.488281 C 340.117188 330.578125 341.21875 329.757812 342.261719 328.914062 C 345.828125 332.214844 346.027344 332.902344 344.152344 335.808594 C 343.527344 336.78125 342.863281 337.761719 342.039062 338.566406 C 338.15625 342.4375 335.8125 347.289062 334.035156 352.265625 C 330.203125 363.003906 325.332031 373.273438 319.582031 383.03125 C 313.324219 393.648438 308.171875 404.738281 303.046875 415.902344 C 299.667969 423.257812 295.671875 430.328125 291.945312 437.535156 C 290.039062 441.238281 288.078125 444.921875 286.25 448.664062 C 285.753906 449.667969 285.5 450.851562 285.386719 451.976562 C 284.890625 457.03125 284.460938 462.09375 284.082031 467.160156 C 284.042969 467.75 284.496094 468.375 284.675781 468.867188 C 286.15625 469.371094 286.519531 468.273438 286.867188 467.554688 C 288.472656 464.210938 289.882812 460.777344 291.527344 457.464844 C 296.890625 446.675781 302.382812 435.953125 307.707031 425.152344 C 311.90625 416.636719 315.917969 408.027344 320.054688 399.484375 C 324.492188 390.3125 328.980469 381.164062 333.457031 372.007812 C 333.867188 371.179688 334.285156 370.324219 334.863281 369.613281 C 338.960938 364.589844 343.132812 359.628906 347.199219 354.589844 C 350.378906 350.636719 353.457031 346.601562 356.550781 342.636719 C 358.597656 342.832031 358.789062 344.359375 358.472656 345.667969 C 358.109375 347.21875 357.277344 348.671875 356.550781 350.109375 C 348.875 365.191406 341.089844 380.207031 333.550781 395.355469 C 329.832031 402.804688 326.1875 410.339844 323.203125 418.097656 C 319.621094 427.421875 315.765625 436.578125 311.21875 445.464844 C 310.316406 447.21875 309.144531 448.933594 309.785156 451.554688 C 314.335938 448.253906 317.230469 444.058594 320.488281 440.21875 C 330.394531 428.558594 340.1875 416.804688 350.101562 405.15625 C 353.234375 401.476562 356.628906 398.015625 360.488281 395.1875 C 362.894531 396.398438 362.855469 398.152344 362.238281 400.015625 C 362.023438 400.664062 361.582031 401.238281 361.199219 401.816406 C 355.234375 410.925781 349.300781 420.050781 343.25 429.113281 C 341.851562 431.222656 340.03125 433.0625 338.433594 435.042969 C 335.972656 438.117188 333.3125 441.066406 331.113281 444.3125 C 323.402344 455.703125 314.222656 465.753906 304.367188 475.320312 C 298.671875 480.851562 293.0625 486.277344 285.777344 489.652344 C 283.601562 490.664062 282.976562 492.582031 282.53125 494.675781 C 280.988281 501.953125 278.386719 508.890625 275.777344 515.824219 C 274.714844 518.628906 273.5625 521.410156 272.359375 524.160156 C 267.375 535.632812 264.730469 547.933594 259.683594 559.386719 C 257.53125 564.253906 255.667969 569.238281 253.648438 574.167969 C 253.167969 575.328125 252.320312 576.175781 250.992188 575.835938 C 249.542969 575.472656 248.417969 574.476562 248.578125 572.898438 C 248.726562 571.316406 249.085938 569.671875 249.742188 568.234375 C 256.875 552.609375 261.355469 535.980469 268.03125 520.171875 C 270.355469 514.664062 271.496094 508.644531 273.054688 502.835938 C 274.195312 498.585938 275.222656 494.304688 276.132812 490.007812 C 276.511719 488.230469 276.457031 486.371094 276.636719 484.089844 "/></g></svg>