<svg xmlns="http://www.w3.org/2000/svg" xmlns:xlink="http://www.w3.org/1999/xlink" width="768" zoomAndPan="magnify" viewBox="0 0 576 576" height="768" preserveAspectRatio="xMidYMid meet" version="1.2"><defs><clipPath id="afd0f58ebf"><path d="M 95.039062 0 L 481.289062 0 L 481.289062 576 L 95.039062 576 Z M 95.039062 0 "/></clipPath></defs><g id="42569b7a2a"><g clip-rule="nonzero" clip-path="url(#afd0f58ebf)"><path style=" stroke:none;fill-rule:evenodd;fill:#000000;fill-opacity:1;" d="M 160.800781 209.253906 C 160.652344 209.195312 160.511719 209.09375 160.398438 208.96875 C 159.601562 208.113281 160.269531 207.34375 160.351562 207.261719 C 160.511719 207.089844 160.996094 206.628906 161.769531 207.011719 C 161.90625 207.078125 162.769531 207.746094 163.09375 208.023438 C 163.667969 208.519531 164.246094 209.011719 164.820312 209.507812 C 166.722656 211.140625 168.613281 212.800781 170.5 214.457031 C 176.445312 219.730469 182.125 225.324219 187.691406 230.976562 C 203.785156 247.296875 218.71875 265.394531 229.015625 285.996094 C 229.316406 286.597656 229.074219 287.308594 228.476562 287.609375 C 227.886719 287.90625 227.160156 287.667969 226.863281 287.066406 C 216.675781 266.695312 201.894531 248.804688 185.972656 232.65625 C 180.433594 227.039062 174.800781 221.46875 168.898438 216.242188 C 167.035156 214.585938 165.144531 212.9375 163.253906 211.316406 C 162.679688 210.820312 162.101562 210.324219 161.527344 209.832031 C 161.378906 209.714844 161.019531 209.425781 160.800781 209.253906 Z M 288.902344 312.4375 C 288.890625 312.632812 288.890625 312.828125 288.902344 313 C 289.007812 315.304688 289.605469 318.203125 289.6875 318.824219 C 290.953125 328.058594 292.820312 337.175781 294.90625 346.257812 C 300.988281 372.730469 311.484375 396.546875 325.746094 419.589844 C 329.894531 426.300781 340.042969 441.632812 347.714844 450.347656 C 342.914062 432.597656 338.050781 409.058594 333.003906 393.046875 C 327.242188 374.757812 317.117188 358.710938 307.691406 342.167969 C 302.878906 333.710938 297.878906 325.261719 292.347656 317.238281 C 291.910156 316.59375 290.628906 314.382812 289.28125 312.828125 C 289.179688 312.703125 289.039062 312.5625 288.902344 312.4375 Z M 298.925781 496.230469 C 299.167969 496 299.25 495.734375 299.269531 495.492188 C 299.25 495.78125 299.109375 496.046875 298.925781 496.230469 Z M 223.957031 296.230469 C 223.476562 295.355469 222.980469 294.492188 222.460938 293.640625 C 222.300781 293.515625 222.160156 293.363281 222.046875 293.167969 C 222.046875 293.167969 220.007812 289.726562 219.648438 289.347656 C 218.957031 288.621094 218.277344 287.90625 217.578125 287.207031 C 215.59375 285.238281 213.519531 283.394531 211.402344 281.589844 C 205.054688 276.144531 198.519531 270.871094 191.746094 265.957031 C 169.777344 250.027344 147.207031 246.574219 120.847656 251.210938 C 115.121094 252.222656 109.359375 253.285156 103.738281 254.757812 C 102.921875 254.964844 101.339844 255.21875 100.085938 255.734375 C 99.832031 255.839844 99.601562 255.953125 99.40625 256.082031 C 99.371094 256.105469 99.324219 256.125 99.289062 256.148438 C 99.476562 256.332031 99.820312 256.65625 100.097656 256.851562 C 101.757812 257.945312 104.199219 258.75 104.914062 259.050781 C 112.644531 262.25 120.914062 264.160156 128.96875 266.3125 C 160.789062 274.855469 195.363281 278.492188 223.957031 296.230469 Z M 220.078125 355.1875 C 219.605469 354.738281 219.097656 354.3125 218.589844 353.886719 C 216.804688 352.34375 214.996094 350.847656 213.199219 349.328125 C 207.726562 344.667969 202.148438 340.109375 196.480469 335.6875 C 179.800781 322.695312 160.480469 311.886719 139.695312 307.292969 C 134.566406 306.164062 129.382812 305.472656 124.152344 305.035156 C 123.714844 305 122.921875 304.851562 122.089844 304.78125 C 123.09375 305.589844 124.210938 306.289062 124.488281 306.488281 C 129.742188 310.273438 135.558594 313.484375 141.273438 316.511719 C 151.007812 321.65625 160.8125 326.480469 171.054688 330.519531 C 186.191406 336.496094 201.296875 342.480469 214.375 352.449219 C 216.308594 353.3125 218.210938 354.222656 220.078125 355.1875 Z M 228.9375 360.65625 C 243.820312 379.636719 261.425781 396.15625 282.773438 408.402344 C 297.09375 416.621094 311.058594 425.058594 324.605469 434.542969 C 327.371094 436.476562 330.148438 438.410156 332.867188 440.414062 C 333.417969 440.816406 335.632812 442.199219 338.027344 443.648438 C 337.925781 443.511719 337.832031 443.382812 337.726562 443.246094 C 316.21875 424.414062 290.941406 410.335938 270.125 390.640625 C 262.992188 383.894531 256.378906 376.632812 249.789062 369.371094 C 247.53125 366.894531 245.285156 364.421875 243.082031 361.898438 C 242.335938 361.035156 241.585938 360.171875 240.859375 359.285156 C 240.527344 358.882812 239.605469 357.871094 239.511719 357.710938 C 239.074219 356.960938 239.511719 356.433594 239.671875 356.257812 C 239.753906 356.179688 240.492188 355.464844 241.402344 356.214844 C 241.550781 356.339844 241.667969 356.488281 241.734375 356.648438 C 242.011719 356.960938 242.519531 357.535156 242.703125 357.753906 C 243.417969 358.617188 244.15625 359.46875 244.890625 360.3125 C 247.082031 362.820312 249.328125 365.285156 251.5625 367.746094 C 258.117188 374.964844 264.683594 382.179688 271.769531 388.878906 C 288.5 404.707031 308.109375 416.898438 326.324219 430.847656 C 309.179688 415.425781 291.875 399.160156 277.636719 381.363281 C 277.484375 381.179688 277.335938 380.984375 277.183594 380.800781 C 276.863281 380.695312 276.574219 380.488281 276.355469 380.203125 C 274.203125 377.347656 271.964844 374.433594 269.695312 371.476562 C 253.269531 351.148438 236.066406 331.140625 215.410156 315.097656 C 209.269531 310.332031 202.945312 305.726562 196.402344 301.523438 C 196.113281 301.339844 194.71875 300.398438 193.300781 299.695312 C 193.011719 299.546875 192.644531 299.40625 192.3125 299.292969 C 192.414062 299.808594 192.621094 300.363281 192.851562 300.925781 C 193.648438 302.894531 194.925781 304.898438 195.546875 306.199219 C 199.292969 314.003906 203.300781 321.703125 207.679688 329.164062 C 214.027344 339.984375 220.953125 350.398438 228.578125 360.171875 C 228.726562 360.34375 228.84375 360.496094 228.9375 360.65625 Z M 233.199219 371.234375 C 230.789062 368.449219 228.441406 365.59375 226.160156 362.683594 C 225.46875 362.246094 222.714844 360.53125 222.609375 360.472656 C 219.636719 358.78125 216.585938 357.226562 213.476562 355.808594 C 213.199219 355.765625 212.921875 355.660156 212.679688 355.476562 C 212.65625 355.464844 212.632812 355.441406 212.609375 355.429688 C 211.367188 354.878906 210.121094 354.335938 208.855469 353.820312 C 192.171875 346.980469 173.601562 342.355469 155.640625 346.507812 C 151.652344 347.429688 147.632812 348.605469 143.832031 350.125 C 143.417969 350.285156 142.703125 350.527344 142.113281 350.871094 C 142.046875 350.917969 141.953125 350.976562 141.871094 351.042969 C 142.023438 351.195312 142.207031 351.320312 142.402344 351.449219 C 143.507812 352.148438 145.027344 352.597656 145.753906 352.851562 C 152.058594 354.980469 158.578125 356.59375 165.074219 357.984375 C 177.34375 360.621094 190.699219 361.613281 203.761719 363.589844 C 213.96875 365.121094 223.980469 367.273438 233.199219 371.234375 Z M 334.917969 449.011719 C 334.859375 448.957031 334.8125 448.898438 334.753906 448.828125 C 307.519531 442.796875 285.410156 432.277344 258.117188 426.589844 C 248.972656 424.679688 239.730469 423.367188 230.421875 422.527344 C 227.335938 422.25 224.234375 422.007812 221.148438 421.742188 C 220.019531 421.652344 218.890625 421.492188 217.761719 421.398438 C 217.53125 421.375 216.929688 421.351562 216.585938 421.328125 C 216.4375 421.363281 216.285156 421.363281 216.125 421.339844 C 214.949219 421.132812 215.03125 420.085938 215.042969 419.984375 C 215.066406 419.777344 215.203125 419.0625 216.089844 418.933594 C 216.261719 418.914062 217.496094 418.96875 217.96875 419.015625 C 219.097656 419.121094 220.214844 419.269531 221.34375 419.359375 C 224.441406 419.625 227.542969 419.855469 230.640625 420.144531 C 240.042969 420.996094 249.375 422.320312 258.613281 424.253906 C 282.046875 429.144531 301.65625 437.570312 323.960938 443.695312 C 322.453125 443.050781 320.941406 442.40625 319.421875 441.761719 C 310.25 437.871094 301.160156 433.886719 292.277344 429.339844 C 279.234375 422.664062 265.664062 415.367188 251.449219 411.558594 C 234.683594 407.054688 217 407.402344 199.902344 409.507812 C 192.300781 410.441406 184.707031 411.5 177.136719 412.628906 C 176.25 412.765625 174.128906 412.847656 172.496094 413.351562 C 172.171875 413.457031 171.871094 413.570312 171.628906 413.722656 C 171.5625 413.765625 171.457031 413.847656 171.410156 413.882812 C 171.410156 414.007812 171.527344 414.113281 171.621094 414.25 C 171.917969 414.6875 172.390625 415.125 172.933594 415.539062 C 174.902344 417.082031 177.714844 418.382812 178.703125 418.914062 C 188.164062 423.941406 198.09375 428.257812 208.253906 431.65625 C 225.328125 437.375 243.09375 438.273438 260.871094 439.667969 C 285.574219 441.578125 310.6875 443.351562 334.917969 449.011719 Z M 363.867188 497.023438 C 364.675781 497.335938 365.480469 497.632812 366.277344 497.957031 C 375.34375 501.480469 384.386719 505.21875 393.234375 509.296875 C 392.601562 508.648438 392.09375 508.144531 391.796875 507.84375 C 389.332031 505.394531 386.851562 502.964844 384.363281 500.523438 C 383.570312 500.269531 379.078125 498.867188 376.242188 498.453125 C 374.8125 498.246094 373.375 498.058594 371.933594 497.898438 C 369.097656 497.589844 366.484375 497.253906 363.867188 497.023438 Z M 312.726562 512.933594 C 312.472656 513.070312 312.1875 513.140625 311.886719 513.140625 C 311.609375 513.300781 311.265625 513.484375 311.101562 513.566406 C 310.214844 513.96875 309.339844 514.429688 308.476562 514.878906 C 305.746094 516.316406 303.074219 517.871094 300.445312 519.492188 C 292.371094 524.5 284.882812 530.542969 278.914062 537.980469 C 278.464844 538.542969 276.679688 540.535156 275.605469 542.355469 C 275.492188 542.550781 275.386719 542.78125 275.285156 543 C 276.527344 542.652344 277.910156 541.941406 278.441406 541.730469 C 283.546875 539.707031 288.636719 537.679688 293.71875 535.621094 C 310.527344 528.804688 329.535156 521.21875 347.925781 516.890625 C 336.21875 515.523438 324.445312 514.347656 312.726562 512.933594 Z M 359.882812 515.003906 C 376.371094 517.214844 392.683594 520.125 408.558594 524.984375 C 407.890625 524.304688 407.222656 523.636719 406.554688 522.957031 C 381.542969 511.585938 354.054688 504.5625 327.175781 499.972656 C 319.6875 498.695312 312.105469 497.679688 304.535156 497.011719 C 304.351562 497 298.972656 496.597656 298.371094 496.550781 C 298.246094 496.585938 298.109375 496.597656 297.957031 496.585938 C 297.300781 496.53125 296.804688 495.941406 296.875 495.285156 C 296.898438 495.089844 297.117188 494.214844 298.1875 494.160156 C 299.257812 494.101562 304.535156 494.605469 304.742188 494.628906 C 312.382812 495.296875 320.019531 496.324219 327.578125 497.613281 C 352.714844 501.90625 378.386719 508.316406 402.09375 518.378906 C 401.855469 518.125 401.601562 517.871094 401.359375 517.617188 C 401.324219 517.582031 401.164062 517.410156 400.886719 517.132812 C 398.28125 515.730469 397.074219 514.890625 394.191406 513.542969 C 384.652344 509.078125 374.859375 504.988281 365.03125 501.167969 C 331.183594 487.988281 295.101562 479.699219 258.660156 483.5 C 250.375 484.363281 241.941406 485.652344 233.902344 487.839844 C 233.175781 488.035156 230.964844 488.519531 229.316406 489.277344 C 229.074219 489.382812 228.796875 489.554688 228.578125 489.703125 C 228.613281 489.726562 228.636719 489.75 228.660156 489.761719 C 229.097656 490.050781 229.636719 490.324219 230.238281 490.601562 C 232.761719 491.742188 236.078125 492.671875 236.875 492.972656 C 247.992188 497.070312 259.960938 500.050781 271.503906 502.699219 C 299.882812 509.203125 329.386719 510.976562 358.441406 514.808594 C 358.535156 514.796875 358.617188 514.785156 358.707031 514.761719 C 359.132812 514.695312 359.539062 514.785156 359.882812 515.003906 Z M 419.976562 516.671875 C 420.277344 518.480469 420.550781 520.289062 420.816406 522.105469 C 420.898438 522.613281 421.175781 524.925781 420.726562 526.355469 C 420.4375 527.242188 419.90625 527.886719 419.203125 528.21875 C 418.695312 528.460938 418.039062 528.585938 417.222656 528.367188 C 417.292969 528.507812 417.335938 528.644531 417.371094 528.804688 C 429.042969 539.902344 442.257812 552.472656 455.289062 562.796875 C 459.527344 566.160156 463.710938 570.210938 468.882812 572.109375 C 469.863281 572.476562 470.839844 572.027344 471.761719 571.40625 C 473.710938 570.09375 475.367188 567.828125 476.347656 566.515625 C 476.683594 566.054688 477.121094 565.503906 477.429688 564.890625 C 477.570312 564.617188 477.742188 564.328125 477.636719 564.039062 C 477.40625 563.339844 476.832031 562.75 476.210938 562.199219 C 475.390625 561.472656 474.457031 560.828125 473.722656 560.277344 C 469.828125 557.296875 465.703125 554.257812 461.773438 551.320312 C 455.609375 546.714844 449.101562 542.238281 443.316406 537.1875 C 435.183594 530.082031 427.984375 523.832031 419.976562 516.671875 Z M 415.644531 511.492188 C 415.285156 509.304688 414.953125 507.109375 414.640625 504.921875 C 412.554688 489.898438 413.421875 474.359375 415.414062 459.394531 C 419.480469 428.949219 431.898438 399.242188 431.703125 368.300781 C 431.65625 360.945312 430.96875 353.394531 428.675781 346.371094 C 428.386719 345.496094 427.984375 344.136719 427.347656 342.976562 C 427.097656 342.515625 426.820312 342.078125 426.472656 341.753906 C 426.289062 341.582031 426.082031 341.421875 425.828125 341.398438 C 424.882812 341.296875 423.972656 341.941406 423.097656 342.699219 C 421.289062 344.265625 419.734375 346.601562 418.824219 347.890625 C 412.453125 356.972656 407.324219 367.171875 403.257812 377.472656 C 389.179688 413.167969 387.75 453.457031 399.492188 489.992188 C 402.257812 498.589844 405.621094 506.878906 410.035156 514.773438 C 410.609375 515.808594 413.476562 520.277344 415.839844 523.074219 C 405.574219 495.023438 400.851562 463.828125 404.066406 434.105469 C 405.160156 423.976562 406.773438 413.847656 408.675781 403.832031 C 409.308594 400.472656 410 397.121094 410.703125 393.773438 C 410.921875 392.714844 411.152344 391.65625 411.300781 390.585938 C 411.347656 390.320312 411.449219 389.640625 411.507812 389.273438 C 411.484375 389.109375 411.496094 388.9375 411.554688 388.765625 C 411.898438 387.636719 412.914062 387.820312 413.015625 387.84375 C 413.234375 387.890625 413.90625 388.097656 413.9375 388.972656 C 413.949219 389.15625 413.742188 390.433594 413.675781 390.941406 C 413.5 392.058594 413.269531 393.164062 413.039062 394.277344 C 412.335938 397.617188 411.65625 400.945312 411.023438 404.292969 C 409.132812 414.238281 407.535156 424.3125 406.4375 434.371094 C 403.398438 462.410156 407.535156 491.789062 416.75 518.515625 C 416.449219 516.660156 416.152344 514.808594 415.839844 512.957031 C 415.585938 512.519531 415.503906 511.976562 415.644531 511.492188 Z M 370.113281 384.023438 C 370.414062 387.949219 370.828125 391.851562 371.425781 395.730469 C 373.109375 406.585938 375.527344 417.265625 378.421875 427.832031 C 377.3125 400.96875 382.289062 373.664062 388.292969 347.523438 C 389.375 342.8125 390.480469 338.140625 391.601562 333.515625 C 394.871094 319.964844 397.683594 306.257812 400.472656 292.59375 C 400.585938 291.996094 401.667969 287.585938 401.808594 284.328125 C 401.832031 283.796875 401.773438 283.164062 401.714844 282.714844 C 400.230469 283.394531 398.859375 284.925781 397.566406 286.675781 C 394.976562 290.175781 392.832031 294.664062 391.425781 297.058594 C 381.425781 314.1875 376.644531 334.191406 373.800781 353.65625 C 372.84375 360.171875 371.851562 366.675781 371.128906 373.226562 C 370.886719 375.449219 370.402344 381.351562 370.21875 383.574219 C 370.195312 383.722656 370.160156 383.886719 370.113281 384.023438 Z M 390.011719 484.707031 C 390.621094 485.328125 391.242188 485.949219 391.851562 486.574219 C 376.378906 456.667969 366.933594 436.433594 356.875 401.691406 C 353.707031 390.769531 351.609375 373.871094 353.453125 362.3125 C 353.558594 361.65625 354.179688 361.207031 354.824219 361.3125 C 355.480469 361.414062 355.929688 362.039062 355.828125 362.683594 C 354.03125 373.941406 356.105469 390.378906 359.179688 401.023438 C 369.078125 435.210938 378.386719 455.273438 393.476562 484.5 C 383.191406 455.675781 372.71875 426.613281 368.015625 396.257812 C 365.917969 382.675781 365.988281 368.703125 365.863281 355.003906 C 365.734375 341.8125 364.652344 328.5625 363.535156 315.429688 C 363.398438 313.773438 363.441406 309.894531 362.867188 306.671875 C 362.695312 305.714844 362.476562 304.816406 362.164062 304.082031 C 362.070312 303.863281 361.980469 303.65625 361.875 303.480469 C 361.828125 303.539062 361.796875 303.597656 361.761719 303.644531 C 361.472656 304.082031 361.253906 304.519531 361.105469 304.75 C 359.238281 307.753906 357.636719 310.953125 356.207031 314.1875 C 350.042969 328.105469 346.566406 343.25 345.171875 358.355469 C 342.128906 391.171875 356.597656 421.042969 371.160156 449.394531 C 377.082031 460.914062 382.382812 473.3125 389.710938 484.0625 C 389.882812 484.246094 389.976562 484.476562 390.011719 484.707031 Z M 351.367188 450.671875 C 351.851562 452.433594 352.335938 454.125 352.820312 455.746094 C 353.039062 456.472656 352.75 457.242188 352.117188 457.65625 C 351.484375 458.070312 350.65625 458.027344 350.078125 457.542969 C 348.28125 456.058594 346.136719 453.765625 343.835938 451.027344 C 343.625 450.992188 343.429688 450.921875 343.246094 450.808594 C 343.246094 450.808594 341.136719 449.542969 338.648438 448.023438 C 351.910156 462.835938 364.328125 475.878906 378.671875 490.09375 C 383.847656 495.21875 389.089844 500.257812 394.238281 505.402344 C 395.539062 506.703125 400.875 512.171875 402.984375 514.324219 C 403.003906 514.335938 403.027344 514.347656 403.039062 514.359375 C 403.386719 514.542969 403.652344 514.832031 403.800781 515.175781 C 403.8125 515.1875 403.824219 515.199219 403.835938 515.210938 C 406.082031 517.535156 408.351562 519.875 410.632812 522.1875 C 410.746094 522.246094 410.875 522.300781 410.988281 522.347656 C 409.167969 519.828125 407.5 517.214844 407.074219 516.429688 C 403.730469 510.457031 400.964844 504.265625 398.617188 497.886719 C 398.5 497.820312 398.398438 497.738281 398.292969 497.644531 C 386.265625 486.285156 375.4375 474.199219 363.605469 462.628906 C 359.628906 458.738281 355.585938 454.90625 351.667969 450.957031 C 351.554688 450.867188 351.460938 450.773438 351.367188 450.671875 Z M 251.964844 319.492188 C 252.632812 320.609375 253.300781 321.714844 253.972656 322.820312 C 254.421875 316.421875 254.882812 311.667969 256.125 304.425781 C 257.644531 295.539062 258.855469 286.433594 262.183594 278.007812 C 266.886719 266.128906 274.570312 255.5625 279.523438 243.730469 C 282.886719 235.71875 286.101562 227.246094 287.855469 218.703125 C 288.152344 217.253906 288.558594 215.480469 288.683594 213.722656 C 288.796875 212.222656 288.742188 210.726562 288.117188 209.53125 C 287.726562 208.78125 286.988281 208.863281 286.230469 209.058594 C 284.0625 209.65625 281.644531 211.566406 280.503906 212.421875 C 272.632812 218.300781 265.273438 226.335938 260.167969 234.738281 C 247.324219 255.90625 248.648438 277.46875 250.988281 300.972656 C 251.5625 306.761719 251.160156 312.976562 252.023438 318.675781 C 252.070312 318.964844 252.046875 319.242188 251.964844 319.492188 Z M 231.597656 289.3125 C 230.480469 286.148438 228.902344 280.460938 227.851562 277.917969 C 224.351562 269.457031 220.546875 261.03125 216.261719 252.9375 C 210.746094 242.519531 203.867188 232.3125 195.871094 223.042969 C 195.628906 222.882812 195.433594 222.652344 195.292969 222.386719 C 184.707031 210.269531 172.183594 199.816406 158.253906 192.703125 C 152.308594 189.664062 145.925781 187.257812 139.5 185.460938 C 138.519531 185.1875 137.207031 184.726562 135.914062 184.519531 C 135.0625 184.390625 134.210938 184.300781 133.613281 184.816406 C 133.40625 185 133.347656 185.289062 133.3125 185.589844 C 133.265625 185.96875 133.300781 186.382812 133.359375 186.808594 C 133.644531 188.824219 134.695312 191.066406 135.167969 192.183594 C 138.855469 200.988281 143.589844 208.921875 149.601562 216.34375 C 166.019531 236.617188 188.40625 250.199219 207.585938 267.5 C 216.65625 275.683594 222.070312 282.820312 229.015625 292.835938 C 229.558594 293.617188 229.363281 294.6875 228.589844 295.21875 C 228.257812 295.449219 227.863281 295.550781 227.484375 295.515625 C 229.617188 299.546875 231.46875 303.804688 233.554688 307.777344 C 238.890625 317.929688 244.558594 327.953125 250.308594 337.886719 C 256.597656 348.765625 264.671875 359.320312 272.382812 369.347656 C 275.054688 372.648438 277.703125 375.953125 280.34375 379.257812 C 293.558594 395.785156 309.46875 410.96875 325.390625 425.402344 C 324.398438 423.886719 323.546875 422.527344 322.855469 421.398438 C 321.242188 418.796875 319.675781 416.171875 318.152344 413.546875 C 317.648438 413.558594 317.152344 413.351562 316.804688 412.9375 C 295.066406 386.957031 273.28125 360.507812 255.410156 331.707031 C 249.28125 321.832031 243.359375 311.851562 237.75 301.675781 C 235.722656 298.003906 233.878906 294.226562 231.78125 290.589844 C 231.539062 290.1875 231.492188 289.726562 231.597656 289.3125 Z M 222.230469 257.046875 C 221.078125 228.0625 229.003906 199.574219 231.503906 170.820312 C 232.21875 162.683594 232.714844 154.476562 232.609375 146.300781 C 232.597656 145.496094 232.796875 143.125 232.597656 141.191406 C 232.589844 141.042969 232.554688 140.867188 232.519531 140.695312 C 231.941406 141.503906 231.449219 142.410156 231.238281 142.722656 C 228.40625 146.902344 225.847656 151.273438 223.519531 155.753906 C 213.417969 175.195312 210.445312 195.097656 211.964844 216.839844 C 212.3125 221.835938 212.839844 226.808594 213.589844 231.757812 C 213.84375 233.4375 214.488281 241.507812 214.765625 243.1875 C 214.777344 243.246094 214.777344 243.304688 214.789062 243.359375 C 216.378906 245.996094 217.875 248.65625 219.292969 251.328125 C 220.308594 253.226562 221.273438 255.125 222.230469 257.046875 Z M 230.617188 203.027344 C 230.097656 206.261719 229.59375 209.507812 229.097656 212.742188 C 240.363281 192.5625 256.207031 176.34375 273.601562 160.726562 C 281.308594 153.808594 289.386719 147.328125 297.207031 140.535156 C 297.667969 140.132812 300.214844 138.175781 301.839844 136.332031 C 301.988281 136.160156 302.140625 135.964844 302.289062 135.757812 C 302.242188 135.769531 302.210938 135.769531 302.175781 135.769531 C 301.242188 135.90625 300.308594 136.171875 299.800781 136.265625 C 295.332031 137.117188 290.917969 138.257812 286.621094 139.777344 C 266.851562 146.761719 254.328125 161.667969 243.71875 179.074219 C 240.238281 184.78125 237.09375 190.664062 234.109375 196.640625 C 233.1875 198.480469 232.289062 200.332031 231.414062 202.199219 C 231.238281 202.578125 230.964844 202.855469 230.617188 203.027344 Z M 158.3125 104.828125 C 158.21875 104.738281 158.140625 104.621094 158.070312 104.507812 C 158.070312 104.507812 154.753906 98.773438 154.578125 98.371094 C 154.246094 97.566406 153.808594 96.804688 153.394531 96.035156 C 152.113281 93.753906 150.605469 91.636719 148.992188 89.589844 C 143.359375 82.417969 136.5625 76.027344 128.761719 71.25 C 128.21875 70.917969 126.019531 69.46875 124.117188 68.683594 C 123.957031 68.617188 123.773438 68.558594 123.601562 68.511719 C 124.210938 69.722656 125.28125 70.988281 125.652344 71.503906 C 129.0625 76.257812 132.65625 80.875 136.179688 85.535156 C 147.011719 99.796875 159.175781 113.519531 168.648438 128.816406 C 165.421875 120.738281 161.734375 112.828125 158.3125 104.828125 Z M 169.304688 121.449219 C 167.460938 111.378906 165.859375 101.238281 164.800781 91.121094 C 164.625 90.914062 164.5 90.660156 164.441406 90.371094 C 164.140625 88.921875 163.855469 87.460938 163.566406 85.996094 C 162.65625 81.3125 162.046875 76.570312 161.261719 71.851562 C 158.726562 56.597656 156.976562 41.230469 154.636719 25.957031 C 154.222656 23.261719 153.84375 20.558594 153.335938 17.875 C 153.277344 18.519531 153.242188 19.0625 153.199219 19.359375 C 152.148438 27.050781 151.113281 34.75 150.582031 42.496094 C 149.730469 55.25 149.902344 67.867188 153.152344 80.289062 C 156.871094 94.527344 163.484375 107.867188 169.304688 121.449219 Z M 180.050781 174.332031 C 179.855469 174.179688 179.683594 173.972656 179.558594 173.730469 C 179.210938 173.042969 175.5 167.207031 175.144531 166.503906 C 174.140625 164.558594 173.082031 162.636719 172 160.738281 C 168.820312 155.199219 165.570312 149.730469 162.011719 144.4375 C 150.167969 126.847656 136.136719 115.039062 115.339844 109.871094 C 110.824219 108.742188 106.273438 107.660156 101.699219 106.808594 C 101.179688 106.703125 100.28125 106.464844 99.40625 106.371094 C 99.222656 106.359375 98.96875 106.371094 98.773438 106.382812 C 98.785156 106.441406 98.796875 106.507812 98.820312 106.554688 C 98.886719 106.773438 98.992188 106.992188 99.117188 107.210938 C 99.902344 108.671875 101.320312 110.160156 101.847656 110.804688 C 106.746094 116.824219 112.023438 122.453125 117.515625 127.929688 C 128.726562 139.085938 141.597656 148.027344 153.808594 157.652344 C 166.226562 167.4375 177.957031 177.910156 186.675781 191.976562 C 186.863281 192.289062 186.953125 192.621094 186.929688 192.957031 C 189.636719 199.449219 195.699219 214.203125 198.265625 220.582031 C 200.523438 223.195312 202.703125 225.863281 204.777344 228.605469 C 201.089844 220.292969 197.679688 211.613281 195.292969 203.777344 C 192.714844 195.328125 191.34375 187.84375 191.953125 182.769531 C 193.613281 169.070312 198.796875 155.695312 203.105469 142.734375 C 208.382812 126.859375 212.414062 110.953125 213.808594 94.238281 C 214.144531 90.175781 214.648438 85.984375 214.292969 81.910156 C 214.257812 81.460938 214.222656 80.726562 214.050781 80.070312 C 214.039062 80.023438 214.015625 79.964844 214.003906 79.917969 C 213.878906 80.023438 213.738281 80.148438 213.648438 80.253906 C 213.046875 80.945312 212.566406 81.796875 212.253906 82.246094 C 209.363281 86.410156 206.875 90.902344 204.605469 95.4375 C 195.214844 114.234375 188.796875 135.675781 188.035156 156.753906 C 187.804688 163.074219 188.035156 169.347656 188.453125 175.65625 C 188.601562 177.945312 188.796875 180.234375 188.945312 182.539062 C 189.003906 183.480469 188.289062 184.300781 187.34375 184.355469 C 186.402344 184.414062 185.582031 183.699219 185.523438 182.757812 C 185.375 180.464844 185.179688 178.175781 185.03125 175.875 C 184.914062 174.113281 184.8125 172.363281 184.730469 170.601562 C 184.648438 170.429688 184.59375 170.257812 184.570312 170.058594 C 184.546875 169.910156 184.523438 169.691406 184.476562 169.425781 C 184.132812 169.277344 183.855469 168.96875 183.773438 168.574219 C 179.441406 147.890625 175.894531 127.023438 175.457031 105.851562 C 175.144531 90.980469 177.082031 76.363281 177.460938 61.582031 C 177.472656 60.914062 178.023438 60.398438 178.691406 60.410156 C 179.363281 60.421875 179.878906 60.972656 179.867188 61.640625 C 179.488281 76.386719 177.550781 90.96875 177.863281 105.808594 C 178.164062 120.160156 179.902344 134.367188 182.34375 148.476562 C 181.882812 140.203125 181.515625 131.914062 181.609375 123.625 C 181.78125 107.765625 184.742188 92.074219 186.804688 76.410156 C 188.832031 60.996094 189.996094 45.605469 186.609375 30.054688 C 184.996094 22.628906 182.75 15.527344 180.121094 8.414062 C 179.9375 7.917969 179.394531 5.871094 178.691406 4.351562 C 178.679688 4.316406 178.660156 4.28125 178.648438 4.246094 C 178.472656 4.535156 178.300781 4.878906 178.175781 5.179688 C 177.3125 7.273438 176.675781 9.992188 176.421875 10.75 C 173.199219 20.511719 170.753906 30.5625 168.992188 40.679688 C 161.503906 83.671875 175.480469 132.523438 183.554688 174.367188 C 183.738281 175.296875 183.128906 176.195312 182.195312 176.378906 C 181.261719 176.5625 180.363281 175.953125 180.191406 175.023438 C 180.144531 174.78125 180.097656 174.5625 180.050781 174.332031 Z M 183.394531 193.207031 C 174.9375 179.785156 163.613281 169.75 151.675781 160.34375 C 139.359375 150.640625 126.386719 141.617188 115.085938 130.371094 C 109.5 124.8125 104.140625 119.089844 99.175781 112.976562 C 98.460938 112.105469 96.375 109.8125 95.640625 107.867188 C 95.121094 106.496094 95.199219 105.21875 95.890625 104.265625 C 96.410156 103.539062 97.238281 103.101562 98.253906 102.976562 C 99.601562 102.804688 101.421875 103.273438 102.320312 103.449219 C 106.964844 104.3125 111.582031 105.414062 116.15625 106.554688 C 137.828125 111.953125 152.496094 124.203125 164.84375 142.539062 C 168.460938 147.902344 171.746094 153.4375 174.972656 159.054688 C 176.066406 160.96875 177.136719 162.902344 178.140625 164.859375 C 176.929688 159 175.664062 153.023438 174.382812 146.96875 C 174.257812 146.832031 174.140625 146.671875 174.074219 146.488281 C 164.613281 124.433594 147.816406 106.496094 133.449219 87.597656 C 129.890625 82.914062 126.285156 78.273438 122.863281 73.496094 C 122.34375 72.769531 120.71875 70.769531 120.144531 69.132812 C 119.707031 67.878906 119.820312 66.75 120.410156 65.933594 C 121.078125 65.011719 122.492188 64.585938 124.304688 65.117188 C 126.59375 65.785156 129.84375 67.902344 130.570312 68.339844 C 138.703125 73.324219 145.800781 79.976562 151.675781 87.460938 C 151.007812 85.386719 150.398438 83.292969 149.84375 81.1875 C 146.492188 68.410156 146.285156 55.425781 147.171875 42.289062 C 147.703125 34.464844 148.738281 26.683594 149.808594 18.914062 C 149.9375 18.015625 150.0625 15.171875 150.6875 13.339844 C 151.136719 12.003906 151.929688 11.121094 152.78125 10.808594 C 153.601562 10.507812 154.429688 10.671875 155.109375 11.523438 C 155.351562 11.820312 155.59375 12.304688 155.765625 12.859375 C 156.019531 13.675781 156.179688 14.699219 156.226562 14.90625 C 157.023438 18.382812 157.507812 21.941406 158.046875 25.460938 C 160.007812 38.238281 161.550781 51.074219 163.484375 63.851562 C 163.613281 55.792969 164.28125 47.839844 165.628906 40.082031 C 167.414062 29.789062 169.902344 19.578125 173.1875 9.65625 C 173.496094 8.703125 174.371094 4.960938 175.546875 2.703125 C 176.367188 1.140625 177.496094 0.253906 178.460938 0.125 C 179.222656 0.0351562 180.085938 0.332031 180.824219 1.207031 C 182.011719 2.625 183.09375 6.457031 183.371094 7.21875 C 186.054688 14.480469 188.347656 21.730469 189.996094 29.316406 C 193.464844 45.261719 192.324219 61.054688 190.238281 76.847656 C 188.1875 92.386719 185.238281 107.925781 185.0625 123.660156 C 184.984375 130.761719 185.25 137.851562 185.617188 144.945312 C 187.886719 127.25 193.695312 109.675781 201.574219 93.917969 C 203.914062 89.230469 206.480469 84.605469 209.476562 80.300781 C 210.007812 79.527344 211.054688 77.8125 212.195312 76.984375 C 213.070312 76.351562 214.027344 76.132812 214.972656 76.375 C 215.824219 76.605469 216.480469 77.167969 216.917969 77.960938 C 217.519531 79.042969 217.65625 80.714844 217.738281 81.621094 C 218.117188 85.894531 217.609375 90.277344 217.253906 94.527344 C 215.835938 111.515625 211.757812 127.675781 206.390625 143.816406 C 202.148438 156.558594 197.011719 169.703125 195.386719 183.183594 C 194.8125 187.914062 196.195312 194.890625 198.601562 202.773438 C 201.445312 212.085938 205.753906 222.628906 210.226562 232.265625 C 209.464844 227.222656 208.925781 222.167969 208.566406 217.09375 C 207 194.695312 210.085938 174.214844 220.503906 154.1875 C 222.886719 149.59375 225.515625 145.105469 228.429688 140.8125 C 228.785156 140.28125 229.867188 138.300781 230.941406 137.371094 C 231.976562 136.460938 233.082031 136.300781 234.003906 136.738281 C 234.859375 137.140625 235.59375 138.222656 235.894531 139.777344 C 236.308594 141.949219 236.066406 145.253906 236.078125 146.269531 C 236.183594 154.554688 235.675781 162.878906 234.960938 171.132812 C 234.328125 178.359375 233.347656 185.566406 232.265625 192.769531 C 234.9375 187.523438 237.761719 182.355469 240.824219 177.3125 C 251.851562 159.21875 264.960938 143.828125 285.515625 136.5625 C 289.972656 134.988281 294.546875 133.8125 299.191406 132.914062 C 299.984375 132.765625 301.78125 132.257812 303.128906 132.304688 C 304.144531 132.328125 304.996094 132.648438 305.539062 133.167969 C 306.113281 133.722656 306.367188 134.421875 306.300781 135.25 C 306.242188 135.894531 305.90625 136.703125 305.308594 137.542969 C 303.730469 139.753906 300.078125 142.617188 299.488281 143.125 C 291.691406 149.90625 283.625 156.363281 275.929688 163.269531 C 256.449219 180.765625 238.914062 198.988281 227.796875 222.882812 C 227.75 222.976562 227.703125 223.066406 227.644531 223.148438 C 225.8125 237.121094 224.800781 251.140625 226.296875 265.289062 C 226.308594 265.394531 226.308594 265.484375 226.308594 265.589844 C 227.96875 269.238281 229.546875 272.921875 231.066406 276.605469 C 232.242188 279.4375 234.050781 286.125 235.179688 288.976562 C 235.285156 289.230469 235.320312 289.496094 235.296875 289.75 C 237.195312 293.132812 238.925781 296.621094 240.789062 300.015625 C 243.1875 304.355469 245.628906 308.671875 248.140625 312.957031 C 247.96875 309.066406 248.003906 305.09375 247.621094 301.304688 C 245.203125 277.054688 244.015625 254.824219 257.289062 232.96875 C 262.613281 224.195312 270.296875 215.816406 278.5 209.679688 C 279.859375 208.667969 282.785156 206.457031 285.375 205.753906 C 287.796875 205.097656 289.960938 205.546875 291.207031 207.941406 C 291.945312 209.359375 292.21875 211.027344 292.207031 212.777344 C 292.1875 215.066406 291.65625 217.472656 291.265625 219.394531 C 289.46875 228.144531 286.183594 236.835938 282.738281 245.054688 C 277.785156 256.863281 270.125 267.40625 265.421875 279.273438 C 262.171875 287.480469 261.035156 296.355469 259.546875 305.011719 C 258.050781 313.75 257.703125 318.804688 257.128906 327.667969 C 257.128906 327.746094 257.117188 327.816406 257.09375 327.886719 C 257.507812 328.5625 257.933594 329.242188 258.347656 329.910156 C 273.914062 355.003906 292.496094 378.324219 311.402344 401.082031 C 302.679688 383.976562 296.011719 366.191406 291.609375 347.027344 C 289.5 337.851562 287.625 328.621094 286.332031 319.296875 C 286.207031 318.386719 285.167969 313.023438 285.640625 310.699219 C 285.917969 309.316406 286.714844 308.59375 287.554688 308.375 C 288.558594 308.132812 289.882812 308.558594 291.113281 309.722656 C 292.84375 311.355469 294.675781 314.476562 295.238281 315.292969 C 300.828125 323.394531 305.871094 331.925781 310.746094 340.476562 C 320.296875 357.238281 330.515625 373.492188 336.34375 392.023438 C 340.90625 406.515625 345.320312 427.152344 349.6875 444.109375 C 349.824219 444.191406 349.953125 444.28125 350.054688 444.398438 C 351.414062 445.777344 352.773438 447.171875 354.144531 448.542969 C 358.0625 452.476562 362.082031 456.300781 366.046875 460.179688 C 370.78125 464.804688 375.355469 469.523438 379.917969 474.246094 C 375.78125 466.578125 372.117188 458.566406 368.199219 450.933594 C 353.339844 422.007812 338.742188 391.492188 341.839844 358.019531 C 343.28125 342.550781 346.839844 327.042969 353.15625 312.78125 C 354.652344 309.410156 356.324219 306.058594 358.269531 302.917969 C 358.648438 302.320312 359.539062 300.71875 360.492188 300.109375 C 361.414062 299.523438 362.382812 299.429688 363.375 300.074219 C 364.527344 300.824219 365.425781 302.355469 365.953125 304.34375 C 366.910156 307.9375 366.863281 313.105469 367.027344 315.132812 C 368.144531 328.355469 369.238281 341.699219 369.363281 354.96875 C 369.375 356.753906 369.398438 358.539062 369.410156 360.332031 C 369.757812 357.941406 370.113281 355.558594 370.460938 353.164062 C 373.363281 333.261719 378.304688 312.839844 388.523438 295.332031 C 389.964844 292.867188 392.1875 288.242188 394.871094 284.628906 C 396.886719 281.898438 399.214844 279.78125 401.601562 279.148438 C 403.582031 278.617188 405.054688 279.875 405.285156 282.703125 C 405.5625 286.148438 404.042969 292.523438 403.894531 293.273438 C 401.09375 306.96875 398.269531 320.726562 395 334.308594 C 393.882812 338.921875 392.773438 343.574219 391.703125 348.28125 C 384.59375 379.257812 378.871094 411.878906 383.328125 443.417969 C 383.363281 443.648438 383.351562 443.867188 383.292969 444.074219 C 385.460938 450.945312 387.761719 457.761719 390.136719 464.5625 C 385.703125 434.921875 389.121094 404.191406 400.148438 376.21875 C 404.308594 365.675781 409.574219 355.234375 416.09375 345.933594 C 417.105469 344.484375 418.882812 341.894531 420.921875 340.121094 C 422.601562 338.660156 424.480469 337.796875 426.289062 338.003906 C 427.753906 338.164062 428.984375 339.109375 429.90625 340.488281 C 430.933594 342.007812 431.589844 344.070312 432.003906 345.3125 C 434.410156 352.667969 435.148438 360.574219 435.207031 368.289062 C 435.414062 399.378906 422.972656 429.25 418.894531 459.855469 C 416.933594 474.519531 416.082031 489.75 418.121094 504.460938 C 418.433594 506.738281 418.789062 509.019531 419.167969 511.285156 C 428.488281 519.667969 436.484375 526.605469 445.644531 534.605469 C 451.371094 539.601562 457.8125 544.035156 463.90625 548.582031 C 467.84375 551.527344 471.980469 554.578125 475.886719 557.558594 C 476.855469 558.296875 478.132812 559.171875 479.136719 560.183594 C 479.976562 561.023438 480.644531 561.96875 480.96875 562.992188 C 481.277344 563.925781 481.175781 564.902344 480.816406 565.847656 C 480.4375 566.847656 479.710938 567.816406 479.171875 568.550781 C 478.03125 570.082031 476.023438 572.695312 473.753906 574.238281 C 471.867188 575.515625 469.78125 576.070312 467.765625 575.320312 C 462.257812 573.296875 457.742188 569.058594 453.226562 565.480469 C 439.929688 554.933594 426.425781 542.078125 414.574219 530.796875 C 414.410156 530.648438 414.261719 530.496094 414.101562 530.347656 C 396.140625 524.179688 377.53125 520.757812 358.71875 518.25 C 337.566406 521.738281 314.800781 530.808594 295.101562 538.808594 C 290.007812 540.878906 284.90625 542.90625 279.800781 544.933594 C 279.0625 545.230469 276.886719 546.300781 275.285156 546.53125 C 273.984375 546.714844 272.921875 546.371094 272.300781 545.679688 C 271.550781 544.851562 271.390625 543.390625 272.164062 541.710938 C 273.175781 539.488281 275.734375 536.5625 276.320312 535.839844 C 282.53125 528.09375 290.308594 521.785156 298.71875 516.582031 C 301.242188 515.015625 303.800781 513.53125 306.414062 512.136719 C 294.433594 510.59375 282.519531 508.71875 270.816406 506.039062 C 259.132812 503.367188 247.023438 500.328125 235.769531 496.183594 C 234.800781 495.828125 230.214844 494.527344 227.566406 493.054688 C 226.6875 492.570312 226 492.039062 225.570312 491.523438 C 225.042969 490.890625 224.835938 490.234375 224.859375 489.613281 C 224.890625 488.5625 225.617188 487.46875 226.976562 486.652344 C 228.867188 485.535156 232.105469 484.777344 233.070312 484.511719 C 241.296875 482.277344 249.914062 480.957031 258.371094 480.070312 C 291.089844 476.652344 323.546875 482.808594 354.386719 493.535156 C 354.535156 493.480469 354.699219 493.445312 354.871094 493.433594 C 361.082031 493.054688 366.21875 493.789062 372.394531 494.480469 C 373.871094 494.652344 375.34375 494.824219 376.820312 495.042969 C 377.578125 495.160156 378.464844 495.34375 379.363281 495.550781 C 378.339844 494.550781 377.324219 493.535156 376.300781 492.535156 C 362.949219 479.308594 351.277344 467.085938 339.03125 453.535156 C 339.03125 453.535156 339.03125 453.535156 339.019531 453.535156 C 313.488281 446.953125 286.828125 445.109375 260.640625 443.050781 C 242.589844 441.632812 224.546875 440.679688 207.195312 434.867188 C 196.851562 431.402344 186.757812 427.015625 177.125 421.894531 C 175.835938 421.203125 171.839844 419.316406 169.753906 417.230469 C 168.429688 415.917969 167.828125 414.445312 168.082031 413.132812 C 168.300781 411.984375 169.152344 411.039062 170.480469 410.429688 C 172.378906 409.554688 175.46875 409.371094 176.652344 409.195312 C 184.257812 408.070312 191.875 407 199.511719 406.066406 C 217.046875 403.914062 235.179688 403.601562 252.371094 408.21875 C 266.816406 412.097656 280.617188 419.476562 293.867188 426.269531 C 302.667969 430.769531 311.679688 434.726562 320.78125 438.585938 C 323.753906 439.851562 326.726562 441.140625 329.734375 442.335938 C 327.394531 440.644531 325.03125 439 322.671875 437.339844 C 309.214844 427.925781 295.332031 419.535156 281.101562 411.371094 C 265.421875 402.371094 251.734375 391.125 239.628906 378.300781 C 228.707031 371.808594 216.136719 368.910156 203.300781 366.953125 C 190.167969 364.960938 176.734375 363.972656 164.40625 361.3125 C 157.78125 359.886719 151.136719 358.25 144.707031 356.074219 C 143.648438 355.707031 141.238281 354.925781 139.855469 353.773438 C 138.910156 352.988281 138.382812 352.023438 138.359375 350.988281 C 138.335938 350.113281 138.703125 349.328125 139.371094 348.683594 C 140.246094 347.832031 141.804688 347.246094 142.609375 346.925781 C 146.574219 345.347656 150.765625 344.117188 154.914062 343.148438 C 169.511719 339.777344 184.5 341.90625 198.625 346.394531 C 189.417969 341.421875 179.636719 337.578125 169.84375 333.710938 C 159.476562 329.625 149.566406 324.742188 139.71875 319.539062 C 133.867188 316.441406 127.898438 313.140625 122.527344 309.273438 C 122.171875 309.007812 120.570312 308.007812 119.40625 306.957031 C 118.75 306.371094 118.21875 305.761719 117.941406 305.230469 C 117.390625 304.195312 117.503906 303.261719 118.082031 302.527344 C 118.566406 301.90625 119.394531 301.480469 120.453125 301.351562 C 121.8125 301.191406 123.691406 301.546875 124.5 301.617188 C 129.878906 302.066406 135.214844 302.78125 140.488281 303.953125 C 161.78125 308.652344 181.5625 319.6875 198.648438 332.984375 C 203.707031 336.933594 208.695312 340.972656 213.589844 345.117188 C 210.527344 340.476562 207.585938 335.734375 204.765625 330.925781 C 200.339844 323.382812 196.285156 315.589844 192.507812 307.707031 C 191.863281 306.359375 190.546875 304.265625 189.730469 302.238281 C 189.050781 300.558594 188.703125 298.890625 188.980469 297.554688 C 189.304688 296.023438 190.582031 295.253906 192.585938 295.746094 C 194.613281 296.242188 197.816406 298.359375 198.3125 298.671875 C 204.949219 302.917969 211.355469 307.578125 217.578125 312.414062 C 228.613281 320.988281 238.671875 330.683594 248.164062 340.949219 C 247.898438 340.5 247.632812 340.0625 247.382812 339.613281 C 241.609375 329.644531 235.917969 319.585938 230.558594 309.386719 C 229.316406 307.015625 228.152344 304.53125 226.964844 302.066406 C 226.710938 302.03125 226.457031 301.941406 226.238281 301.777344 C 197.195312 281.886719 161.148438 278.492188 128.128906 269.652344 C 119.925781 267.453125 111.515625 265.496094 103.644531 262.238281 C 102.691406 261.835938 99.039062 260.558594 97.261719 258.980469 C 95.925781 257.808594 95.464844 256.414062 95.984375 255.078125 C 96.308594 254.238281 97.019531 253.503906 98.023438 252.960938 C 99.53125 252.144531 101.800781 251.753906 102.910156 251.464844 C 108.621094 249.957031 114.476562 248.886719 120.292969 247.851562 C 147.621094 243.027344 171.019531 246.675781 193.808594 263.195312 C 200.664062 268.15625 207.265625 273.484375 213.683594 279 C 214.386719 279.597656 215.085938 280.207031 215.777344 280.816406 C 212.726562 277.191406 209.40625 273.738281 205.339844 270.054688 C 186.03125 252.628906 163.519531 238.917969 146.988281 218.507812 C 140.765625 210.820312 135.871094 202.625 132.054688 193.519531 C 131.410156 191.976562 129.9375 188.617188 129.914062 186.027344 C 129.902344 184.460938 130.386719 183.113281 131.433594 182.226562 C 132.539062 181.285156 133.96875 180.960938 135.511719 181.054688 C 137.253906 181.15625 139.128906 181.8125 140.476562 182.179688 C 147.125 184.035156 153.738281 186.519531 159.878906 189.664062 C 171.550781 195.625 182.253906 203.855469 191.699219 213.433594 C 188.808594 206.367188 185.316406 197.894531 183.578125 193.714844 C 183.453125 193.542969 183.40625 193.382812 183.394531 193.207031 Z M 183.394531 193.207031 "/></g></g></svg>